<svg width="180" height="40" fill="none" xmlns="http://www.w3.org/2000/svg"><g clip-path="url(#clip0_957_2169)"><rect width="180" height="40" rx="20" fill="#1C1C1C"/><path fill="#DE4646" d="M0 0h180v40H0z"/><path d="M26.894 25.159c2.679 0 4.348-1.822 4.348-4.736v-.012c0-2.908-1.676-4.73-4.348-4.73-2.666 0-4.348 1.822-4.348 4.73v.012c0 2.914 1.676 4.736 4.348 4.736zm0-1.422c-1.638 0-2.679-1.276-2.679-3.314v-.012c0-2.038 1.048-3.308 2.679-3.308 1.638 0 2.679 1.276 2.679 3.308v.012c0 2.019-1.022 3.314-2.679 3.314zM32.493 25h8.905v-6.729h-1.58v5.491h-2.082v-5.49h-1.58v5.49h-2.083v-5.49h-1.58V25zm10.321 0h1.549l2.9-4.52h.064V25h1.562v-6.729h-1.55l-2.9 4.488h-.063v-4.488h-1.562V25zm10.569.133c2.012 0 3.256-1.288 3.256-3.39v-.012c0-1.955-1.174-3.2-2.983-3.2-1.086 0-1.88.451-2.304 1.251h-.032l.013-.089c.247-1.758.831-2.526 2.545-2.59l.654-.019c.774-.025 1.434-.158 1.67-.33v-1.263c-.382.178-1.042.286-1.765.305l-.686.025c-2.507.09-3.675 1.568-3.675 5.307v.013c0 2.628 1.174 3.992 3.307 3.992zm-.026-1.276c-1.053 0-1.669-.755-1.669-2.088v-.013c0-1.263.616-1.98 1.67-1.98 1.053 0 1.669.717 1.669 1.98v.013c0 1.333-.616 2.088-1.67 2.088zm6.24-1.783L61.907 25h1.924l-2.844-3.586 2.71-3.143h-1.821l-2.279 2.717h-.235v-2.716h-1.58V25h1.58v-2.926h.235zM64.688 25h1.549l2.9-4.52h.064V25h1.562v-6.729h-1.55l-2.9 4.488h-.064v-4.488h-1.561V25zm12.416 2.222h1.422c-.933-1.099-1.65-3.549-1.65-5.694 0-2.152.717-4.596 1.65-5.688h-1.422c-1.282 1.568-1.853 3.409-1.853 5.694 0 2.266.564 4.114 1.853 5.688zM83.801 25h1.561v-1.758h1.244v-1.346h-1.244V15.84h-2.33l-3.801 6.005v1.397h4.57V25zm-3.098-3.066v-.044l3.085-4.812h.038v4.856h-3.123zm7.928 5.288c1.283-1.575 1.854-3.422 1.854-5.688 0-2.285-.571-4.126-1.854-5.694H87.21c.933 1.086 1.65 3.542 1.65 5.688 0 2.139-.717 4.596-1.65 5.694h1.421z" fill="#fff"/><path d="M163 22.5l-5-5-5 5" stroke="#fff" stroke-width="2"/></g><defs><clipPath id="clip0_957_2169"><rect width="180" height="40" rx="20" fill="#fff"/></clipPath></defs></svg>