<svg width="523" height="188" fill="none" xmlns="http://www.w3.org/2000/svg"><g filter="url(#filter0_bdd_957_2159)"><rect x="12" y="10" width="499" height="165" rx="25" fill="#000" fill-opacity=".5" shape-rendering="crispEdges"/><path d="M36.894 34.159c2.679 0 4.348-1.822 4.348-4.736v-.012c0-2.908-1.676-4.73-4.348-4.73-2.666 0-4.348 1.822-4.348 4.73v.012c0 2.914 1.676 4.736 4.348 4.736zm0-1.422c-1.638 0-2.679-1.276-2.679-3.314v-.012c0-2.038 1.048-3.308 2.679-3.308 1.638 0 2.679 1.276 2.679 3.308v.012c0 2.019-1.022 3.314-2.679 3.314zM42.493 34h8.905v-6.729h-1.58v5.491h-2.082v-5.49h-1.58v5.49h-2.083v-5.49h-1.58V34zm10.321 0h1.549l2.9-4.52h.064V34h1.562v-6.729h-1.55l-2.9 4.488h-.063v-4.488h-1.562V34zm10.569.133c2.012 0 3.256-1.288 3.256-3.39v-.012c0-1.955-1.174-3.2-2.983-3.2-1.086 0-1.88.451-2.304 1.251h-.032l.013-.089c.247-1.758.831-2.526 2.545-2.59l.654-.019c.774-.025 1.434-.158 1.67-.33v-1.263c-.382.178-1.042.286-1.766.305l-.685.025c-2.507.09-3.675 1.568-3.675 5.307v.013c0 2.628 1.174 3.992 3.307 3.992zm-.026-1.276c-1.053 0-1.669-.755-1.669-2.088v-.013c0-1.263.616-1.98 1.67-1.98 1.053 0 1.669.717 1.669 1.98v.013c0 1.333-.616 2.088-1.67 2.088zm6.24-1.783L71.907 34h1.924l-2.844-3.586 2.71-3.143h-1.821l-2.279 2.717h-.235v-2.716h-1.58V34h1.58v-2.926h.235zM74.688 34h1.549l2.9-4.52h.064V34h1.562v-6.729h-1.55l-2.9 4.488h-.064v-4.488h-1.561V34z" fill="#fff"/><path d="M38.5 49.682a1.39 1.39 0 00-1.391 1.378c0 .767.624 1.391 1.391 1.391a1.39 1.39 0 001.378-1.391c0-.754-.624-1.378-1.378-1.378zM45.502 56h1.2l2.69-7.68h.362v-1.48h-.876L45.501 56zm1.53-2.622h4.849l-.356-.97h-4.138l-.356.97zM52.185 56h1.2l-3.378-9.16h-.514v1.48L52.185 56zm7.172-6.843h-5.535v.914h2.216V56h1.104v-5.929h2.215v-.914zm1.6 9.128h1.105v-3.364h.101c.127.245.296.457.508.635.216.177.461.317.736.419.28.097.576.146.889.146.58 0 1.083-.146 1.51-.438.432-.292.767-.703 1.004-1.232.236-.529.355-1.15.355-1.866v-.013c0-.71-.118-1.33-.355-1.86-.237-.529-.572-.94-1.003-1.231-.428-.296-.931-.444-1.511-.444a2.57 2.57 0 00-.882.146 2.281 2.281 0 00-.724.419 2.253 2.253 0 00-.527.647h-.102v-1.092h-1.104v9.128zm3.085-3.142c-.415 0-.772-.104-1.073-.311a1.97 1.97 0 01-.692-.882c-.16-.385-.24-.84-.24-1.365v-.013c0-.529.08-.984.24-1.364a1.98 1.98 0 01.692-.883c.3-.207.658-.31 1.073-.31.419 0 .776.103 1.073.31.296.203.522.495.679.876.16.381.241.838.241 1.371v.013c0 .529-.08.986-.241 1.371-.157.38-.383.675-.68.882-.295.203-.653.305-1.072.305zm4.97.857h1.105l3.65-5.51-.75.407h.585V56h1.104v-6.843h-1.104l-3.65 5.51.749-.406h-.584v-5.104h-1.105V56zm10.721.127c.66 0 1.228-.142 1.702-.425a2.78 2.78 0 001.098-1.213c.258-.529.387-1.155.387-1.879v-.012c0-.69-.125-1.287-.375-1.79A2.73 2.73 0 0081.5 49.64c-.453-.28-.986-.42-1.6-.42-.342 0-.662.05-.958.147a2.45 2.45 0 00-.78.425 2.433 2.433 0 00-.579.692h-.101l.019-.14c.085-.622.224-1.125.419-1.51.195-.386.463-.671.806-.857.347-.187.785-.29 1.314-.311l.698-.032c.398-.021.76-.068 1.086-.14.326-.076.541-.165.647-.267v-.977a4.944 4.944 0 01-.907.267 6.8 6.8 0 01-.877.101l-.685.032c-.61.03-1.134.152-1.574.368a2.697 2.697 0 00-1.073.965c-.275.423-.478.963-.61 1.619-.13.651-.196 1.432-.196 2.342v.012c0 .915.118 1.68.355 2.298.241.618.6 1.086 1.073 1.403.474.313 1.06.47 1.758.47zm0-.978c-.435 0-.808-.099-1.117-.298a1.918 1.918 0 01-.698-.87c-.16-.38-.241-.837-.241-1.37v-.013c0-.512.08-.946.24-1.302.162-.355.394-.626.7-.812.308-.19.68-.286 1.116-.286.436 0 .806.096 1.111.286.31.186.544.457.705.812.16.356.241.79.241 1.302v.012c0 .534-.08.99-.241 1.371a1.902 1.902 0 01-.705.87c-.305.199-.675.298-1.11.298zm5.358 3.25c.406 0 .747-.059 1.022-.177.28-.115.52-.316.723-.603.208-.288.407-.688.597-1.2l2.672-7.262h-1.161l-2.101 6.323.438-.692h-.52l.437.692-2.107-6.323h-1.18l2.532 6.85-.127.406c-.123.393-.286.67-.489.831-.199.16-.455.241-.768.241-.076 0-.154-.002-.235-.006a1.686 1.686 0 01-.222-.025v.907c.076.013.159.022.248.026.088.008.169.012.24.012zm11.299-9.242h-5.535v.914h2.215V56h1.104v-5.929h2.216v-.914zm5.408 8.652V56h5.351v1.81h1.028v-2.724h-1.092v-5.929h-4.665l-.267 3.815a5.05 5.05 0 01-.241 1.282c-.131.39-.322.667-.571.832h-.571v2.723h1.028zm4.183-2.723h-3.364v-.102c.16-.211.287-.49.381-.837.093-.352.154-.735.184-1.15l.215-2.926h2.584v5.015zm6.449 1.035c.652 0 1.213-.142 1.682-.426.47-.287.832-.696 1.086-1.225.258-.529.387-1.157.387-1.885v-.013c0-.732-.129-1.362-.387-1.891a2.797 2.797 0 00-1.086-1.22c-.469-.283-1.03-.424-1.682-.424-.647 0-1.208.141-1.682.425-.47.283-.834.69-1.092 1.219-.254.529-.381 1.16-.381 1.891v.013c0 .728.127 1.356.381 1.885.258.53.622.938 1.092 1.225.474.284 1.035.426 1.682.426zm0-.978c-.431 0-.798-.102-1.098-.305a1.933 1.933 0 01-.692-.876c-.156-.38-.235-.84-.235-1.377v-.013c0-.541.079-1.003.235-1.384.161-.38.392-.67.692-.87.3-.202.667-.304 1.098-.304.432 0 .798.102 1.098.305.301.199.529.489.686.87.161.38.241.842.241 1.383v.013c0 .537-.08.996-.241 1.377-.157.381-.385.673-.686.876-.3.203-.666.305-1.098.305zm6.532-1.822l.254-3.25h2.38V56h1.105v-6.843h-4.475l-.292 4.075a4.899 4.899 0 01-.14.92 1.65 1.65 0 01-.298.648.634.634 0 01-.515.242c-.08 0-.158-.005-.234-.013a1.613 1.613 0 01-.159-.032v.997c.046.017.112.031.197.044.084.017.186.026.304.026.381 0 .701-.098.959-.292.262-.195.467-.496.616-.902.152-.406.251-.922.298-1.549zm6.52 2.679l2.456-3.136h.407V56h1.066v-3.136h.406L132.274 56h1.384l-2.971-3.63 2.831-3.213h-1.308l-2.393 2.882h-.406v-2.882h-1.066v2.882h-.407l-2.393-2.882h-1.326l2.85 3.238L124.117 56h1.365zm12.206.12c.402 0 .764-.05 1.086-.152a2.96 2.96 0 00.844-.419c.237-.177.43-.374.578-.59.152-.22.258-.447.317-.68l.013-.05h-1.105l-.025.057a1.18 1.18 0 01-.311.4c-.148.131-.336.24-.565.324a2.317 2.317 0 01-.806.127c-.415 0-.775-.091-1.079-.273a1.838 1.838 0 01-.705-.794c-.165-.347-.247-.764-.247-1.25v-.438c0-.512.084-.944.254-1.295.169-.351.397-.616.685-.794.292-.181.622-.273.99-.273s.694.087.978.26c.283.17.506.428.666.775.161.347.242.79.242 1.327v.438l.545-.806h-4.919v.882h5.484v-.432c0-.681-.12-1.278-.361-1.79a2.763 2.763 0 00-1.029-1.206c-.444-.288-.977-.431-1.599-.431-.618 0-1.158.15-1.619.45a2.99 2.99 0 00-1.073 1.25c-.249.534-.374 1.154-.374 1.86v.007c0 .715.125 1.337.374 1.866.254.525.614.931 1.079 1.219.47.288 1.031.432 1.682.432zm9.249-.12h1.105v-6.843h-1.105v2.831h-3.39v-2.83h-1.104V56h1.104v-3.098h3.39V56zm9.782.127c.66 0 1.227-.142 1.701-.425a2.781 2.781 0 001.098-1.213c.258-.529.387-1.155.387-1.879v-.012c0-.69-.125-1.287-.374-1.79a2.734 2.734 0 00-1.048-1.168c-.452-.28-.986-.42-1.599-.42a3.06 3.06 0 00-.959.147 2.44 2.44 0 00-.78.425 2.418 2.418 0 00-.578.692h-.102l.019-.14c.085-.622.225-1.125.419-1.51a1.94 1.94 0 01.806-.857c.347-.187.785-.29 1.314-.311l.699-.032a6.708 6.708 0 001.085-.14c.326-.076.542-.165.648-.267v-.977a4.963 4.963 0 01-.908.267 6.804 6.804 0 01-.876.101l-.686.032c-.609.03-1.134.152-1.574.368a2.701 2.701 0 00-1.073.965c-.275.423-.478.963-.609 1.619-.131.651-.197 1.432-.197 2.342v.012c0 .915.119 1.68.356 2.298.241.618.598 1.086 1.072 1.403.474.313 1.061.47 1.759.47zm0-.978c-.436 0-.809-.099-1.117-.298a1.918 1.918 0 01-.699-.87c-.16-.38-.241-.837-.241-1.37v-.013c0-.512.081-.946.241-1.302.161-.355.394-.626.699-.812.308-.19.681-.286 1.117-.286.436 0 .806.096 1.111.286.309.186.543.457.704.812.161.356.241.79.241 1.302v.012c0 .534-.08.99-.241 1.371a1.902 1.902 0 01-.704.87c-.305.199-.675.298-1.111.298zm5.021.851h2.444c.782 0 1.407-.21 1.872-.628.466-.42.698-.982.698-1.689v-.013c0-.706-.232-1.27-.698-1.688-.465-.419-1.09-.629-1.872-.629h-1.34v-2.196h-1.104V56zm2.444-3.732c.448 0 .804.127 1.066.38.267.254.4.595.4 1.022v.013c0 .423-.131.764-.394 1.022-.262.254-.62.38-1.072.38h-1.34v-2.817h1.34zM167.948 56h1.104v-6.843h-1.104V56zm8.233-6.843h-5.535v.914h2.215V56h1.104v-5.929h2.216v-.914zM177.774 56h2.444c.783 0 1.407-.21 1.872-.628.466-.42.699-.982.699-1.689v-.013c0-.706-.233-1.27-.699-1.688-.465-.419-1.089-.629-1.872-.629h-1.34v-2.196h-1.104V56zm2.444-3.732c.448 0 .804.127 1.066.38.267.254.4.595.4 1.022v.013c0 .423-.131.764-.393 1.022-.263.254-.62.38-1.073.38h-1.34v-2.817h1.34zM193.364 56v-6.843h-1.105v2.888a1.217 1.217 0 01-.387.28 2.36 2.36 0 01-.578.19c-.224.047-.48.07-.768.07-.465 0-.816-.133-1.053-.4-.233-.267-.349-.624-.349-1.073v-1.955h-1.105v1.955c0 .728.212 1.319.635 1.771.423.453 1.047.68 1.872.68.369 0 .686-.037.953-.108.27-.072.497-.174.679-.305h.101V56h1.105zm2.171 0h1.104l3.65-5.51-.749.407h.584V56h1.105v-6.843h-1.105l-3.65 5.51.749-.406h-.584v-5.104h-1.104V56zm10.676.12c.551 0 1.02-.09 1.41-.272a2.43 2.43 0 00.939-.75c.237-.321.402-.687.495-1.097l.013-.07-1.092.006-.013.038c-.127.381-.336.67-.628.87-.292.199-.669.298-1.13.298-.406 0-.76-.106-1.06-.317-.3-.212-.533-.51-.698-.895-.165-.39-.248-.847-.248-1.371v-.013c0-.516.081-.963.241-1.34.165-.38.398-.674.699-.882a1.83 1.83 0 011.066-.31c.491 0 .887.118 1.187.355.301.237.493.524.578.863l.006.019h1.098l-.006-.038a2.535 2.535 0 00-1.428-1.885c-.402-.195-.881-.292-1.435-.292-.639 0-1.193.146-1.663.438a2.88 2.88 0 00-1.092 1.218c-.254.525-.381 1.143-.381 1.854v.013c0 .723.129 1.352.388 1.885.258.533.622.946 1.091 1.238.47.292 1.024.438 1.663.438zm6.202-2.799l.254-3.25h2.38V56h1.105v-6.843h-4.475l-.292 4.075a4.818 4.818 0 01-.14.92 1.65 1.65 0 01-.298.648.632.632 0 01-.514.242 2.11 2.11 0 01-.235-.013 1.752 1.752 0 01-.159-.032v.997c.047.017.112.031.197.044.084.017.186.026.305.026.38 0 .7-.098.958-.292.262-.195.468-.496.616-.902.152-.406.252-.922.298-1.549zm8.728 2.8c.652 0 1.213-.142 1.682-.426.47-.287.832-.696 1.086-1.225.258-.529.387-1.157.387-1.885v-.013c0-.732-.129-1.362-.387-1.891a2.797 2.797 0 00-1.086-1.22c-.469-.283-1.03-.424-1.682-.424-.647 0-1.208.141-1.682.425-.47.283-.834.69-1.092 1.219-.254.529-.381 1.16-.381 1.891v.013c0 .728.127 1.356.381 1.885.258.53.622.938 1.092 1.225.474.284 1.035.426 1.682.426zm0-.978c-.432 0-.798-.102-1.098-.305a1.933 1.933 0 01-.692-.876c-.157-.38-.235-.84-.235-1.377v-.013c0-.541.078-1.003.235-1.384.161-.38.392-.67.692-.87.3-.202.666-.304 1.098-.304.432 0 .798.102 1.098.305.301.199.529.489.686.87.161.38.241.842.241 1.383v.013c0 .537-.08.996-.241 1.377-.157.381-.385.673-.686.876-.3.203-.666.305-1.098.305zm6.094.857v-4.869h.12l2.152 4.679h.851l2.158-4.679h.121V56h1.104v-6.843h-1.282l-2.45 5.307h-.102l-2.437-5.307h-1.34V56h1.105zm14.092-9.16h-.819l-.997 3.612h1.263l.553-3.612zm2.107 0h-.819l-.996 3.612h1.263l.552-3.612zm2.254 9.16h1.142v-4.17h5.027V56H253v-9.16h-1.143v3.961h-5.027v-3.96h-1.142V56zm11.514.12c.309 0 .593-.042.851-.126a2.305 2.305 0 001.218-1.003h.102V56h1.105v-4.685c0-.473-.102-.88-.305-1.218a1.935 1.935 0 00-.882-.787c-.386-.182-.857-.273-1.416-.273-.487 0-.92.076-1.301.228a2.374 2.374 0 00-.933.629 1.84 1.84 0 00-.445.939l-.006.038h1.104l.007-.019c.089-.267.264-.472.527-.616.262-.148.598-.222 1.009-.222.512 0 .895.112 1.149.337.258.22.387.541.387.964v2.133c0 .326-.085.618-.254.876a1.758 1.758 0 01-.685.616 2.188 2.188 0 01-1.003.222c-.398 0-.728-.095-.991-.285-.262-.195-.393-.466-.393-.813v-.013c0-.338.118-.6.355-.787.242-.186.622-.294 1.143-.324l2.38-.152v-.882l-2.513.152c-.529.03-.98.127-1.352.292-.373.165-.656.394-.851.686-.195.287-.292.634-.292 1.04v.013c0 .415.099.775.298 1.08.203.304.476.539.819.704.347.165.737.248 1.168.248zm5.415-.12h1.104v-5.929h3.326V56h1.105v-6.843h-5.535V56zm7.712 2.285h1.105v-3.364h.101c.127.245.296.457.508.635.216.177.461.317.736.419.28.097.576.146.889.146.58 0 1.083-.146 1.511-.438.431-.292.766-.703 1.003-1.232.237-.529.355-1.15.355-1.866v-.013c0-.71-.118-1.33-.355-1.86-.237-.529-.572-.94-1.003-1.231-.428-.296-.931-.444-1.511-.444a2.57 2.57 0 00-.882.146 2.287 2.287 0 00-.724.419 2.254 2.254 0 00-.527.647h-.101v-1.092h-1.105v9.128zm3.085-3.142c-.415 0-.772-.104-1.073-.311a1.974 1.974 0 01-.692-.882c-.16-.385-.241-.84-.241-1.365v-.013c0-.529.081-.984.241-1.364a1.98 1.98 0 01.692-.883c.301-.207.658-.31 1.073-.31.419 0 .777.103 1.073.31.296.203.522.495.679.876.161.381.241.838.241 1.371v.013c0 .529-.08.986-.241 1.371-.157.38-.383.675-.679.882-.296.203-.654.305-1.073.305zm8.538.857h1.104v-6.843h-2.38c-.521 0-.974.091-1.359.273a2.072 2.072 0 00-.895.78c-.211.335-.317.737-.317 1.207v.013c0 .465.138.867.413 1.206.275.338.653.575 1.136.71L277.743 56h1.301l1.746-2.45h1.162V56zm-1.276-3.364c-.449 0-.802-.114-1.06-.343a1.152 1.152 0 01-.381-.889v-.012c0-.415.127-.739.381-.972.258-.232.611-.349 1.06-.349h1.276v2.565h-1.276zm5.16 3.364l2.457-3.136h.406V56h1.067v-3.136h.406L292.628 56h1.384l-2.97-3.63 2.831-3.213h-1.308l-2.393 2.882h-.406v-2.882h-1.067v2.882h-.406l-2.393-2.882h-1.327l2.85 3.238L284.472 56h1.364zm12.207.12c.402 0 .764-.05 1.085-.152.326-.106.608-.245.845-.419a2.53 2.53 0 00.577-.59c.153-.22.258-.447.318-.68l.012-.05h-1.104l-.026.057a1.168 1.168 0 01-.311.4 1.76 1.76 0 01-.564.324 2.327 2.327 0 01-.807.127c-.414 0-.774-.091-1.079-.273a1.843 1.843 0 01-.704-.794c-.165-.347-.248-.764-.248-1.25v-.438c0-.512.085-.944.254-1.295.169-.351.398-.616.686-.794.292-.181.622-.273.99-.273s.694.087.977.26c.284.17.506.428.667.775.161.347.241.79.241 1.327v.438l.546-.806h-4.919v.882h5.484v-.432c0-.681-.121-1.278-.362-1.79a2.767 2.767 0 00-1.028-1.206c-.445-.288-.978-.431-1.6-.431-.618 0-1.157.15-1.619.45a2.99 2.99 0 00-1.072 1.25c-.25.534-.375 1.154-.375 1.86v.007c0 .715.125 1.337.375 1.866.254.525.613.931 1.079 1.219.47.288 1.03.432 1.682.432zm9.249-.12h1.104v-6.843h-1.104v2.831h-3.39v-2.83h-1.105V56h1.105v-3.098h3.39V56zm3.275 0h1.104l3.65-5.51-.749.407h.584V56h1.105v-6.843h-1.105l-3.65 5.51.749-.406h-.584v-5.104h-1.104V56zm10.67.12c.402 0 .764-.05 1.086-.152a2.96 2.96 0 00.844-.419c.237-.177.43-.374.578-.59.152-.22.258-.447.317-.68l.013-.05h-1.105l-.025.057a1.18 1.18 0 01-.311.4c-.148.131-.337.24-.565.324a2.32 2.32 0 01-.806.127c-.415 0-.775-.091-1.079-.273a1.838 1.838 0 01-.705-.794c-.165-.347-.248-.764-.248-1.25v-.438c0-.512.085-.944.254-1.295.17-.351.398-.616.686-.794.292-.181.622-.273.99-.273s.694.087.978.26c.283.17.505.428.666.775.161.347.241.79.241 1.327v.438l.546-.806h-4.919v.882h5.484v-.432c0-.681-.12-1.278-.362-1.79a2.76 2.76 0 00-1.028-1.206c-.444-.288-.977-.431-1.6-.431-.617 0-1.157.15-1.618.45a2.99 2.99 0 00-1.073 1.25c-.25.534-.374 1.154-.374 1.86v.007c0 .715.124 1.337.374 1.866.254.525.614.931 1.079 1.219.47.288 1.031.432 1.682.432zm10.296 0c.309 0 .593-.042.851-.126.258-.09.489-.218.692-.388a2.33 2.33 0 00.527-.615h.101V56h1.105v-4.685c0-.473-.102-.88-.305-1.218a1.935 1.935 0 00-.882-.787c-.386-.182-.857-.273-1.416-.273-.487 0-.92.076-1.301.228a2.374 2.374 0 00-.933.629 1.84 1.84 0 00-.445.939l-.006.038h1.104l.007-.019c.089-.267.264-.472.527-.616.262-.148.598-.222 1.009-.222.512 0 .895.112 1.149.337.258.22.387.541.387.964v2.133c0 .326-.085.618-.254.876a1.758 1.758 0 01-.685.616 2.188 2.188 0 01-1.003.222c-.398 0-.728-.095-.991-.285-.262-.195-.393-.466-.393-.813v-.013c0-.338.118-.6.355-.787.242-.186.622-.294 1.143-.324l2.38-.152v-.882l-2.513.152c-.529.03-.98.127-1.352.292-.373.165-.656.394-.851.686-.195.287-.292.634-.292 1.04v.013c0 .415.099.775.298 1.08.204.304.476.539.819.704.347.165.737.248 1.168.248zm6.868-3.237L341.08 56h1.416l-3.288-3.72v.197l3.167-3.32h-1.327l-2.647 2.863h-.349v-2.863h-1.104V56h1.104v-3.117h.349zm7.072 0L348.151 56h1.416l-3.288-3.72v.197l3.167-3.32h-1.326l-2.647 2.863h-.349v-2.863h-1.105V56h1.105v-3.117h.349zm5.954 5.516c.406 0 .747-.059 1.022-.177.279-.115.52-.316.723-.603.208-.288.407-.688.597-1.2l2.672-7.262h-1.161l-2.101 6.323.438-.692h-.521l.438.692-2.107-6.323h-1.181l2.533 6.85-.127.406c-.123.393-.286.67-.489.831-.199.16-.455.241-.768.241-.076 0-.154-.002-.235-.006a1.696 1.696 0 01-.222-.025v.907c.076.013.159.022.248.026.088.008.169.012.241.012zM359.126 56v-4.869h.121l2.152 4.679h.851l2.158-4.679h.12V56h1.105v-6.843h-1.282l-2.451 5.307h-.101l-2.438-5.307h-1.339V56h1.104zm9.274 2.4c.407 0 .747-.06 1.022-.178.28-.115.521-.316.724-.603.207-.288.406-.688.597-1.2l2.672-7.262h-1.162l-2.101 6.323.438-.692h-.52l.438.692-2.108-6.323h-1.18l2.532 6.85-.127.406c-.122.393-.285.67-.488.831-.199.16-.455.241-.768.241-.077 0-.155-.002-.235-.006a1.657 1.657 0 01-.222-.025v.907a2.1 2.1 0 00.247.026c.089.008.169.012.241.012zm7.948-5.079l.254-3.25h2.38V56h1.104v-6.843h-4.475l-.292 4.075a4.821 4.821 0 01-.139.92 1.633 1.633 0 01-.299.648.63.63 0 01-.514.242 2.25 2.25 0 01-.235-.013 1.64 1.64 0 01-.158-.032v.997c.046.017.112.031.196.044.085.017.187.026.305.026.381 0 .7-.098.959-.292.262-.195.467-.496.615-.902.153-.406.252-.922.299-1.549zm9.54 2.679h1.105v-6.843h-2.381c-.52 0-.973.091-1.358.273a2.066 2.066 0 00-.895.78c-.212.335-.317.737-.317 1.207v.013c0 .465.137.867.412 1.206.275.338.654.575 1.136.71L381.68 56h1.301l1.746-2.45h1.161V56zm-1.276-3.364c-.448 0-.802-.114-1.06-.343a1.152 1.152 0 01-.381-.889v-.012c0-.415.127-.739.381-.972.258-.232.612-.349 1.06-.349h1.276v2.565h-1.276zm9.509-3.479h-5.535v.914h2.215V56h1.105v-5.929h2.215v-.914zm4.158 6.964c.652 0 1.212-.142 1.682-.426a2.83 2.83 0 001.085-1.225c.259-.529.388-1.157.388-1.885v-.013c0-.732-.129-1.362-.388-1.891a2.795 2.795 0 00-1.085-1.22c-.47-.283-1.03-.424-1.682-.424-.648 0-1.208.141-1.682.425-.47.283-.834.69-1.092 1.219-.254.529-.381 1.16-.381 1.891v.013c0 .728.127 1.356.381 1.885.258.53.622.938 1.092 1.225.474.284 1.034.426 1.682.426zm0-.978c-.432 0-.798-.102-1.098-.305-.301-.203-.531-.495-.692-.876-.157-.38-.235-.84-.235-1.377v-.013c0-.541.078-1.003.235-1.384.161-.38.391-.67.692-.87.3-.202.666-.304 1.098-.304.431 0 .797.102 1.098.305.3.199.529.489.685.87.161.38.242.842.242 1.383v.013c0 .537-.081.996-.242 1.377a1.887 1.887 0 01-.685.876c-.301.203-.667.305-1.098.305zm4.995 3.142h1.105v-3.364h.101c.127.245.297.457.508.635.216.177.462.317.737.419.279.097.575.146.888.146.58 0 1.084-.146 1.511-.438.432-.292.766-.703 1.003-1.232.237-.529.355-1.15.355-1.866v-.013c0-.71-.118-1.33-.355-1.86-.237-.529-.571-.94-1.003-1.231-.427-.296-.931-.444-1.511-.444-.317 0-.611.048-.882.146a2.287 2.287 0 00-.724.419 2.27 2.27 0 00-.527.647h-.101v-1.092h-1.105v9.128zm3.085-3.142c-.414 0-.772-.104-1.072-.311a1.967 1.967 0 01-.692-.882c-.161-.385-.241-.84-.241-1.365v-.013c0-.529.08-.984.241-1.364.161-.381.391-.675.692-.883.3-.207.658-.31 1.072-.31.419 0 .777.103 1.073.31.296.203.523.495.679.876.161.381.242.838.242 1.371v.013c0 .529-.081.986-.242 1.371-.156.38-.383.675-.679.882-.296.203-.654.305-1.073.305zm6.856.978c.309 0 .592-.043.85-.127a2.312 2.312 0 001.219-1.003h.102V56h1.104v-4.685c0-.473-.101-.88-.304-1.218a1.932 1.932 0 00-.883-.787c-.385-.182-.857-.273-1.415-.273-.487 0-.921.076-1.302.228-.38.148-.691.358-.933.629a1.83 1.83 0 00-.444.939l-.006.038h1.104l.006-.019c.089-.267.265-.472.527-.616.263-.148.599-.222 1.01-.222.512 0 .895.112 1.149.337.258.22.387.541.387.964v2.133c0 .326-.085.618-.254.876a1.76 1.76 0 01-.686.616 2.185 2.185 0 01-1.003.222c-.397 0-.728-.095-.99-.285-.262-.195-.393-.466-.393-.813v-.013c0-.338.118-.6.355-.787.241-.186.622-.294 1.143-.324l2.38-.152v-.882l-2.514.152c-.529.03-.979.127-1.352.292-.372.165-.656.394-.85.686-.195.287-.292.634-.292 1.04v.013c0 .415.099.775.298 1.08.203.304.476.539.819.704.347.165.736.248 1.168.248zm11.324 2.164h.927a5.303 5.303 0 01-.641-1.104 10.12 10.12 0 01-.508-1.46 14.028 14.028 0 01-.337-1.663 12.3 12.3 0 01-.12-1.695c0-.55.04-1.111.12-1.682.081-.576.193-1.13.337-1.663.144-.538.313-1.029.508-1.473.199-.444.412-.813.641-1.105h-.927a8.344 8.344 0 00-1.022 1.746 8.923 8.923 0 00-.59 1.962c-.127.69-.191 1.428-.191 2.215 0 .787.064 1.528.191 2.221a9.21 9.21 0 00.596 1.962 8.61 8.61 0 001.016 1.74zM427.967 56h3.002c.652 0 1.208-.102 1.67-.305.461-.207.814-.501 1.06-.882.249-.385.374-.844.374-1.378v-.012c0-.402-.084-.76-.254-1.073a2.034 2.034 0 00-.704-.774 2.512 2.512 0 00-1.086-.375V51.1c.297-.055.563-.178.8-.369.237-.19.425-.425.565-.704.144-.28.216-.578.216-.895v-.013c0-.465-.11-.867-.33-1.206a2.107 2.107 0 00-.933-.793c-.402-.187-.885-.28-1.448-.28h-2.932v1.01h2.691c.567 0 1.007.129 1.321.387.317.254.476.613.476 1.079v.013c0 .482-.176.846-.527 1.091-.347.246-.868.369-1.562.369h-2.399v.983h2.723c.487 0 .893.06 1.219.178.33.119.577.296.742.533.165.237.248.532.248.883v.012c0 .525-.178.925-.533 1.2-.356.275-.878.413-1.568.413h-2.831V56zm-.571 0h1.142v-9.16h-1.142V56zm9.064 2.285a8.208 8.208 0 001.016-1.74 8.976 8.976 0 00.59-1.96c.131-.694.197-1.435.197-2.222 0-.787-.064-1.526-.191-2.215a8.923 8.923 0 00-.59-1.962 8.344 8.344 0 00-1.022-1.746h-.927c.229.292.44.66.635 1.105.199.444.37.935.514 1.473.144.533.256 1.087.337 1.663.08.571.12 1.132.12 1.682 0 .554-.04 1.12-.12 1.695a14.028 14.028 0 01-.337 1.663 9.65 9.65 0 01-.514 1.46 5.13 5.13 0 01-.635 1.104h.927zm4.361-7.833h.819l.996-3.612h-1.263l-.552 3.612zm2.107 0h.819l.997-3.612h-1.264l-.552 3.612z" fill="#E1E1E1"/><rect x="32" y="70" width="459" height="1" rx=".5" fill="#373737"/><path d="M36.634 95.082h1.618v-.888c2.52-.076 4.152-1.505 4.152-3.783v-.013c0-2.304-1.625-3.726-4.152-3.796v-.844h-1.618v.844c-2.52.07-4.152 1.492-4.152 3.796v.013c0 2.278 1.638 3.707 4.152 3.783v.888zm-2.482-4.671v-.013c0-1.46.958-2.387 2.5-2.444v4.894c-1.542-.07-2.5-.996-2.5-2.437zm4.088-2.457c1.542.057 2.5.984 2.5 2.444v.013c0 1.44-.958 2.367-2.5 2.437v-4.894zm7.344 7.16c.882 0 1.631-.444 2.025-1.149h.032V95h1.58v-4.627c0-1.353-1.079-2.241-2.767-2.241-1.708 0-2.736.895-2.838 2.088l-.006.076h1.466l.013-.057c.101-.495.565-.844 1.314-.844.793 0 1.238.413 1.238 1.092v.463l-1.759.108c-1.625.102-2.558.819-2.558 2.012v.013c0 1.2.908 2.031 2.26 2.031zm-.68-2.095v-.006c0-.533.426-.87 1.2-.92l1.537-.095v.507c0 .8-.68 1.403-1.587 1.403-.699 0-1.15-.336-1.15-.889zm10.88-4.748h-5.706v1.226h2.063V95h1.58v-5.503h2.064v-1.225zm2.787 6.843c.883 0 1.632-.444 2.025-1.149h.032V95h1.58v-4.627c0-1.353-1.079-2.241-2.767-2.241-1.708 0-2.736.895-2.838 2.088l-.006.076h1.466l.013-.057c.102-.495.565-.844 1.314-.844.794 0 1.238.413 1.238 1.092v.463l-1.758.108c-1.625.102-2.558.819-2.558 2.012v.013c0 1.2.907 2.031 2.26 2.031zm-.679-2.095v-.006c0-.533.425-.87 1.2-.92l1.536-.095v.507c0 .8-.68 1.403-1.587 1.403-.698 0-1.149-.336-1.149-.889zm7.966-1.079l.165-2.443h2.114V95h1.587v-6.728h-5.078l-.222 3.554c-.076 1.219-.305 1.854-.984 1.854-.171 0-.298-.026-.362-.045v1.352c.102.032.311.077.603.077 1.58 0 2.05-1.213 2.177-3.124zM71.146 95h2.876c1.567 0 2.577-.914 2.577-2.349v-.012c0-1.435-1.01-2.349-2.578-2.349h-1.294v-2.019h-1.581V95zm2.653-3.491c.724 0 1.187.444 1.187 1.13v.012c0 .68-.457 1.13-1.187 1.13h-1.072V91.51h1.072zM82.11 95h1.58v-6.728h-1.58v2.653h-2.832v-2.653h-1.58V95h1.58v-2.85h2.831V95zm2.99 0h2.875c1.567 0 2.577-.914 2.577-2.349v-.012c0-1.435-1.01-2.349-2.577-2.349H86.68v-2.019H85.1V95zm6.213 0h1.581v-6.728h-1.58V95zm-3.56-3.491c.723 0 1.187.444 1.187 1.13v.012c0 .68-.458 1.13-1.188 1.13H86.68V91.51h1.072zm9.502 3.624c1.758 0 2.748-1.04 2.964-2.075l.013-.07h-1.479l-.013.044c-.152.45-.66.87-1.453.87-1.029 0-1.676-.698-1.695-1.88h4.71v-.507c0-2.031-1.194-3.383-3.123-3.383-1.924 0-3.161 1.396-3.161 3.516v.007c0 2.139 1.218 3.478 3.237 3.478zm-.057-5.763c.838 0 1.447.533 1.561 1.6H95.61c.12-1.035.755-1.6 1.587-1.6zm9.801 5.763c1.974 0 3.256-1.314 3.256-3.497v-.013c0-2.17-1.301-3.491-3.256-3.491-1.962 0-3.257 1.333-3.257 3.491v.013c0 2.177 1.276 3.497 3.257 3.497zm.006-1.276c-1.003 0-1.65-.806-1.65-2.221v-.013c0-1.396.653-2.209 1.644-2.209.996 0 1.65.806 1.65 2.209v.013c0 1.409-.641 2.221-1.644 2.221zM111.39 95h8.906v-6.728h-1.581v5.49h-2.082v-5.49h-1.58v5.49h-2.082v-5.49h-1.581V95zm10.321 0h1.549l2.901-4.52h.064V95h1.561v-6.728h-1.549l-2.901 4.487h-.063v-4.487h-1.562V95zm10.569.133c2.012 0 3.257-1.288 3.257-3.39v-.012c0-1.955-1.175-3.2-2.984-3.2-1.085 0-1.879.451-2.304 1.251h-.032l.013-.089c.248-1.758.832-2.526 2.545-2.59l.654-.018c.775-.026 1.435-.16 1.67-.33V85.49c-.381.178-1.041.286-1.765.305l-.686.025c-2.507.09-3.675 1.568-3.675 5.307v.013c0 2.628 1.174 3.992 3.307 3.992zm-.025-1.276c-1.054 0-1.67-.755-1.67-2.088v-.013c0-1.263.616-1.98 1.67-1.98 1.054 0 1.669.717 1.669 1.98v.013c0 1.333-.615 2.088-1.669 2.088zm6.24-1.783l2.31 2.926h1.924l-2.844-3.586 2.71-3.142h-1.822l-2.278 2.716h-.235v-2.716h-1.581V95h1.581v-2.926h.235zm5.09 2.926h1.549l2.901-4.52h.064V95h1.561v-6.728h-1.549l-2.901 4.487h-.063v-4.487h-1.562V95z" fill="#F84545"/><path d="M38.5 110.682a1.39 1.39 0 00-1.391 1.378c0 .767.624 1.391 1.391 1.391a1.39 1.39 0 001.378-1.391c0-.754-.624-1.378-1.378-1.378zM47.374 117v-4.221h.33L51.78 117h1.511l-4.742-4.913v.305l4.374-4.552h-1.435l-3.783 4.025h-.33v-4.025h-1.143V117h1.143zm9.655.121c.651 0 1.212-.142 1.682-.426a2.83 2.83 0 001.085-1.225c.258-.529.388-1.157.388-1.885v-.013c0-.732-.13-1.362-.388-1.891a2.794 2.794 0 00-1.085-1.219c-.47-.284-1.03-.425-1.682-.425-.648 0-1.208.141-1.682.425-.47.283-.834.69-1.092 1.219-.254.529-.381 1.159-.381 1.891v.013c0 .728.127 1.356.38 1.885a2.88 2.88 0 001.093 1.225c.474.284 1.034.426 1.682.426zm0-.978c-.432 0-.798-.101-1.098-.305a1.932 1.932 0 01-.692-.876c-.157-.38-.235-.84-.235-1.377v-.013c0-.541.078-1.003.235-1.384.16-.38.391-.67.692-.869.3-.203.666-.305 1.098-.305.431 0 .797.102 1.098.305.3.199.529.489.685.869.161.381.242.843.242 1.384v.013c0 .537-.08.997-.242 1.377a1.887 1.887 0 01-.685.876c-.3.204-.667.305-1.098.305zm6.531-1.822l.255-3.25h2.38V117h1.104v-6.843h-4.475l-.292 4.075a4.837 4.837 0 01-.14.921 1.641 1.641 0 01-.298.647.632.632 0 01-.514.242 2.25 2.25 0 01-.235-.013 1.576 1.576 0 01-.158-.032v.997c.046.017.112.031.196.044.085.017.186.025.305.025.38 0 .7-.097.959-.292.262-.194.467-.495.615-.901.153-.406.252-.922.298-1.549zM69.47 117h1.105l3.65-5.51-.75.406h.585V117h1.104v-6.843H74.06l-3.65 5.51.749-.406h-.584v-5.104H69.47V117zm13.09 0v-6.843h-1.105v2.888a1.226 1.226 0 01-.388.28c-.16.08-.353.144-.577.19-.224.047-.48.07-.768.07-.466 0-.817-.133-1.054-.4-.233-.267-.35-.624-.35-1.073v-1.955h-1.104v1.955c0 .728.212 1.319.635 1.771.423.453 1.047.679 1.873.679.368 0 .685-.035.952-.107.27-.072.497-.174.679-.305h.102V117h1.104zm4.97.121c.401 0 .763-.051 1.085-.153a2.96 2.96 0 00.844-.419c.237-.177.43-.374.578-.59a2.1 2.1 0 00.317-.679l.013-.051h-1.105l-.025.057c-.06.136-.163.269-.311.4a1.779 1.779 0 01-.565.324 2.334 2.334 0 01-.806.127c-.415 0-.775-.091-1.08-.273a1.838 1.838 0 01-.704-.794c-.165-.347-.248-.764-.248-1.25v-.438c0-.512.085-.944.254-1.295.17-.351.398-.616.686-.794.292-.182.622-.272.99-.272s.694.086.978.26c.283.169.505.427.666.774.161.347.241.789.241 1.327v.438l.546-.806h-4.92v.882h5.485v-.432c0-.681-.12-1.278-.362-1.79a2.768 2.768 0 00-1.028-1.206c-.444-.287-.977-.431-1.6-.431-.617 0-1.157.15-1.618.45a2.992 2.992 0 00-1.073 1.251c-.25.533-.374 1.153-.374 1.86v.006c0 .715.124 1.337.374 1.866.254.525.614.931 1.08 1.219.469.288 1.03.432 1.681.432zm7.56 0c.55 0 1.02-.091 1.409-.273.389-.182.702-.432.939-.749.237-.322.402-.688.495-1.099l.013-.069-1.092.006-.013.038c-.127.381-.336.671-.628.87-.292.199-.669.298-1.13.298-.406 0-.76-.106-1.06-.317-.3-.212-.533-.51-.698-.895-.165-.39-.248-.847-.248-1.371v-.013c0-.516.08-.963.241-1.339.165-.381.398-.675.699-.883.3-.207.656-.311 1.066-.311.49 0 .887.119 1.187.356.3.237.493.524.578.863l.006.019h1.098l-.006-.038a2.534 2.534 0 00-1.428-1.885c-.402-.195-.88-.292-1.435-.292-.639 0-1.193.146-1.663.438a2.88 2.88 0 00-1.092 1.218c-.254.525-.38 1.143-.38 1.854v.013c0 .723.128 1.352.387 1.885.258.533.622.946 1.091 1.238.47.292 1.024.438 1.663.438zm9.235-6.964H98.79v.914h2.215V117h1.105v-5.929h2.215v-.914zm1.593 6.843h2.914c.491 0 .91-.08 1.257-.241a1.87 1.87 0 00.806-.686c.186-.296.279-.641.279-1.034v-.013c0-.267-.059-.506-.177-.717a1.454 1.454 0 00-.489-.534 1.744 1.744 0 00-.756-.273v-.101a1.32 1.32 0 00.8-.521c.212-.283.318-.594.318-.933v-.012c0-.538-.18-.967-.54-1.289-.36-.326-.863-.489-1.511-.489h-2.901V117zm1.105-.914v-2.12h1.555c.491 0 .859.082 1.105.247.245.165.368.43.368.794v.013c0 .342-.106.607-.318.793-.211.182-.526.273-.945.273h-1.765zm0-3.034v-1.981h1.638c.385 0 .666.091.844.273.178.178.266.413.266.705v.013c0 .321-.103.567-.311.736-.207.169-.533.254-.977.254h-1.46zm8.772 4.069c.652 0 1.213-.142 1.683-.426a2.837 2.837 0 001.085-1.225c.258-.529.387-1.157.387-1.885v-.013c0-.732-.129-1.362-.387-1.891a2.798 2.798 0 00-1.085-1.219c-.47-.284-1.031-.425-1.683-.425-.647 0-1.208.141-1.682.425-.469.283-.833.69-1.092 1.219-.253.529-.38 1.159-.38 1.891v.013c0 .728.127 1.356.38 1.885.259.529.623.938 1.092 1.225.474.284 1.035.426 1.682.426zm0-.978c-.431 0-.797-.101-1.098-.305a1.932 1.932 0 01-.692-.876c-.156-.38-.234-.84-.234-1.377v-.013c0-.541.078-1.003.234-1.384.161-.38.392-.67.692-.869.301-.203.667-.305 1.098-.305.432 0 .798.102 1.099.305.3.199.529.489.685.869.161.381.241.843.241 1.384v.013c0 .537-.08.997-.241 1.377a1.887 1.887 0 01-.685.876c-.301.204-.667.305-1.099.305zm10.976.984c.533 0 1-.089 1.402-.267.407-.182.722-.433.946-.755.229-.322.343-.694.343-1.117v-.013c0-.254-.053-.482-.159-.685a1.337 1.337 0 00-.463-.515 2.08 2.08 0 00-.756-.304v-.102c.339-.08.612-.26.819-.539.208-.28.311-.593.311-.94v-.013c0-.363-.095-.683-.285-.958-.186-.279-.459-.497-.819-.654-.356-.156-.789-.235-1.301-.235a3.33 3.33 0 00-1.251.222c-.364.144-.66.352-.889.623a1.883 1.883 0 00-.419.952l-.006.044h1.079l.007-.032c.055-.275.218-.493.488-.653.271-.161.601-.242.991-.242.44 0 .77.098.99.292a.91.91 0 01.336.724v.013c0 .355-.118.622-.355.799-.233.174-.569.261-1.009.261h-1.067v.914h1.067c.524 0 .922.089 1.193.266.275.174.412.447.412.819v.013c0 .338-.141.618-.425.838-.283.22-.677.33-1.18.33-.415 0-.764-.083-1.048-.248-.283-.165-.461-.387-.533-.666l-.013-.051h-1.123l.006.051c.047.368.193.69.438.965.245.271.563.482.952.634.394.153.834.229 1.321.229zm9.02-.127h1.104v-6.843h-1.104v2.831h-3.39v-2.831h-1.105V117h1.105v-3.098h3.39V117zm5.16.121c.309 0 .593-.043.851-.127.258-.089.489-.218.692-.388.207-.169.383-.374.527-.615h.101V117h1.105v-4.685c0-.474-.102-.88-.305-1.218a1.934 1.934 0 00-.882-.787c-.386-.182-.857-.273-1.416-.273-.487 0-.92.076-1.301.228a2.373 2.373 0 00-.933.629 1.835 1.835 0 00-.445.939l-.006.038h1.104l.007-.019c.089-.267.264-.472.527-.616.262-.148.598-.222 1.009-.222.512 0 .895.112 1.149.337.258.22.387.541.387.964v2.133c0 .326-.085.618-.254.876a1.758 1.758 0 01-.685.616 2.19 2.19 0 01-1.003.222c-.398 0-.728-.095-.991-.286-.262-.194-.393-.465-.393-.812v-.013c0-.338.118-.601.355-.787.242-.186.622-.294 1.143-.324l2.38-.152v-.882l-2.513.152c-.529.03-.98.127-1.352.292-.373.165-.656.394-.851.686-.195.287-.292.634-.292 1.041v.012c0 .415.099.775.298 1.079.203.305.476.54.819.705.347.165.737.248 1.168.248zm10.632-.121v-6.843h-1.104v2.888a1.224 1.224 0 01-.387.28c-.161.08-.354.144-.578.19-.224.047-.48.07-.768.07-.465 0-.817-.133-1.054-.4-.232-.267-.349-.624-.349-1.073v-1.955h-1.104v1.955c0 .728.211 1.319.635 1.771.423.453 1.047.679 1.872.679.368 0 .686-.035.952-.107.271-.072.497-.174.679-.305h.102V117h1.104zm4.971.121c.402 0 .764-.051 1.085-.153a2.96 2.96 0 00.844-.419c.237-.177.43-.374.578-.59a2.1 2.1 0 00.317-.679l.013-.051h-1.104l-.026.057a1.174 1.174 0 01-.311.4 1.773 1.773 0 01-.565.324 2.331 2.331 0 01-.806.127c-.415 0-.774-.091-1.079-.273a1.837 1.837 0 01-.705-.794c-.165-.347-.247-.764-.247-1.25v-.438c0-.512.084-.944.254-1.295.169-.351.398-.616.685-.794.292-.182.622-.272.991-.272.368 0 .694.086.977.26.284.169.506.427.667.774.16.347.241.789.241 1.327v.438l.546-.806h-4.92v.882h5.485v-.432c0-.681-.121-1.278-.362-1.79a2.766 2.766 0 00-1.029-1.206c-.444-.287-.977-.431-1.599-.431-.618 0-1.158.15-1.619.45a2.995 2.995 0 00-1.073 1.251c-.249.533-.374 1.153-.374 1.86v.006c0 .715.125 1.337.374 1.866.254.525.614.931 1.08 1.219.469.288 1.03.432 1.682.432zm9.248-.121h1.105v-6.843h-1.105v2.831h-3.389v-2.831h-1.105V117h1.105v-3.098h3.389V117zm3.276 0h1.104l3.65-5.51-.749.406h.584V117h1.104v-6.843h-1.104l-3.65 5.51.749-.406h-.584v-5.104h-1.104V117zm7.871 0h1.104l3.65-5.51-.749.406h.584V117h1.105v-6.843h-1.105l-3.65 5.51.749-.406h-.584v-5.104h-1.104V117zm2.85-7.795c.436 0 .817-.091 1.142-.273.326-.186.58-.436.762-.749.182-.313.273-.666.273-1.06h-.99c0 .347-.104.656-.311.927-.208.271-.5.406-.876.406-.368 0-.658-.135-.87-.406a1.469 1.469 0 01-.317-.927h-.99c0 .394.091.747.273 1.06.181.313.435.563.761.749.326.182.707.273 1.143.273zm10.562 7.916c.309 0 .593-.043.851-.127.258-.089.489-.218.692-.388.207-.169.383-.374.527-.615h.101V117h1.105v-4.685c0-.474-.102-.88-.305-1.218a1.934 1.934 0 00-.882-.787c-.385-.182-.857-.273-1.416-.273-.486 0-.92.076-1.301.228a2.373 2.373 0 00-.933.629 1.835 1.835 0 00-.445.939l-.006.038h1.105l.006-.019c.089-.267.264-.472.527-.616.262-.148.599-.222 1.009-.222.512 0 .895.112 1.149.337.258.22.387.541.387.964v2.133c0 .326-.084.618-.254.876a1.758 1.758 0 01-.685.616 2.19 2.19 0 01-1.003.222c-.398 0-.728-.095-.99-.286-.263-.194-.394-.465-.394-.812v-.013c0-.338.119-.601.356-.787.241-.186.622-.294 1.142-.324l2.38-.152v-.882l-2.513.152c-.529.03-.98.127-1.352.292-.373.165-.656.394-.851.686-.194.287-.292.634-.292 1.041v.012c0 .415.1.775.299 1.079.203.305.476.54.818.705.347.165.737.248 1.168.248zm10.372-6.964h-5.535v.914h2.216V117h1.104v-5.929h2.215v-.914zm1.6 9.128h1.105v-3.364h.101c.127.245.296.457.508.635.216.177.461.317.736.419.279.097.576.146.889.146.58 0 1.083-.146 1.511-.438.431-.292.766-.703 1.003-1.232.237-.529.355-1.151.355-1.866v-.013c0-.711-.118-1.331-.355-1.86-.237-.529-.572-.939-1.003-1.231-.428-.296-.931-.444-1.511-.444-.318 0-.612.048-.882.146a2.281 2.281 0 00-.724.419 2.241 2.241 0 00-.527.647h-.101v-1.092h-1.105v9.128zm3.085-3.142c-.415 0-.772-.104-1.073-.311a1.971 1.971 0 01-.692-.882c-.16-.385-.241-.84-.241-1.365v-.013c0-.529.081-.984.241-1.364a1.98 1.98 0 01.692-.883c.301-.207.658-.311 1.073-.311.419 0 .776.104 1.073.311.296.203.522.495.679.876.161.381.241.838.241 1.371v.013c0 .529-.08.986-.241 1.371-.157.381-.383.675-.679.882-.297.204-.654.305-1.073.305zm4.97.857h1.105l3.65-5.51-.749.406h.584V117h1.104v-6.843h-1.104l-3.65 5.51.749-.406h-.584v-5.104h-1.105V117zm10.721.127c.661 0 1.228-.142 1.702-.425a2.783 2.783 0 001.098-1.213c.258-.529.387-1.155.387-1.879v-.012c0-.69-.125-1.287-.375-1.79a2.722 2.722 0 00-1.047-1.168c-.453-.28-.986-.419-1.6-.419-.342 0-.662.048-.958.146a2.454 2.454 0 00-.781.425 2.43 2.43 0 00-.577.692h-.102l.019-.14c.085-.622.224-1.125.419-1.511.195-.385.463-.67.806-.856.347-.187.785-.29 1.314-.311l.698-.032c.398-.021.76-.068 1.086-.14.326-.076.541-.165.647-.266v-.978a5.06 5.06 0 01-.907.267 6.851 6.851 0 01-.876.101l-.686.032c-.609.03-1.134.152-1.574.368a2.7 2.7 0 00-1.073.965c-.275.423-.478.963-.609 1.619-.132.651-.197 1.432-.197 2.342v.013c0 .914.118 1.68.355 2.297.242.618.599 1.086 1.073 1.403.474.313 1.06.47 1.758.47zm0-.978c-.435 0-.808-.099-1.117-.298a1.921 1.921 0 01-.698-.87c-.161-.38-.241-.837-.241-1.371v-.012c0-.512.08-.946.241-1.302.161-.355.394-.626.698-.812.309-.191.682-.286 1.117-.286.436 0 .807.095 1.111.286.309.186.544.457.705.812.161.356.241.79.241 1.302v.012c0 .534-.08.991-.241 1.371a1.902 1.902 0 01-.705.87c-.304.199-.675.298-1.111.298zm5.358 3.25c.406 0 .747-.059 1.022-.177.279-.115.52-.316.723-.603.208-.288.407-.688.597-1.2l2.672-7.262h-1.161l-2.101 6.322.438-.691h-.521l.438.691-2.107-6.322h-1.181l2.533 6.849-.127.407c-.123.393-.286.67-.489.831-.199.161-.455.241-.768.241-.076 0-.154-.002-.235-.006a1.79 1.79 0 01-.222-.025v.907c.076.013.159.021.248.026.088.008.169.012.241.012zm11.299-9.242h-5.536v.914h2.216V117h1.104v-5.929h2.216v-.914zm3.389 6.964c.309 0 .593-.043.851-.127.258-.089.489-.218.692-.388.207-.169.383-.374.527-.615h.101V117h1.105v-4.685c0-.474-.102-.88-.305-1.218a1.934 1.934 0 00-.882-.787c-.385-.182-.857-.273-1.416-.273-.487 0-.92.076-1.301.228a2.373 2.373 0 00-.933.629 1.835 1.835 0 00-.445.939l-.006.038h1.105l.006-.019c.089-.267.264-.472.527-.616.262-.148.599-.222 1.009-.222.512 0 .895.112 1.149.337.258.22.387.541.387.964v2.133c0 .326-.084.618-.254.876a1.758 1.758 0 01-.685.616 2.19 2.19 0 01-1.003.222c-.398 0-.728-.095-.99-.286-.263-.194-.394-.465-.394-.812v-.013c0-.338.118-.601.355-.787.242-.186.623-.294 1.143-.324l2.38-.152v-.882l-2.513.152c-.529.03-.98.127-1.352.292-.373.165-.656.394-.851.686-.195.287-.292.634-.292 1.041v.012c0 .415.1.775.298 1.079.204.305.477.54.819.705.347.165.737.248 1.168.248zm12.727-.121h1.105v-5.929h3.326V117h1.104v-6.843h-5.535V117zm7.713 2.285h1.104v-3.364h.102c.127.245.296.457.508.635.215.177.461.317.736.419.279.097.575.146.889.146.579 0 1.083-.146 1.51-.438.432-.292.766-.703 1.003-1.232.237-.529.356-1.151.356-1.866v-.013c0-.711-.119-1.331-.356-1.86-.237-.529-.571-.939-1.003-1.231-.427-.296-.931-.444-1.51-.444-.318 0-.612.048-.883.146a2.265 2.265 0 00-.723.419 2.225 2.225 0 00-.527.647h-.102v-1.092h-1.104v9.128zm3.085-3.142c-.415 0-.773-.104-1.073-.311a1.964 1.964 0 01-.692-.882c-.161-.385-.241-.84-.241-1.365v-.013c0-.529.08-.984.241-1.364.161-.381.391-.675.692-.883.3-.207.658-.311 1.073-.311.419 0 .776.104 1.072.311.297.203.523.495.68.876.16.381.241.838.241 1.371v.013c0 .529-.081.986-.241 1.371-.157.381-.383.675-.68.882-.296.204-.653.305-1.072.305zm7.769.978c.402 0 .764-.051 1.086-.153a2.96 2.96 0 00.844-.419c.237-.177.429-.374.578-.59a2.1 2.1 0 00.317-.679l.013-.051h-1.105l-.025.057c-.06.136-.163.269-.311.4a1.784 1.784 0 01-.565.324 2.335 2.335 0 01-.806.127c-.415 0-.775-.091-1.079-.273a1.837 1.837 0 01-.705-.794c-.165-.347-.248-.764-.248-1.25v-.438c0-.512.085-.944.254-1.295.17-.351.398-.616.686-.794.292-.182.622-.272.99-.272s.694.086.978.26c.283.169.505.427.666.774.161.347.241.789.241 1.327v.438l.546-.806h-4.919v.882h5.484v-.432c0-.681-.12-1.278-.362-1.79a2.764 2.764 0 00-1.028-1.206c-.444-.287-.978-.431-1.6-.431-.617 0-1.157.15-1.618.45a2.988 2.988 0 00-1.073 1.251c-.25.533-.375 1.153-.375 1.86v.006c0 .715.125 1.337.375 1.866.254.525.614.931 1.079 1.219.47.288 1.031.432 1.682.432zm4.755-.121h2.913c.491 0 .91-.08 1.257-.241a1.87 1.87 0 00.806-.686c.186-.296.279-.641.279-1.034v-.013c0-.267-.059-.506-.177-.717a1.445 1.445 0 00-.489-.534 1.74 1.74 0 00-.755-.273v-.101a1.32 1.32 0 00.799-.521c.212-.283.318-.594.318-.933v-.012c0-.538-.18-.967-.54-1.289-.359-.326-.863-.489-1.511-.489h-2.9V117zm1.104-.914v-2.12h1.555c.491 0 .859.082 1.105.247.245.165.368.43.368.794v.013c0 .342-.106.607-.317.793-.212.182-.527.273-.946.273h-1.765zm0-3.034v-1.981h1.638c.385 0 .666.091.844.273.178.178.267.413.267.705v.013c0 .321-.104.567-.311.736-.208.169-.534.254-.978.254h-1.46zm6.018 3.948h2.444c.782 0 1.407-.209 1.872-.628.466-.419.698-.982.698-1.689v-.013c0-.706-.232-1.269-.698-1.688-.465-.419-1.09-.628-1.872-.628h-1.34v-2.197h-1.104V117zm2.444-3.732c.448 0 .804.127 1.066.38.267.254.4.595.4 1.022v.013c0 .423-.131.764-.394 1.022-.262.254-.62.381-1.072.381h-1.34v-2.818h1.34zm3.764 3.732h1.104v-6.843h-1.104V117zm3.275 0h8.455v-6.843h-1.104v5.929h-2.571v-5.929h-1.105v5.929h-2.57v-5.929h-1.105V117zm12.511.121c.309 0 .593-.043.851-.127.258-.089.489-.218.692-.388.207-.169.383-.374.527-.615h.101V117h1.105v-4.685c0-.474-.102-.88-.305-1.218a1.934 1.934 0 00-.882-.787c-.385-.182-.857-.273-1.416-.273-.486 0-.92.076-1.301.228a2.373 2.373 0 00-.933.629 1.835 1.835 0 00-.445.939l-.006.038h1.105l.006-.019c.089-.267.264-.472.527-.616.262-.148.599-.222 1.009-.222.512 0 .895.112 1.149.337.258.22.387.541.387.964v2.133c0 .326-.084.618-.254.876a1.758 1.758 0 01-.685.616 2.19 2.19 0 01-1.003.222c-.398 0-.728-.095-.99-.286-.263-.194-.394-.465-.394-.812v-.013c0-.338.119-.601.356-.787.241-.186.622-.294 1.142-.324l2.38-.152v-.882l-2.513.152c-.529.03-.98.127-1.352.292-.373.165-.656.394-.851.686-.195.287-.292.634-.292 1.041v.012c0 .415.1.775.298 1.079.204.305.477.54.819.705.347.165.737.248 1.168.248zm8.214 0c.402 0 .764-.051 1.086-.153.325-.106.607-.245.844-.419.237-.177.429-.374.578-.59a2.1 2.1 0 00.317-.679l.013-.051h-1.105l-.025.057c-.06.136-.163.269-.311.4a1.784 1.784 0 01-.565.324 2.339 2.339 0 01-.806.127c-.415 0-.775-.091-1.08-.273a1.842 1.842 0 01-.704-.794c-.165-.347-.248-.764-.248-1.25v-.438c0-.512.085-.944.254-1.295.169-.351.398-.616.686-.794.292-.182.622-.272.99-.272s.694.086.978.26c.283.169.505.427.666.774.161.347.241.789.241 1.327v.438l.546-.806h-4.919v.882h5.484v-.432c0-.681-.121-1.278-.362-1.79a2.764 2.764 0 00-1.028-1.206c-.444-.287-.978-.431-1.6-.431-.617 0-1.157.15-1.618.45a2.988 2.988 0 00-1.073 1.251c-.25.533-.375 1.153-.375 1.86v.006c0 .715.125 1.337.375 1.866.254.525.614.931 1.079 1.219.47.288 1.03.432 1.682.432zm9.204-6.964h-5.535v.914h2.215V117h1.105v-5.929h2.215v-.914zm5.408 8.652V117h5.352v1.809h1.028v-2.723h-1.092v-5.929h-4.665l-.267 3.815a5.09 5.09 0 01-.241 1.282c-.131.39-.322.667-.572.832h-.571v2.723h1.028zm4.184-2.723h-3.365v-.102c.161-.211.288-.491.381-.838.093-.351.155-.734.184-1.148l.216-2.927h2.584v5.015zm6.449 1.035c.652 0 1.212-.142 1.682-.426a2.83 2.83 0 001.085-1.225c.259-.529.388-1.157.388-1.885v-.013c0-.732-.129-1.362-.388-1.891a2.792 2.792 0 00-1.085-1.219c-.47-.284-1.03-.425-1.682-.425-.648 0-1.208.141-1.682.425-.47.283-.834.69-1.092 1.219-.254.529-.381 1.159-.381 1.891v.013c0 .728.127 1.356.381 1.885a2.87 2.87 0 001.092 1.225c.474.284 1.034.426 1.682.426zm0-.978c-.432 0-.798-.101-1.098-.305-.301-.203-.531-.495-.692-.876-.157-.38-.235-.84-.235-1.377v-.013c0-.541.078-1.003.235-1.384.161-.38.391-.67.692-.869.3-.203.666-.305 1.098-.305.431 0 .797.102 1.098.305.3.199.529.489.685.869.161.381.242.843.242 1.384v.013c0 .537-.081.997-.242 1.377a1.887 1.887 0 01-.685.876c-.301.204-.667.305-1.098.305zm4.989.857h1.105v-5.929h3.326V117h1.104v-6.843h-5.535V117zm8.296 2.399c.407 0 .747-.059 1.022-.177.28-.115.521-.316.724-.603.207-.288.406-.688.597-1.2l2.672-7.262h-1.162l-2.101 6.322.438-.691h-.52l.438.691-2.108-6.322h-1.18l2.533 6.849-.127.407c-.123.393-.286.67-.489.831-.199.161-.455.241-.768.241-.076 0-.155-.002-.235-.006a1.747 1.747 0 01-.222-.025v.907c.076.013.158.021.247.026.089.008.17.012.241.012zm9.147-2.278c.551 0 1.02-.091 1.41-.273.389-.182.702-.432.939-.749.237-.322.402-.688.495-1.099l.013-.069-1.092.006-.013.038c-.127.381-.336.671-.628.87-.292.199-.669.298-1.13.298-.406 0-.76-.106-1.06-.317-.3-.212-.533-.51-.698-.895-.165-.39-.248-.847-.248-1.371v-.013c0-.516.081-.963.241-1.339.165-.381.398-.675.699-.883.3-.207.656-.311 1.066-.311.491 0 .887.119 1.187.356.301.237.493.524.578.863l.006.019h1.098l-.006-.038a2.53 2.53 0 00-1.428-1.885c-.402-.195-.881-.292-1.435-.292-.639 0-1.193.146-1.663.438a2.88 2.88 0 00-1.092 1.218c-.254.525-.381 1.143-.381 1.854v.013c0 .723.129 1.352.388 1.885.258.533.622.946 1.091 1.238.47.292 1.024.438 1.663.438zm9.236-6.964h-5.535v.914h2.215V117h1.105v-5.929h2.215v-.914zm1.594 6.843h1.104l3.65-5.51-.749.406h.584V117h1.104v-6.843h-1.104l-3.65 5.51.749-.406h-.584v-5.104h-1.104V117zm8.975 0v-4.869h.121l2.152 4.679h.85l2.158-4.679h.121V117h1.104v-6.843h-1.282l-2.45 5.307h-.102l-2.437-5.307h-1.339V117h1.104zm11.502.121c.652 0 1.212-.142 1.682-.426.47-.287.832-.696 1.086-1.225.258-.529.387-1.157.387-1.885v-.013c0-.732-.129-1.362-.387-1.891a2.794 2.794 0 00-1.086-1.219c-.47-.284-1.03-.425-1.682-.425-.647 0-1.208.141-1.682.425-.47.283-.834.69-1.092 1.219-.254.529-.381 1.159-.381 1.891v.013c0 .728.127 1.356.381 1.885a2.87 2.87 0 001.092 1.225c.474.284 1.035.426 1.682.426zm0-.978c-.432 0-.798-.101-1.098-.305-.301-.203-.531-.495-.692-.876-.157-.38-.235-.84-.235-1.377v-.013c0-.541.078-1.003.235-1.384.161-.38.391-.67.692-.869.3-.203.666-.305 1.098-.305.432 0 .798.102 1.098.305.301.199.529.489.686.869.161.381.241.843.241 1.384v.013c0 .537-.08.997-.241 1.377-.157.381-.385.673-.686.876-.3.204-.666.305-1.098.305zm7.789.978c.402 0 .763-.051 1.085-.153a2.96 2.96 0 00.844-.419c.237-.177.43-.374.578-.59a2.1 2.1 0 00.317-.679l.013-.051h-1.104l-.026.057a1.174 1.174 0 01-.311.4 1.773 1.773 0 01-.565.324 2.331 2.331 0 01-.806.127c-.415 0-.774-.091-1.079-.273a1.837 1.837 0 01-.705-.794c-.165-.347-.247-.764-.247-1.25v-.438c0-.512.084-.944.254-1.295.169-.351.397-.616.685-.794.292-.182.622-.272.99-.272.369 0 .694.086.978.26.284.169.506.427.667.774.16.347.241.789.241 1.327v.438l.546-.806h-4.92v.882h5.485v-.432c0-.681-.121-1.278-.362-1.79a2.766 2.766 0 00-1.029-1.206c-.444-.287-.977-.431-1.599-.431-.618 0-1.158.15-1.619.45a2.995 2.995 0 00-1.073 1.251c-.249.533-.374 1.153-.374 1.86v.006c0 .715.125 1.337.374 1.866.254.525.614.931 1.08 1.219.469.288 1.03.432 1.682.432zm7.839-3.295h6.557v-1.028h-6.557v1.028zm14.765 3.39c.622 0 1.172-.133 1.65-.4a2.911 2.911 0 001.124-1.105c.275-.474.412-1.017.412-1.631v-.013c0-.592-.127-1.117-.381-1.574a2.808 2.808 0 00-1.047-1.085c-.444-.267-.954-.4-1.53-.4a2.69 2.69 0 00-.787.114 2.262 2.262 0 00-.666.317c-.199.14-.367.314-.502.521h-.101l.311-3.098h4.195v-1.022h-5.097l-.482 5.263h.99c.059-.11.123-.21.19-.299.072-.089.149-.171.229-.247a1.97 1.97 0 01.679-.419c.258-.093.54-.14.844-.14.398 0 .749.089 1.054.267.305.177.544.425.717.742.178.313.267.673.267 1.079v.013c0 .411-.087.775-.26 1.092a1.93 1.93 0 01-.724.749 2.11 2.11 0 01-1.073.267 2.18 2.18 0 01-.965-.21 1.894 1.894 0 01-.691-.565 1.728 1.728 0 01-.318-.8l-.006-.05h-1.098l.006.069c.047.487.203.925.47 1.314.271.385.628.69 1.073.914.444.225.95.337 1.517.337zM38.5 132.682a1.39 1.39 0 00-1.391 1.378c0 .767.624 1.391 1.391 1.391a1.39 1.39 0 001.378-1.391c0-.754-.624-1.378-1.378-1.378zm9.337-2.842h-.818l-.997 3.612h1.263l.552-3.612zm2.108 0h-.819l-.997 3.612h1.264l.552-3.612zM53.34 139v-4.221h.33L57.746 139h1.51l-4.74-4.913v.305l4.373-4.552h-1.435l-3.783 4.025h-.33v-4.025h-1.143V139h1.143zm9.655.121c.651 0 1.212-.142 1.682-.426a2.83 2.83 0 001.085-1.225c.258-.529.387-1.157.387-1.885v-.013c0-.732-.129-1.362-.387-1.891a2.794 2.794 0 00-1.085-1.219c-.47-.284-1.03-.425-1.682-.425-.648 0-1.209.141-1.683.425a2.83 2.83 0 00-1.091 1.219c-.254.529-.381 1.159-.381 1.891v.013c0 .728.127 1.356.38 1.885a2.88 2.88 0 001.093 1.225c.473.284 1.034.426 1.682.426zm0-.978c-.432 0-.798-.101-1.099-.305-.3-.203-.53-.495-.691-.876-.157-.38-.235-.84-.235-1.377v-.013c0-.541.078-1.003.235-1.384.16-.38.391-.67.691-.869.3-.203.667-.305 1.099-.305.431 0 .797.102 1.098.305.3.199.529.489.685.869.161.381.242.843.242 1.384v.013c0 .537-.08.997-.242 1.377a1.887 1.887 0 01-.685.876c-.3.204-.667.305-1.098.305zm6.093.857v-4.869h.121l2.152 4.679h.85l2.159-4.679h.12V139h1.105v-6.843h-1.282l-2.45 5.307h-.102l-2.438-5.307h-1.34V139h1.105zm8.684 0h1.104v-5.929h3.327V139h1.104v-6.843h-5.535V139zm9.312-2.679l.254-3.25h2.38V139h1.105v-6.843h-4.475l-.292 4.075a4.837 4.837 0 01-.14.921 1.643 1.643 0 01-.298.647.632.632 0 01-.514.242c-.08 0-.16-.005-.235-.013a1.589 1.589 0 01-.16-.032v.997c.047.017.113.031.198.044.084.017.186.025.304.025.381 0 .7-.097.959-.292.262-.194.467-.495.616-.901.152-.406.251-.922.298-1.549zm8.709 2.8c.402 0 .764-.051 1.085-.153.326-.106.608-.245.845-.419.237-.177.43-.374.577-.59.153-.22.258-.446.318-.679l.012-.051h-1.104l-.026.057a1.183 1.183 0 01-.31.4 1.78 1.78 0 01-.566.324 2.334 2.334 0 01-.806.127c-.414 0-.774-.091-1.079-.273a1.84 1.84 0 01-.704-.794c-.165-.347-.248-.764-.248-1.25v-.438c0-.512.085-.944.254-1.295.17-.351.398-.616.686-.794.291-.182.622-.272.99-.272s.694.086.977.26c.284.169.506.427.667.774.16.347.241.789.241 1.327v.438l.546-.806h-4.92v.882h5.485v-.432c0-.681-.12-1.278-.362-1.79a2.767 2.767 0 00-1.028-1.206c-.445-.287-.978-.431-1.6-.431-.618 0-1.157.15-1.618.45a2.992 2.992 0 00-1.073 1.251c-.25.533-.375 1.153-.375 1.86v.006c0 .715.125 1.337.375 1.866.254.525.613.931 1.079 1.219.47.288 1.03.432 1.682.432zm6.208-3.238L104.68 139h1.415l-3.288-3.72v.197l3.168-3.32h-1.327l-2.647 2.863h-.349v-2.863h-1.105V139h1.105v-3.117h.349zm10.258-3.726h-5.535v.914h2.215V139h1.104v-5.929h2.216v-.914zm3.389 6.964c.309 0 .593-.043.851-.127.258-.089.489-.218.692-.388.207-.169.383-.374.527-.615h.101V139h1.105v-4.685c0-.474-.102-.88-.305-1.218a1.934 1.934 0 00-.882-.787c-.385-.182-.857-.273-1.416-.273-.486 0-.92.076-1.301.228a2.373 2.373 0 00-.933.629 1.826 1.826 0 00-.444.939l-.007.038h1.105l.006-.019c.089-.267.265-.472.527-.616.262-.148.599-.222 1.009-.222.512 0 .895.112 1.149.337.258.22.387.541.387.964v2.133c0 .326-.084.618-.254.876a1.758 1.758 0 01-.685.616 2.187 2.187 0 01-1.003.222c-.398 0-.728-.095-.99-.286-.263-.194-.394-.465-.394-.812v-.013c0-.338.119-.601.356-.787.241-.186.622-.294 1.142-.324l2.381-.152v-.882l-2.514.152c-.529.03-.98.127-1.352.292-.373.165-.656.394-.851.686-.194.287-.292.634-.292 1.041v.012c0 .415.1.775.299 1.079.203.305.476.54.818.705.347.165.737.248 1.168.248zm10.95-6.964h-1.104v5.929h-3.327v-5.929h-1.104V139h5.535v-6.843zm.038 8.652h1.054v-2.723h-2.184V139h1.13v1.809zm2.488-1.809h1.105l3.65-5.51-.749.406h.584V139h1.104v-6.843h-1.104l-3.65 5.51.749-.406h-.584v-5.104h-1.105V139zm11.502 0h1.105v-6.843h-2.38c-.521 0-.974.091-1.359.273a2.07 2.07 0 00-.895.781c-.211.334-.317.736-.317 1.206v.013c0 .465.137.867.412 1.206.275.338.654.575 1.137.711l-1.91 2.653h1.301l1.746-2.45h1.161V139zm-1.275-3.364c-.449 0-.802-.115-1.06-.343a1.153 1.153 0 01-.381-.889v-.012c0-.415.127-.739.381-.972.258-.232.611-.349 1.06-.349h1.275v2.565h-1.275zm4.487-2.184h.819l.997-3.612h-1.263l-.553 3.612zm2.108 0h.819l.996-3.612h-1.263l-.552 3.612zm7.242 7.878h.819l.997-3.612h-1.263l-.553 3.612zm8.011-.521V139h5.351v1.809h1.029v-2.723h-1.092v-5.929h-4.666l-.266 3.815c-.03.461-.11.889-.242 1.282-.131.39-.321.667-.571.832h-.571v2.723h1.028zm4.183-2.723h-3.364v-.102c.161-.211.288-.491.381-.838a6.25 6.25 0 00.184-1.148l.216-2.927h2.583v5.015zm5.237-1.765l.254-3.25h2.38V139h1.105v-6.843h-4.475l-.292 4.075a4.82 4.82 0 01-.14.921 1.648 1.648 0 01-.298.647.632.632 0 01-.514.242c-.081 0-.159-.005-.235-.013a1.626 1.626 0 01-.159-.032v.997c.047.017.112.031.197.044.085.017.186.025.305.025.38 0 .7-.097.958-.292.262-.194.468-.495.616-.901.152-.406.252-.922.298-1.549zm5.91 2.679h1.104l3.65-5.51-.749.406h.584V139h1.105v-6.843h-1.105l-3.65 5.51.749-.406h-.584v-5.104h-1.104V139zm12.365 0H190v-6.843h-1.105v2.831h-3.39v-2.831h-1.104V139h1.104v-3.098h3.39V139zm5.161.121c.309 0 .592-.043.85-.127a2.308 2.308 0 001.219-1.003h.102V139h1.104v-4.685c0-.474-.102-.88-.305-1.218a1.934 1.934 0 00-.882-.787c-.385-.182-.857-.273-1.415-.273-.487 0-.921.076-1.302.228a2.373 2.373 0 00-.933.629 1.826 1.826 0 00-.444.939l-.007.038h1.105l.006-.019c.089-.267.265-.472.527-.616.263-.148.599-.222 1.009-.222.512 0 .895.112 1.149.337.258.22.388.541.388.964v2.133c0 .326-.085.618-.254.876a1.76 1.76 0 01-.686.616 2.187 2.187 0 01-1.003.222c-.398 0-.728-.095-.99-.286-.262-.194-.394-.465-.394-.812v-.013c0-.338.119-.601.356-.787.241-.186.622-.294 1.142-.324l2.381-.152v-.882l-2.514.152c-.529.03-.98.127-1.352.292-.372.165-.656.394-.851.686-.194.287-.291.634-.291 1.041v.012c0 .415.099.775.298 1.079.203.305.476.54.819.705.347.165.736.248 1.168.248zm11.4.006c.533 0 1.001-.089 1.403-.267.406-.182.721-.433.946-.755.228-.322.342-.694.342-1.117v-.013c0-.254-.052-.482-.158-.685a1.34 1.34 0 00-.464-.515 2.082 2.082 0 00-.755-.304v-.102c.339-.08.612-.26.819-.539.207-.28.311-.593.311-.94v-.013c0-.363-.095-.683-.286-.958-.186-.279-.459-.497-.819-.654-.355-.156-.789-.235-1.301-.235-.465 0-.882.074-1.25.222a2.19 2.19 0 00-.889.623 1.874 1.874 0 00-.419.952l-.006.044h1.079l.006-.032c.055-.275.218-.493.489-.653.271-.161.601-.242.99-.242.44 0 .77.098.99.292a.908.908 0 01.337.724v.013c0 .355-.119.622-.356.799-.232.174-.569.261-1.009.261h-1.066v.914h1.066c.525 0 .923.089 1.193.266.275.174.413.447.413.819v.013c0 .338-.142.618-.425.838-.284.22-.677.33-1.181.33-.415 0-.764-.083-1.047-.248-.284-.165-.462-.387-.534-.666l-.012-.051h-1.124l.007.051c.046.368.192.69.438.965.245.271.562.482.952.634.393.153.833.229 1.32.229zm9.02-.127h1.105v-6.843h-1.105v2.831h-3.39v-2.831h-1.104V139h1.104v-3.098h3.39V139zm5.161.121c.309 0 .592-.043.85-.127a2.308 2.308 0 001.219-1.003h.102V139h1.104v-4.685c0-.474-.101-.88-.305-1.218a1.929 1.929 0 00-.882-.787c-.385-.182-.857-.273-1.415-.273-.487 0-.921.076-1.302.228a2.373 2.373 0 00-.933.629 1.826 1.826 0 00-.444.939l-.006.038h1.104l.006-.019c.089-.267.265-.472.527-.616.263-.148.599-.222 1.009-.222.513 0 .896.112 1.149.337.259.22.388.541.388.964v2.133c0 .326-.085.618-.254.876a1.76 1.76 0 01-.686.616 2.187 2.187 0 01-1.003.222c-.398 0-.728-.095-.99-.286-.262-.194-.394-.465-.394-.812v-.013c0-.338.119-.601.356-.787.241-.186.622-.294 1.142-.324l2.381-.152v-.882l-2.514.152c-.529.03-.979.127-1.352.292-.372.165-.656.394-.85.686-.195.287-.292.634-.292 1.041v.012c0 .415.099.775.298 1.079.203.305.476.54.819.705.347.165.736.248 1.168.248zm10.632-.121v-6.843h-1.104v2.888a1.24 1.24 0 01-.388.28c-.16.08-.353.144-.577.19-.225.047-.481.07-.768.07-.466 0-.817-.133-1.054-.4-.233-.267-.349-.624-.349-1.073v-1.955h-1.105v1.955c0 .728.212 1.319.635 1.771.423.453 1.047.679 1.873.679.368 0 .685-.035.952-.107.271-.072.497-.174.679-.305h.102V139h1.104zm4.97.121c.402 0 .764-.051 1.086-.153a2.96 2.96 0 00.844-.419c.237-.177.429-.374.578-.59a2.1 2.1 0 00.317-.679l.013-.051h-1.105l-.025.057a1.174 1.174 0 01-.311.4 1.784 1.784 0 01-.565.324 2.335 2.335 0 01-.806.127c-.415 0-.775-.091-1.079-.273a1.837 1.837 0 01-.705-.794c-.165-.347-.248-.764-.248-1.25v-.438c0-.512.085-.944.254-1.295.17-.351.398-.616.686-.794.292-.182.622-.272.99-.272s.694.086.978.26c.283.169.505.427.666.774.161.347.241.789.241 1.327v.438l.546-.806h-4.919v.882h5.484v-.432c0-.681-.12-1.278-.362-1.79a2.764 2.764 0 00-1.028-1.206c-.444-.287-.977-.431-1.6-.431-.617 0-1.157.15-1.618.45a2.995 2.995 0 00-1.073 1.251c-.25.533-.374 1.153-.374 1.86v.006c0 .715.124 1.337.374 1.866.254.525.614.931 1.079 1.219.47.288 1.031.432 1.682.432zm9.249-.121h1.104v-6.843h-1.104v2.831h-3.39v-2.831h-1.104V139h1.104v-3.098h3.39V139zm3.275 0h1.105l3.65-5.51-.749.406h.584V139h1.104v-6.843h-1.104l-3.65 5.51.749-.406h-.584v-5.104h-1.105V139zm11.502 0h1.105v-6.843h-2.381c-.52 0-.973.091-1.358.273a2.064 2.064 0 00-.895.781c-.212.334-.318.736-.318 1.206v.013c0 .465.138.867.413 1.206.275.338.654.575 1.136.711l-1.91 2.653h1.301l1.746-2.45h1.161V139zm-1.276-3.364c-.448 0-.802-.115-1.06-.343a1.153 1.153 0 01-.381-.889v-.012c0-.415.127-.739.381-.972.258-.232.612-.349 1.06-.349h1.276v2.565h-1.276zm10.093 3.485c.309 0 .592-.043.851-.127a2.18 2.18 0 00.692-.388c.207-.169.382-.374.526-.615h.102V139h1.104v-4.685c0-.474-.101-.88-.304-1.218a1.931 1.931 0 00-.883-.787c-.385-.182-.857-.273-1.415-.273-.487 0-.921.076-1.301.228a2.373 2.373 0 00-.933.629 1.827 1.827 0 00-.445.939l-.006.038h1.104l.007-.019c.089-.267.264-.472.527-.616.262-.148.598-.222 1.009-.222.512 0 .895.112 1.149.337.258.22.387.541.387.964v2.133c0 .326-.085.618-.254.876a1.76 1.76 0 01-.686.616 2.186 2.186 0 01-1.002.222c-.398 0-.728-.095-.991-.286-.262-.194-.393-.465-.393-.812v-.013c0-.338.118-.601.355-.787.241-.186.622-.294 1.143-.324l2.38-.152v-.882l-2.513.152c-.529.03-.98.127-1.353.292-.372.165-.655.394-.85.686-.195.287-.292.634-.292 1.041v.012c0 .415.099.775.298 1.079.203.305.476.54.819.705.347.165.736.248 1.168.248zm10.372-6.964h-5.535v.914h2.215V139h1.105v-5.929h2.215v-.914zm1.6 9.128h1.104v-3.364h.102c.127.245.296.457.508.635.215.177.461.317.736.419.279.097.575.146.889.146.579 0 1.083-.146 1.51-.438.432-.292.766-.703 1.003-1.232.237-.529.356-1.151.356-1.866v-.013c0-.711-.119-1.331-.356-1.86-.237-.529-.571-.939-1.003-1.231-.427-.296-.931-.444-1.51-.444-.318 0-.612.048-.883.146a2.265 2.265 0 00-.723.419 2.225 2.225 0 00-.527.647h-.102v-1.092h-1.104v9.128zm3.085-3.142c-.415 0-.773-.104-1.073-.311a1.964 1.964 0 01-.692-.882c-.161-.385-.241-.84-.241-1.365v-.013c0-.529.08-.984.241-1.364.161-.381.391-.675.692-.883.3-.207.658-.311 1.073-.311.419 0 .776.104 1.072.311.297.203.523.495.68.876.16.381.241.838.241 1.371v.013c0 .529-.081.986-.241 1.371-.157.381-.383.675-.68.882-.296.204-.653.305-1.072.305zm4.97.857h1.104l3.65-5.51-.749.406h.584V139h1.105v-6.843h-1.105l-3.65 5.51.749-.406h-.584v-5.104h-1.104V139zm10.721.127c.66 0 1.227-.142 1.701-.425a2.783 2.783 0 001.098-1.213c.259-.529.388-1.155.388-1.879v-.012c0-.69-.125-1.287-.375-1.79a2.722 2.722 0 00-1.047-1.168c-.453-.28-.986-.419-1.6-.419-.343 0-.662.048-.958.146a2.443 2.443 0 00-.781.425 2.433 2.433 0 00-.578.692h-.101l.019-.14c.084-.622.224-1.125.419-1.511.194-.385.463-.67.806-.856.347-.187.785-.29 1.314-.311l.698-.032c.398-.021.76-.068 1.085-.14.326-.076.542-.165.648-.266v-.978a5.045 5.045 0 01-.908.267 6.851 6.851 0 01-.876.101l-.685.032c-.61.03-1.134.152-1.575.368a2.704 2.704 0 00-1.072.965c-.275.423-.478.963-.61 1.619-.131.651-.196 1.432-.196 2.342v.013c0 .914.118 1.68.355 2.297.241.618.599 1.086 1.073 1.403.474.313 1.06.47 1.758.47zm0-.978c-.436 0-.808-.099-1.117-.298a1.908 1.908 0 01-.698-.87c-.161-.38-.242-.837-.242-1.371v-.012c0-.512.081-.946.242-1.302.16-.355.393-.626.698-.812.309-.191.681-.286 1.117-.286.436 0 .806.095 1.111.286.309.186.544.457.705.812.16.356.241.79.241 1.302v.012c0 .534-.081.991-.241 1.371a1.902 1.902 0 01-.705.87c-.305.199-.675.298-1.111.298zm5.358 3.25c.406 0 .746-.059 1.021-.177.28-.115.521-.316.724-.603.207-.288.406-.688.597-1.2l2.672-7.262h-1.161l-2.102 6.322.438-.691h-.52l.438.691-2.107-6.322h-1.181l2.533 6.849-.127.407c-.123.393-.286.67-.489.831-.199.161-.455.241-.768.241-.076 0-.155-.002-.235-.006a1.747 1.747 0 01-.222-.025v.907c.076.013.158.021.247.026.089.008.17.012.242.012zm11.298-9.242h-5.535v.914h2.216V139h1.104v-5.929h2.215v-.914zm3.39 6.964c.309 0 .592-.043.851-.127a2.308 2.308 0 001.218-1.003h.102V139h1.104v-4.685c0-.474-.101-.88-.304-1.218a1.931 1.931 0 00-.883-.787c-.385-.182-.857-.273-1.415-.273-.487 0-.921.076-1.301.228a2.384 2.384 0 00-.934.629 1.826 1.826 0 00-.444.939l-.006.038h1.104l.007-.019a1.07 1.07 0 01.526-.616c.263-.148.599-.222 1.01-.222.512 0 .895.112 1.149.337.258.22.387.541.387.964v2.133c0 .326-.085.618-.254.876a1.76 1.76 0 01-.686.616 2.187 2.187 0 01-1.003.222c-.397 0-.727-.095-.99-.286-.262-.194-.393-.465-.393-.812v-.013c0-.338.118-.601.355-.787.241-.186.622-.294 1.143-.324l2.38-.152v-.882l-2.514.152c-.529.03-.979.127-1.352.292-.372.165-.656.394-.85.686-.195.287-.292.634-.292 1.041v.012c0 .415.099.775.298 1.079.203.305.476.54.819.705.347.165.736.248 1.168.248zm9.071-.121h1.104v-5.929h3.326V139h1.105v-6.843h-5.535V139zm7.712 2.285h1.105v-3.364h.101c.127.245.296.457.508.635.216.177.461.317.736.419.28.097.576.146.889.146.58 0 1.083-.146 1.511-.438.431-.292.766-.703 1.003-1.232.237-.529.355-1.151.355-1.866v-.013c0-.711-.118-1.331-.355-1.86-.237-.529-.572-.939-1.003-1.231-.428-.296-.931-.444-1.511-.444-.317 0-.611.048-.882.146a2.281 2.281 0 00-.724.419 2.258 2.258 0 00-.527.647h-.101v-1.092h-1.105v9.128zm3.085-3.142c-.415 0-.772-.104-1.073-.311a1.971 1.971 0 01-.692-.882c-.16-.385-.241-.84-.241-1.365v-.013c0-.529.081-.984.241-1.364a1.98 1.98 0 01.692-.883c.301-.207.658-.311 1.073-.311.419 0 .777.104 1.073.311.296.203.523.495.679.876.161.381.241.838.241 1.371v.013c0 .529-.08.986-.241 1.371a1.94 1.94 0 01-.679.882c-.296.204-.654.305-1.073.305zm7.77.978c.402 0 .764-.051 1.085-.153a2.96 2.96 0 00.844-.419c.237-.177.43-.374.578-.59a2.1 2.1 0 00.317-.679l.013-.051h-1.104l-.026.057a1.174 1.174 0 01-.311.4 1.773 1.773 0 01-.565.324 2.331 2.331 0 01-.806.127c-.415 0-.774-.091-1.079-.273a1.837 1.837 0 01-.705-.794c-.165-.347-.247-.764-.247-1.25v-.438c0-.512.084-.944.254-1.295.169-.351.398-.616.685-.794.292-.182.622-.272.991-.272.368 0 .694.086.977.26.284.169.506.427.667.774.16.347.241.789.241 1.327v.438l.546-.806h-4.92v.882h5.485v-.432c0-.681-.121-1.278-.362-1.79a2.766 2.766 0 00-1.029-1.206c-.444-.287-.977-.431-1.599-.431-.618 0-1.158.15-1.619.45a2.995 2.995 0 00-1.073 1.251c-.249.533-.374 1.153-.374 1.86v.006c0 .715.125 1.337.374 1.866.254.525.614.931 1.08 1.219.469.288 1.03.432 1.682.432zm4.754-.121h2.914c.491 0 .909-.08 1.256-.241.352-.165.62-.394.807-.686.186-.296.279-.641.279-1.034v-.013c0-.267-.059-.506-.178-.717a1.437 1.437 0 00-.489-.534 1.735 1.735 0 00-.755-.273v-.101c.322-.068.588-.241.8-.521.211-.283.317-.594.317-.933v-.012c0-.538-.18-.967-.539-1.289-.36-.326-.864-.489-1.511-.489h-2.901V139zm1.105-.914v-2.12h1.555c.491 0 .859.082 1.104.247.246.165.368.43.368.794v.013c0 .342-.105.607-.317.793-.212.182-.527.273-.946.273h-1.764zm0-3.034v-1.981h1.637c.385 0 .667.091.844.273.178.178.267.413.267.705v.013c0 .321-.104.567-.311.736-.207.169-.533.254-.977.254h-1.46zM358.39 139h2.444c.783 0 1.407-.209 1.873-.628.465-.419.698-.982.698-1.689v-.013c0-.706-.233-1.269-.698-1.688-.466-.419-1.09-.628-1.873-.628h-1.339v-2.197h-1.105V139zm2.444-3.732c.449 0 .804.127 1.066.38.267.254.4.595.4 1.022v.013c0 .423-.131.764-.393 1.022-.263.254-.62.381-1.073.381h-1.339v-2.818h1.339zm3.764 3.732h1.105v-6.843h-1.105V139zm3.276 0h8.455v-6.843h-1.105v5.929h-2.571v-5.929h-1.104v5.929h-2.571v-5.929h-1.104V139zm12.511.121c.309 0 .592-.043.85-.127a2.308 2.308 0 001.219-1.003h.102V139h1.104v-4.685c0-.474-.101-.88-.305-1.218a1.929 1.929 0 00-.882-.787c-.385-.182-.857-.273-1.415-.273-.487 0-.921.076-1.302.228a2.373 2.373 0 00-.933.629 1.826 1.826 0 00-.444.939l-.006.038h1.104l.006-.019c.089-.267.265-.472.527-.616.263-.148.599-.222 1.01-.222.512 0 .895.112 1.148.337.259.22.388.541.388.964v2.133c0 .326-.085.618-.254.876a1.76 1.76 0 01-.686.616 2.187 2.187 0 01-1.003.222c-.398 0-.728-.095-.99-.286-.262-.194-.394-.465-.394-.812v-.013c0-.338.119-.601.356-.787.241-.186.622-.294 1.143-.324l2.38-.152v-.882l-2.514.152c-.529.03-.979.127-1.352.292-.372.165-.656.394-.85.686-.195.287-.292.634-.292 1.041v.012c0 .415.099.775.298 1.079.203.305.476.54.819.705.347.165.736.248 1.168.248zm8.214 0c.402 0 .763-.051 1.085-.153a2.96 2.96 0 00.844-.419c.237-.177.43-.374.578-.59a2.1 2.1 0 00.317-.679l.013-.051h-1.104l-.026.057a1.174 1.174 0 01-.311.4 1.773 1.773 0 01-.565.324 2.331 2.331 0 01-.806.127c-.415 0-.774-.091-1.079-.273a1.837 1.837 0 01-.705-.794c-.165-.347-.247-.764-.247-1.25v-.438c0-.512.084-.944.254-1.295.169-.351.397-.616.685-.794.292-.182.622-.272.99-.272.369 0 .694.086.978.26.284.169.506.427.667.774.16.347.241.789.241 1.327v.438l.546-.806h-4.92v.882h5.485v-.432c0-.681-.121-1.278-.362-1.79a2.766 2.766 0 00-1.029-1.206c-.444-.287-.977-.431-1.599-.431-.618 0-1.158.15-1.619.45a2.995 2.995 0 00-1.073 1.251c-.249.533-.374 1.153-.374 1.86v.006c0 .715.125 1.337.374 1.866.254.525.614.931 1.08 1.219.469.288 1.03.432 1.682.432zm9.204-6.964h-5.535v.914h2.215V139h1.104v-5.929h2.216v-.914zm7.426 6.843h1.143v-9.16h-1.136l-2.438 1.752v1.206l2.33-1.688h.101V139zm6.856.216c.677 0 1.257-.195 1.739-.584.483-.389.853-.942 1.111-1.657.262-.719.394-1.57.394-2.552v-.012c0-.982-.132-1.831-.394-2.546-.258-.715-.628-1.267-1.111-1.657-.482-.389-1.062-.583-1.739-.583s-1.257.194-1.739.583c-.478.39-.847.942-1.105 1.657-.258.715-.387 1.564-.387 2.546v.012c0 .982.129 1.833.387 2.552.258.715.627 1.268 1.105 1.657.482.389 1.062.584 1.739.584zm0-.997c-.436 0-.81-.154-1.124-.463-.308-.309-.545-.747-.711-1.314-.165-.567-.247-1.24-.247-2.019v-.012c0-.779.082-1.45.247-2.013.166-.567.403-1.002.711-1.307a1.546 1.546 0 011.124-.464c.44 0 .815.155 1.123.464.314.305.553.74.718 1.307.169.563.254 1.234.254 2.013v.012c0 .779-.085 1.452-.254 2.019-.165.567-.404 1.005-.718 1.314a1.527 1.527 0 01-1.123.463zm8.188.997c.678 0 1.257-.195 1.74-.584.482-.389.852-.942 1.111-1.657.262-.719.393-1.57.393-2.552v-.012c0-.982-.131-1.831-.393-2.546-.259-.715-.629-1.267-1.111-1.657-.483-.389-1.062-.583-1.74-.583-.677 0-1.256.194-1.739.583-.478.39-.846.942-1.104 1.657-.258.715-.388 1.564-.388 2.546v.012c0 .982.13 1.833.388 2.552.258.715.626 1.268 1.104 1.657.483.389 1.062.584 1.739.584zm0-.997c-.435 0-.81-.154-1.123-.463-.309-.309-.546-.747-.711-1.314-.165-.567-.248-1.24-.248-2.019v-.012c0-.779.083-1.45.248-2.013.165-.567.402-1.002.711-1.307a1.544 1.544 0 011.123-.464c.441 0 .815.155 1.124.464.313.305.552.74.717 1.307.17.563.254 1.234.254 2.013v.012c0 .779-.084 1.452-.254 2.019-.165.567-.404 1.005-.717 1.314a1.53 1.53 0 01-1.124.463zm11.648.902c.551 0 1.02-.091 1.41-.273.389-.182.702-.432.939-.749.237-.322.402-.688.495-1.099l.013-.069-1.092.006-.013.038c-.127.381-.336.671-.628.87-.292.199-.669.298-1.13.298-.406 0-.76-.106-1.06-.317-.3-.212-.533-.51-.698-.895-.165-.39-.248-.847-.248-1.371v-.013c0-.516.081-.963.241-1.339.165-.381.398-.675.699-.883.3-.207.656-.311 1.066-.311.491 0 .887.119 1.187.356.301.237.493.524.578.863l.006.019h1.098l-.006-.038a2.53 2.53 0 00-1.428-1.885c-.402-.195-.881-.292-1.435-.292-.639 0-1.193.146-1.663.438a2.88 2.88 0 00-1.092 1.218c-.254.525-.381 1.143-.381 1.854v.013c0 .723.129 1.352.388 1.885.258.533.622.946 1.091 1.238.47.292 1.024.438 1.663.438zm4.596-.121h1.105l3.649-5.51-.749.406h.584V139h1.105v-6.843h-1.105l-3.649 5.51.749-.406h-.584v-5.104h-1.105V139zm8.976 0v-4.869h.12l2.152 4.679h.851l2.158-4.679h.121V139h1.104v-6.843h-1.282l-2.45 5.307h-.102l-2.437-5.307h-1.34V139h1.105zm8.683 0h2.914c.491 0 .91-.08 1.257-.241a1.87 1.87 0 00.806-.686c.186-.296.279-.641.279-1.034v-.013c0-.267-.059-.506-.178-.717a1.443 1.443 0 00-.488-.534 1.744 1.744 0 00-.756-.273v-.101c.322-.068.588-.241.8-.521a1.52 1.52 0 00.317-.933v-.012c0-.538-.179-.967-.539-1.289-.36-.326-.863-.489-1.511-.489h-2.901V139zm1.105-.914v-2.12h1.555c.491 0 .859.082 1.104.247.246.165.369.43.369.794v.013c0 .342-.106.607-.318.793-.211.182-.527.273-.946.273h-1.764zm0-3.034v-1.981h1.637c.386 0 .667.091.845.273.177.178.266.413.266.705v.013c0 .321-.103.567-.311.736-.207.169-.533.254-.977.254h-1.46zm8.772 4.069c.652 0 1.213-.142 1.682-.426.47-.287.832-.696 1.086-1.225.258-.529.387-1.157.387-1.885v-.013c0-.732-.129-1.362-.387-1.891a2.794 2.794 0 00-1.086-1.219c-.469-.284-1.03-.425-1.682-.425-.647 0-1.208.141-1.682.425-.47.283-.834.69-1.092 1.219-.254.529-.381 1.159-.381 1.891v.013c0 .728.127 1.356.381 1.885a2.87 2.87 0 001.092 1.225c.474.284 1.035.426 1.682.426zm0-.978c-.431 0-.797-.101-1.098-.305a1.932 1.932 0 01-.692-.876c-.156-.38-.235-.84-.235-1.377v-.013c0-.541.079-1.003.235-1.384.161-.38.392-.67.692-.869.301-.203.667-.305 1.098-.305.432 0 .798.102 1.098.305.301.199.529.489.686.869.161.381.241.843.241 1.384v.013c0 .537-.08.997-.241 1.377-.157.381-.385.673-.686.876-.3.204-.666.305-1.098.305zm6.532-1.822l.254-3.25h2.38V139h1.105v-6.843h-4.475l-.292 4.075a4.9 4.9 0 01-.14.921 1.648 1.648 0 01-.298.647.634.634 0 01-.515.242c-.08 0-.158-.005-.234-.013a1.563 1.563 0 01-.159-.032v.997c.046.017.112.031.197.044.084.017.186.025.304.025.381 0 .701-.097.959-.292.262-.194.468-.495.616-.901.152-.406.251-.922.298-1.549zm8.728 2.8c.652 0 1.212-.142 1.682-.426.47-.287.832-.696 1.086-1.225.258-.529.387-1.157.387-1.885v-.013c0-.732-.129-1.362-.387-1.891a2.794 2.794 0 00-1.086-1.219c-.47-.284-1.03-.425-1.682-.425-.647 0-1.208.141-1.682.425-.47.283-.834.69-1.092 1.219-.254.529-.381 1.159-.381 1.891v.013c0 .728.127 1.356.381 1.885a2.87 2.87 0 001.092 1.225c.474.284 1.035.426 1.682.426zm0-.978c-.432 0-.798-.101-1.098-.305-.301-.203-.531-.495-.692-.876-.157-.38-.235-.84-.235-1.377v-.013c0-.541.078-1.003.235-1.384.161-.38.391-.67.692-.869.3-.203.666-.305 1.098-.305.432 0 .798.102 1.098.305.301.199.529.489.686.869.16.381.241.843.241 1.384v.013c0 .537-.081.997-.241 1.377-.157.381-.385.673-.686.876-.3.204-.666.305-1.098.305zm4.989.857h2.914c.491 0 .91-.08 1.257-.241a1.87 1.87 0 00.806-.686c.186-.296.279-.641.279-1.034v-.013c0-.267-.059-.506-.178-.717a1.443 1.443 0 00-.488-.534 1.744 1.744 0 00-.756-.273v-.101c.322-.068.588-.241.8-.521a1.52 1.52 0 00.317-.933v-.012c0-.538-.179-.967-.539-1.289-.36-.326-.863-.489-1.511-.489h-2.901V139zm1.105-.914v-2.12h1.555c.491 0 .859.082 1.104.247.246.165.369.43.369.794v.013c0 .342-.106.607-.318.793-.211.182-.527.273-.946.273h-1.764zm0-3.034v-1.981h1.637c.386 0 .667.091.845.273.177.178.266.413.266.705v.013c0 .321-.103.567-.311.736-.207.169-.533.254-.977.254h-1.46zM38.5 154.682a1.39 1.39 0 00-1.391 1.378c0 .767.624 1.391 1.391 1.391a1.39 1.39 0 001.378-1.391c0-.754-.624-1.378-1.378-1.378zM46.231 161h1.143v-4.17h5.027V161h1.143v-9.16H52.4v3.961h-5.027v-3.961H46.23V161zm12.43.121c.401 0 .763-.051 1.085-.153.325-.106.607-.245.844-.419.237-.177.43-.374.577-.59.153-.22.259-.446.318-.679l.013-.051h-1.105l-.025.057c-.06.136-.163.269-.311.4a1.78 1.78 0 01-.565.324 2.334 2.334 0 01-.806.127c-.415 0-.775-.091-1.08-.273a1.839 1.839 0 01-.704-.794c-.165-.347-.248-.764-.248-1.25v-.438c0-.512.085-.944.254-1.295.17-.351.398-.616.686-.794.292-.182.622-.272.99-.272s.694.086.977.26c.284.169.506.427.667.774.16.347.241.789.241 1.327v.438l.546-.806h-4.92v.882h5.485v-.432c0-.681-.12-1.278-.362-1.79a2.767 2.767 0 00-1.028-1.206c-.444-.287-.978-.431-1.6-.431-.618 0-1.157.15-1.618.45a2.992 2.992 0 00-1.073 1.251c-.25.533-.375 1.153-.375 1.86v.006c0 .715.125 1.337.375 1.866.254.525.614.931 1.079 1.219.47.288 1.03.432 1.682.432zm9 2.278c.406 0 .747-.059 1.022-.177.28-.115.52-.316.724-.603.207-.288.406-.688.596-1.2l2.673-7.262h-1.162l-2.1 6.322.437-.691h-.52l.438.691-2.108-6.322h-1.18l2.532 6.849-.127.407c-.123.393-.285.67-.489.831-.198.161-.455.241-.768.241a4.73 4.73 0 01-.235-.006 1.776 1.776 0 01-.222-.025v.907c.077.013.16.021.248.026.089.008.17.012.241.012zm8.049-5.516L78.389 161h1.415l-3.288-3.72v.197l3.168-3.32h-1.327l-2.647 2.863h-.35v-2.863h-1.104V161h1.105v-3.117h.349zm7.313 3.238c.308 0 .592-.043.85-.127.258-.089.489-.218.692-.388.207-.169.383-.374.527-.615h.101V161h1.105v-4.685c0-.474-.102-.88-.305-1.218a1.932 1.932 0 00-.882-.787c-.385-.182-.857-.273-1.416-.273-.486 0-.92.076-1.301.228a2.38 2.38 0 00-.933.629 1.829 1.829 0 00-.444.939l-.007.038h1.105l.006-.019c.089-.267.265-.472.527-.616.262-.148.599-.222 1.01-.222.511 0 .894.112 1.148.337.258.22.387.541.387.964v2.133c0 .326-.084.618-.254.876a1.76 1.76 0 01-.685.616 2.188 2.188 0 01-1.003.222c-.398 0-.728-.095-.99-.286-.263-.194-.394-.465-.394-.812v-.013c0-.338.119-.601.356-.787.24-.186.622-.294 1.142-.324l2.38-.152v-.882l-2.513.152c-.529.03-.98.127-1.352.292-.373.165-.656.394-.85.686-.195.287-.293.634-.293 1.041v.012c0 .415.1.775.299 1.079.203.305.476.54.819.705a2.68 2.68 0 001.167.248zm7.744.006c.533 0 1-.089 1.402-.267.407-.182.722-.433.946-.755a1.88 1.88 0 00.343-1.117v-.013c0-.254-.053-.482-.159-.685a1.338 1.338 0 00-.463-.515 2.082 2.082 0 00-.755-.304v-.102c.338-.08.611-.26.818-.539a1.54 1.54 0 00.311-.94v-.013c0-.363-.095-.683-.285-.958-.186-.279-.46-.497-.819-.654-.355-.156-.79-.235-1.301-.235a3.33 3.33 0 00-1.25.222 2.194 2.194 0 00-.89.623 1.872 1.872 0 00-.418.952l-.007.044h1.08l.006-.032c.055-.275.218-.493.489-.653.27-.161.6-.242.99-.242.44 0 .77.098.99.292a.91.91 0 01.336.724v.013c0 .355-.118.622-.355.799-.233.174-.57.261-1.01.261H89.7v.914h1.067c.524 0 .922.089 1.193.266.275.174.413.447.413.819v.013c0 .338-.142.618-.426.838-.283.22-.677.33-1.18.33-.415 0-.764-.083-1.048-.248-.283-.165-.461-.387-.533-.666l-.013-.051H88.05l.006.051c.047.368.193.69.438.965.246.271.563.482.952.634a3.62 3.62 0 001.32.229zm6.41-.006c.31 0 .593-.043.851-.127a2.308 2.308 0 001.219-1.003h.102V161h1.104v-4.685c0-.474-.101-.88-.305-1.218a1.93 1.93 0 00-.882-.787c-.385-.182-.857-.273-1.415-.273-.487 0-.92.076-1.302.228a2.38 2.38 0 00-.933.629 1.828 1.828 0 00-.444.939l-.007.038h1.105l.006-.019a1.08 1.08 0 01.527-.616c.263-.148.599-.222 1.01-.222.511 0 .894.112 1.148.337.259.22.388.541.388.964v2.133c0 .326-.085.618-.254.876a1.76 1.76 0 01-.686.616 2.188 2.188 0 01-1.003.222c-.398 0-.728-.095-.99-.286-.262-.194-.394-.465-.394-.812v-.013c0-.338.119-.601.356-.787.241-.186.622-.294 1.142-.324l2.38-.152v-.882l-2.513.152c-.529.03-.98.127-1.352.292-.372.165-.656.394-.85.686-.195.287-.292.634-.292 1.041v.012c0 .415.099.775.298 1.079.203.305.476.54.819.705.347.165.736.248 1.168.248zm9.909-.121h1.105v-6.843h-1.105v2.831h-3.389v-2.831h-1.105V161h1.105v-3.098h3.389V161zm9.782.127c.66 0 1.227-.142 1.701-.425a2.771 2.771 0 001.098-1.213c.259-.529.388-1.155.388-1.879v-.012c0-.69-.125-1.287-.375-1.79a2.722 2.722 0 00-1.047-1.168c-.453-.28-.986-.419-1.6-.419-.343 0-.662.048-.958.146a2.443 2.443 0 00-.781.425 2.433 2.433 0 00-.578.692h-.101l.019-.14c.084-.622.224-1.125.419-1.511.194-.385.463-.67.806-.856.347-.187.785-.29 1.314-.311l.698-.032c.398-.021.76-.068 1.086-.14.325-.076.541-.165.647-.266v-.978a5.045 5.045 0 01-.908.267 6.851 6.851 0 01-.876.101l-.685.032c-.61.03-1.134.152-1.574.368a2.7 2.7 0 00-1.073.965c-.275.423-.478.963-.61 1.619-.131.651-.196 1.432-.196 2.342v.013c0 .914.118 1.68.355 2.297.241.618.599 1.086 1.073 1.403.474.313 1.06.47 1.758.47zm0-.978c-.436 0-.808-.099-1.117-.298a1.915 1.915 0 01-.698-.87c-.161-.38-.241-.837-.241-1.371v-.012c0-.512.08-.946.241-1.302.161-.355.393-.626.698-.812.309-.191.681-.286 1.117-.286.436 0 .806.095 1.111.286.309.186.544.457.705.812.16.356.241.79.241 1.302v.012c0 .534-.081.991-.241 1.371a1.902 1.902 0 01-.705.87c-.305.199-.675.298-1.111.298zm6.906.972c.309 0 .593-.043.851-.127.258-.089.489-.218.692-.388.207-.169.383-.374.527-.615h.101V161h1.105v-4.685c0-.474-.102-.88-.305-1.218a1.934 1.934 0 00-.882-.787c-.385-.182-.857-.273-1.416-.273-.486 0-.92.076-1.301.228a2.373 2.373 0 00-.933.629 1.826 1.826 0 00-.444.939l-.007.038h1.105l.006-.019c.089-.267.265-.472.527-.616.262-.148.599-.222 1.009-.222.512 0 .895.112 1.149.337.258.22.387.541.387.964v2.133c0 .326-.084.618-.254.876a1.758 1.758 0 01-.685.616 2.187 2.187 0 01-1.003.222c-.398 0-.728-.095-.99-.286-.263-.194-.394-.465-.394-.812v-.013c0-.338.119-.601.356-.787.241-.186.622-.294 1.142-.324l2.381-.152v-.882l-2.514.152c-.529.03-.98.127-1.352.292-.373.165-.656.394-.851.686-.194.287-.292.634-.292 1.041v.012c0 .415.1.775.299 1.079.203.305.476.54.818.705.347.165.737.248 1.168.248zm5.421 2.164h1.105v-3.364h.101c.127.245.297.457.508.635.216.177.461.317.737.419.279.097.575.146.888.146.58 0 1.084-.146 1.511-.438.432-.292.766-.703 1.003-1.232.237-.529.355-1.151.355-1.866v-.013c0-.711-.118-1.331-.355-1.86-.237-.529-.571-.939-1.003-1.231-.427-.296-.931-.444-1.511-.444-.317 0-.611.048-.882.146a2.281 2.281 0 00-.724.419 2.258 2.258 0 00-.527.647h-.101v-1.092h-1.105v9.128zm3.085-3.142c-.414 0-.772-.104-1.072-.311a1.958 1.958 0 01-.692-.882c-.161-.385-.242-.84-.242-1.365v-.013c0-.529.081-.984.242-1.364.16-.381.391-.675.692-.883.3-.207.658-.311 1.072-.311.419 0 .777.104 1.073.311.296.203.523.495.679.876.161.381.241.838.241 1.371v.013c0 .529-.08.986-.241 1.371a1.94 1.94 0 01-.679.882c-.296.204-.654.305-1.073.305zm6.424-2.26l2.679 3.117h1.415l-3.288-3.72v.197l3.168-3.32h-1.327l-2.647 2.863h-.349v-2.863h-1.105V161h1.105v-3.117h.349zm8.119 3.238c.651 0 1.212-.142 1.682-.426a2.83 2.83 0 001.085-1.225c.258-.529.388-1.157.388-1.885v-.013c0-.732-.13-1.362-.388-1.891a2.792 2.792 0 00-1.085-1.219c-.47-.284-1.031-.425-1.682-.425-.648 0-1.208.141-1.682.425-.47.283-.834.69-1.092 1.219-.254.529-.381 1.159-.381 1.891v.013c0 .728.127 1.356.381 1.885a2.87 2.87 0 001.092 1.225c.474.284 1.034.426 1.682.426zm0-.978c-.432 0-.798-.101-1.098-.305-.301-.203-.531-.495-.692-.876-.157-.38-.235-.84-.235-1.377v-.013c0-.541.078-1.003.235-1.384.161-.38.391-.67.692-.869.3-.203.666-.305 1.098-.305.431 0 .797.102 1.098.305.3.199.529.489.685.869.161.381.242.843.242 1.384v.013c0 .537-.081.997-.242 1.377a1.887 1.887 0 01-.685.876c-.301.204-.667.305-1.098.305zm5.084 2.666V161h5.351v1.809h1.029v-2.723h-1.092v-5.929h-4.666l-.266 3.815c-.03.461-.11.889-.242 1.282-.131.39-.321.667-.571.832h-.571v2.723h1.028zm4.183-2.723h-3.364v-.102c.161-.211.288-.491.381-.838a6.25 6.25 0 00.184-1.148l.216-2.927h2.583v5.015zm9.039-8.246h-.818l-.997 3.612h1.263l.552-3.612zm2.108 0h-.819l-.997 3.612h1.264l.552-3.612zm2.253 9.16h10.055v-9.16h-1.143v8.132h-3.313v-8.132h-1.143v8.132h-3.313v-8.132h-1.143V161zm17.329-6.843h-5.535v.914h2.216V161h1.104v-5.929h2.215v-.914zm1.6 9.128h1.104v-3.364h.102c.127.245.296.457.508.635.216.177.461.317.736.419.279.097.576.146.889.146.58 0 1.083-.146 1.511-.438.431-.292.766-.703 1.002-1.232.237-.529.356-1.151.356-1.866v-.013c0-.711-.119-1.331-.356-1.86-.236-.529-.571-.939-1.002-1.231-.428-.296-.931-.444-1.511-.444-.318 0-.612.048-.883.146-.27.097-.512.237-.723.419a2.241 2.241 0 00-.527.647h-.102v-1.092h-1.104v9.128zm3.085-3.142c-.415 0-.772-.104-1.073-.311a1.971 1.971 0 01-.692-.882c-.161-.385-.241-.84-.241-1.365v-.013c0-.529.08-.984.241-1.364a1.98 1.98 0 01.692-.883c.301-.207.658-.311 1.073-.311.419 0 .776.104 1.073.311.296.203.522.495.679.876.161.381.241.838.241 1.371v.013c0 .529-.08.986-.241 1.371-.157.381-.383.675-.679.882-.297.204-.654.305-1.073.305zm4.97.857h1.105l3.65-5.51-.75.406h.584V161h1.105v-6.843h-1.105l-3.649 5.51.749-.406h-.584v-5.104h-1.105V161zm7.332 0h1.237l1.625-2.583h.102l1.619 2.583h1.295l-2.355-3.466 2.323-3.377h-1.238l-1.606 2.546h-.101l-1.625-2.546h-1.302l2.368 3.422-2.342 3.421zm8.937-3.117l2.679 3.117h1.415l-3.288-3.72v.197l3.168-3.32h-1.327l-2.647 2.863h-.349v-2.863h-1.104V161h1.104v-3.117h.349zm8.119 3.238c.652 0 1.212-.142 1.682-.426a2.83 2.83 0 001.085-1.225c.259-.529.388-1.157.388-1.885v-.013c0-.732-.129-1.362-.388-1.891a2.792 2.792 0 00-1.085-1.219c-.47-.284-1.03-.425-1.682-.425-.648 0-1.208.141-1.682.425-.47.283-.834.69-1.092 1.219-.254.529-.381 1.159-.381 1.891v.013c0 .728.127 1.356.381 1.885a2.87 2.87 0 001.092 1.225c.474.284 1.034.426 1.682.426zm0-.978c-.432 0-.798-.101-1.098-.305-.301-.203-.531-.495-.692-.876-.157-.38-.235-.84-.235-1.377v-.013c0-.541.078-1.003.235-1.384.161-.38.391-.67.692-.869.3-.203.666-.305 1.098-.305.431 0 .798.102 1.098.305.3.199.529.489.686.869.16.381.241.843.241 1.384v.013c0 .537-.081.997-.241 1.377a1.896 1.896 0 01-.686.876c-.3.204-.667.305-1.098.305zm5.084 2.666V161h5.351v1.809h1.029v-2.723h-1.092v-5.929h-4.666l-.266 3.815a5.09 5.09 0 01-.241 1.282c-.132.39-.322.667-.572.832h-.571v2.723h1.028zm4.183-2.723h-3.364v-.102c.161-.211.288-.491.381-.838a6.25 6.25 0 00.184-1.148l.216-2.927h2.583v5.015zm12.245-5.929h-5.535v.914h2.215V161h1.105v-5.929h2.215v-.914zm4.158 6.964c.651 0 1.212-.142 1.682-.426a2.83 2.83 0 001.085-1.225c.258-.529.388-1.157.388-1.885v-.013c0-.732-.13-1.362-.388-1.891a2.792 2.792 0 00-1.085-1.219c-.47-.284-1.031-.425-1.682-.425-.648 0-1.208.141-1.682.425-.47.283-.834.69-1.092 1.219-.254.529-.381 1.159-.381 1.891v.013c0 .728.127 1.356.381 1.885a2.87 2.87 0 001.092 1.225c.474.284 1.034.426 1.682.426zm0-.978c-.432 0-.798-.101-1.098-.305-.301-.203-.531-.495-.692-.876-.157-.38-.235-.84-.235-1.377v-.013c0-.541.078-1.003.235-1.384.161-.38.391-.67.692-.869.3-.203.666-.305 1.098-.305.431 0 .797.102 1.098.305.3.199.529.489.685.869.161.381.242.843.242 1.384v.013c0 .537-.081.997-.242 1.377a1.887 1.887 0 01-.685.876c-.301.204-.667.305-1.098.305zm4.989.857h2.914c.49 0 .909-.08 1.256-.241.352-.165.62-.394.807-.686.186-.296.279-.641.279-1.034v-.013c0-.267-.059-.506-.178-.717a1.437 1.437 0 00-.489-.534 1.735 1.735 0 00-.755-.273v-.101c.322-.068.588-.241.8-.521.211-.283.317-.594.317-.933v-.012c0-.538-.18-.967-.539-1.289-.36-.326-.864-.489-1.511-.489h-2.901V161zm1.104-.914v-2.12h1.556c.491 0 .859.082 1.104.247.246.165.368.43.368.794v.013c0 .342-.105.607-.317.793-.212.182-.527.273-.946.273h-1.765zm0-3.034v-1.981h1.638c.385 0 .667.091.844.273.178.178.267.413.267.705v.013c0 .321-.104.567-.311.736-.207.169-.533.254-.978.254h-1.46zm7.903 4.069c.309 0 .593-.043.851-.127.258-.089.489-.218.692-.388.207-.169.383-.374.527-.615h.101V161h1.105v-4.685c0-.474-.102-.88-.305-1.218a1.934 1.934 0 00-.882-.787c-.385-.182-.857-.273-1.416-.273-.486 0-.92.076-1.301.228a2.373 2.373 0 00-.933.629 1.835 1.835 0 00-.445.939l-.006.038h1.105l.006-.019c.089-.267.264-.472.527-.616.262-.148.599-.222 1.009-.222.512 0 .895.112 1.149.337.258.22.387.541.387.964v2.133c0 .326-.084.618-.254.876a1.758 1.758 0 01-.685.616 2.19 2.19 0 01-1.003.222c-.398 0-.728-.095-.99-.286-.263-.194-.394-.465-.394-.812v-.013c0-.338.119-.601.356-.787.241-.186.622-.294 1.142-.324l2.38-.152v-.882l-2.513.152c-.529.03-.98.127-1.352.292-.373.165-.656.394-.851.686-.195.287-.292.634-.292 1.041v.012c0 .415.1.775.299 1.079.203.305.476.54.818.705.347.165.737.248 1.168.248zm5.421 2.164h1.105v-3.364h.101c.127.245.296.457.508.635.216.177.461.317.736.419.28.097.576.146.889.146.58 0 1.083-.146 1.511-.438.431-.292.766-.703 1.003-1.232.237-.529.355-1.151.355-1.866v-.013c0-.711-.118-1.331-.355-1.86-.237-.529-.572-.939-1.003-1.231-.428-.296-.931-.444-1.511-.444-.317 0-.611.048-.882.146a2.281 2.281 0 00-.724.419 2.258 2.258 0 00-.527.647h-.101v-1.092h-1.105v9.128zm3.085-3.142c-.415 0-.772-.104-1.073-.311a1.963 1.963 0 01-.691-.882c-.161-.385-.242-.84-.242-1.365v-.013c0-.529.081-.984.242-1.364a1.97 1.97 0 01.691-.883c.301-.207.658-.311 1.073-.311.419 0 .777.104 1.073.311.296.203.523.495.679.876.161.381.241.838.241 1.371v.013c0 .529-.08.986-.241 1.371a1.94 1.94 0 01-.679.882c-.296.204-.654.305-1.073.305zm6.856.978c.309 0 .592-.043.85-.127.258-.089.489-.218.692-.388.207-.169.383-.374.527-.615h.102V161h1.104v-4.685c0-.474-.102-.88-.305-1.218a1.934 1.934 0 00-.882-.787c-.385-.182-.857-.273-1.416-.273-.486 0-.92.076-1.301.228a2.373 2.373 0 00-.933.629 1.826 1.826 0 00-.444.939l-.007.038h1.105l.006-.019c.089-.267.265-.472.527-.616.263-.148.599-.222 1.009-.222.512 0 .895.112 1.149.337.258.22.388.541.388.964v2.133c0 .326-.085.618-.254.876a1.76 1.76 0 01-.686.616 2.187 2.187 0 01-1.003.222c-.398 0-.728-.095-.99-.286-.262-.194-.394-.465-.394-.812v-.013c0-.338.119-.601.356-.787.241-.186.622-.294 1.142-.324l2.381-.152v-.882l-2.514.152c-.529.03-.98.127-1.352.292-.372.165-.656.394-.851.686-.194.287-.292.634-.292 1.041v.012c0 .415.1.775.299 1.079.203.305.476.54.819.705.347.165.736.248 1.168.248zm5.351-5.669h.819l.996-3.612h-1.263l-.552 3.612zm2.107 0h.819l.997-3.612H283.9l-.552 3.612z" fill="#E1E1E1"/></g><defs><filter id="filter0_bdd_957_2159" x="-18" y="-20" width="559" height="225" filterUnits="userSpaceOnUse" color-interpolation-filters="sRGB"><feFlood flood-opacity="0" result="BackgroundImageFix"/><feGaussianBlur in="BackgroundImageFix" stdDeviation="15"/><feComposite in2="SourceAlpha" operator="in" result="effect1_backgroundBlur_957_2159"/><feColorMatrix in="SourceAlpha" values="0 0 0 0 0 0 0 0 0 0 0 0 0 0 0 0 0 0 127 0" result="hardAlpha"/><feMorphology radius="10" in="SourceAlpha" result="effect2_dropShadow_957_2159"/><feOffset dy="17"/><feGaussianBlur stdDeviation="11"/><feComposite in2="hardAlpha" operator="out"/><feColorMatrix values="0 0 0 0 0 0 0 0 0 0 0 0 0 0 0 0 0 0 0.25 0"/><feBlend in2="effect1_backgroundBlur_957_2159" result="effect2_dropShadow_957_2159"/><feColorMatrix in="SourceAlpha" values="0 0 0 0 0 0 0 0 0 0 0 0 0 0 0 0 0 0 127 0" result="hardAlpha"/><feOffset/><feGaussianBlur stdDeviation="5"/><feComposite in2="hardAlpha" operator="out"/><feColorMatrix values="0 0 0 0 0 0 0 0 0 0 0 0 0 0 0 0 0 0 0.05 0"/><feBlend in2="effect2_dropShadow_957_2159" result="effect3_dropShadow_957_2159"/><feBlend in="SourceGraphic" in2="effect3_dropShadow_957_2159" result="shape"/></filter></defs></svg>