<svg width="746" height="219" fill="none" xmlns="http://www.w3.org/2000/svg"><g filter="url(#filter0_bdd_957_2404)"><g clip-path="url(#clip0_957_2404)"><rect x="12" y="10" width="722" height="180" rx="25" fill="#000" fill-opacity=".5" shape-rendering="crispEdges"/><g filter="url(#filter1_b_957_2404)"><rect x="22.5" y="31.5" width="17" height="17" rx="8.5" stroke="#5B5B5C"/><path d="M49.469 45.232c.939 0 1.745-.212 2.42-.635.679-.424 1.198-1.021 1.558-1.791.365-.775.547-1.686.547-2.735v-.013c0-1.053-.182-1.965-.547-2.735-.364-.775-.886-1.371-1.565-1.79-.675-.42-1.479-.63-2.413-.63-.93 0-1.734.21-2.413.63-.675.419-1.197 1.013-1.566 1.783-.364.77-.547 1.684-.547 2.742v.013c0 1.049.18 1.96.54 2.735.365.774.885 1.374 1.559 1.797.675.42 1.483.63 2.427.63zm0-1.134c-.684 0-1.27-.167-1.757-.5-.488-.332-.861-.8-1.121-1.4-.26-.607-.39-1.316-.39-2.127v-.013c0-.82.132-1.532.397-2.133.269-.602.647-1.067 1.134-1.395.488-.328 1.067-.492 1.737-.492.674 0 1.255.164 1.743.492.487.328.863.793 1.128 1.395.264.601.396 1.312.396 2.133v.013c0 .812-.132 1.52-.396 2.126-.265.602-.64 1.069-1.128 1.402-.488.332-1.069.499-1.743.499zm9.707 1.039c.71 0 1.321-.153 1.832-.458.515-.306.909-.74 1.182-1.306.278-.57.417-1.244.417-2.023v-.014c0-.743-.134-1.386-.403-1.928a2.94 2.94 0 00-1.128-1.258c-.487-.3-1.062-.45-1.723-.45a3.31 3.31 0 00-1.032.156 2.639 2.639 0 00-.84.459 2.62 2.62 0 00-.623.745h-.109l.02-.15c.092-.67.242-1.213.452-1.628.21-.414.499-.722.868-.923.374-.2.845-.312 1.415-.335l.752-.034a7.217 7.217 0 001.169-.15c.35-.082.583-.178.697-.287V34.5a5.33 5.33 0 01-.977.287 7.27 7.27 0 01-.944.11l-.738.034c-.656.032-1.221.164-1.695.396-.47.233-.855.579-1.156 1.04-.296.455-.515 1.036-.656 1.742-.141.702-.212 1.543-.212 2.523v.014c0 .984.128 1.809.383 2.474.26.666.645 1.17 1.155 1.51.51.338 1.142.507 1.894.507zm0-1.053c-.47 0-.87-.107-1.203-.321a2.065 2.065 0 01-.752-.937c-.173-.41-.26-.902-.26-1.476v-.014c0-.551.087-1.019.26-1.401a1.92 1.92 0 01.752-.875c.332-.206.733-.308 1.203-.308.47 0 .868.102 1.196.308.333.2.586.492.759.875.173.382.26.85.26 1.4v.015c0 .574-.087 1.066-.26 1.476a2.049 2.049 0 01-.759.937c-.328.214-.727.321-1.196.321zm5.77 3.5c.437 0 .804-.064 1.1-.191.3-.123.56-.34.78-.65.223-.31.437-.74.642-1.292l2.878-7.82h-1.251l-2.263 6.809.472-.746h-.56l.47.745-2.269-6.808h-1.271l2.727 7.376-.136.437c-.133.424-.308.723-.527.896-.214.173-.49.26-.827.26-.082 0-.166-.003-.253-.007a1.826 1.826 0 01-.24-.028v.978c.083.014.172.023.267.027.096.01.183.014.26.014zM72.047 45h3.138c.528 0 .98-.087 1.353-.26.378-.178.668-.424.868-.738.2-.32.301-.69.301-1.114v-.014c0-.287-.064-.545-.191-.772a1.548 1.548 0 00-.527-.575 1.85 1.85 0 00-.813-.294v-.109c.346-.073.633-.26.861-.56.228-.306.342-.64.342-1.005v-.014c0-.579-.194-1.041-.581-1.388-.388-.35-.93-.526-1.627-.526h-3.124V45zm1.19-.984v-2.284h1.674c.529 0 .925.09 1.19.267.264.178.396.463.396.854v.014c0 .37-.114.654-.342.855-.228.196-.567.294-1.018.294h-1.9zm0-3.268v-2.133H75c.415 0 .718.098.91.294.19.192.286.444.286.759v.014c0 .346-.111.61-.335.793-.223.182-.574.273-1.052.273h-1.573zM79.717 45h2.632c.843 0 1.515-.226 2.016-.677.502-.45.752-1.057.752-1.818v-.014c0-.76-.25-1.367-.752-1.818-.501-.451-1.173-.677-2.016-.677h-1.443v-2.365h-1.19V45zm2.632-4.02c.483 0 .866.137 1.148.41.287.274.43.64.43 1.101v.014c0 .456-.14.822-.423 1.1-.283.274-.668.41-1.155.41h-1.443V40.98h1.443z" fill="#E1E1E1"/><rect x="22.5" y="61.5" width="17" height="17" rx="8.5" stroke="#5B5B5C"/><path d="M44.54 75h1.292l2.898-8.272h.39v-1.592h-.943L44.54 75zm1.648-2.823h5.222l-.383-1.046H46.57l-.383 1.046zM51.737 75h1.292l-3.636-9.864h-.554v1.593L51.738 75zm4.567-3.356L59.19 75h1.524l-3.541-4.006v.212l3.411-3.575h-1.429l-2.85 3.083h-.376V67.63h-1.19V75h1.19v-3.356h.376zm8.73 3.486c.592 0 1.097-.098 1.517-.294a2.62 2.62 0 001.011-.807c.256-.346.433-.74.534-1.182l.013-.075-1.175.006-.014.041c-.137.41-.362.723-.677.937-.314.214-.72.321-1.217.321-.437 0-.818-.114-1.141-.342a2.201 2.201 0 01-.752-.963c-.178-.42-.267-.912-.267-1.477v-.014c0-.556.087-1.037.26-1.442.178-.41.428-.727.752-.95.324-.224.706-.335 1.148-.335.529 0 .955.127 1.279.382.323.256.53.566.622.93l.007.02h1.182l-.007-.04a2.708 2.708 0 00-.499-1.183 2.735 2.735 0 00-1.039-.848c-.433-.21-.948-.314-1.545-.314-.688 0-1.285.157-1.79.472-.507.31-.898.747-1.177 1.312-.273.565-.41 1.23-.41 1.996v.014c0 .78.14 1.456.417 2.03.278.574.67 1.019 1.176 1.333.506.315 1.103.472 1.791.472zm7.963 0c.433 0 .823-.055 1.169-.164.35-.114.654-.264.91-.451.254-.192.462-.404.621-.636.164-.237.278-.48.342-.732l.014-.054h-1.19l-.027.061c-.064.146-.175.29-.335.431a1.91 1.91 0 01-.608.349 2.499 2.499 0 01-.869.136c-.446 0-.834-.098-1.162-.294a1.982 1.982 0 01-.758-.854c-.178-.374-.267-.823-.267-1.347v-.472c0-.55.091-1.016.273-1.394.183-.378.429-.663.739-.855a1.98 1.98 0 011.066-.293c.397 0 .747.093 1.053.28.305.182.544.46.718.834.173.374.26.85.26 1.428v.472l.587-.868h-5.298v.95h5.907v-.465c0-.733-.13-1.376-.39-1.927a2.977 2.977 0 00-1.108-1.3c-.478-.31-1.052-.464-1.722-.464-.666 0-1.247.162-1.743.485a3.216 3.216 0 00-1.156 1.347c-.269.574-.403 1.242-.403 2.003v.007c0 .77.135 1.44.403 2.01a3.083 3.083 0 001.162 1.312c.506.31 1.11.465 1.812.465zm8.142 0c.592 0 1.098-.098 1.517-.294.42-.196.757-.465 1.012-.807.255-.346.433-.74.533-1.182l.014-.075-1.176.006-.014.041c-.136.41-.362.723-.676.937-.315.214-.72.321-1.217.321-.438 0-.818-.114-1.142-.342-.323-.228-.574-.549-.752-.963-.178-.42-.266-.912-.266-1.477v-.014c0-.556.086-1.037.26-1.442.177-.41.428-.727.751-.95.324-.224.707-.335 1.149-.335.529 0 .955.127 1.278.382.324.256.531.566.622.93l.007.02h1.183l-.007-.04a2.706 2.706 0 00-.5-1.183 2.735 2.735 0 00-1.038-.848c-.433-.21-.948-.314-1.545-.314-.688 0-1.285.157-1.791.472-.506.31-.898.747-1.176 1.312-.273.565-.41 1.23-.41 1.996v.014c0 .78.139 1.456.417 2.03.278.574.67 1.019 1.176 1.333.505.315 1.102.472 1.79.472zm7.97 0c.593 0 1.099-.098 1.518-.294a2.62 2.62 0 001.012-.807 3.14 3.14 0 00.533-1.182l.013-.075-1.175.006-.014.041c-.137.41-.362.723-.677.937-.314.214-.72.321-1.216.321a1.93 1.93 0 01-1.142-.342c-.324-.228-.574-.549-.752-.963-.178-.42-.267-.912-.267-1.477v-.014c0-.556.087-1.037.26-1.442.178-.41.428-.727.752-.95.324-.224.707-.335 1.148-.335.53 0 .955.127 1.279.382.323.256.53.566.622.93l.007.02h1.182l-.007-.04a2.706 2.706 0 00-.499-1.183 2.735 2.735 0 00-1.039-.848c-.432-.21-.947-.314-1.544-.314-.689 0-1.286.157-1.791.472-.506.31-.898.747-1.176 1.312-.274.565-.41 1.23-.41 1.996v.014c0 .78.139 1.456.417 2.03.277.574.67 1.019 1.175 1.333.506.315 1.103.472 1.791.472zm5.38 2.454c.438 0 .805-.064 1.1-.191.302-.124.561-.34.78-.65.223-.31.438-.74.643-1.292l2.878-7.82h-1.25l-2.263 6.808.472-.745h-.56l.47.745-2.269-6.808h-1.27l2.727 7.376-.136.437c-.133.424-.308.723-.527.896-.214.173-.49.26-.827.26-.082 0-.166-.003-.253-.007a1.822 1.822 0 01-.24-.028v.978c.083.014.172.023.268.027.095.01.182.014.26.014zm8.86-2.454c.332 0 .638-.046.916-.137a2.34 2.34 0 00.745-.417c.223-.182.412-.403.567-.663h.11V75h1.189v-5.045c0-.51-.109-.948-.328-1.312a2.082 2.082 0 00-.95-.848c-.415-.196-.923-.294-1.525-.294-.524 0-.991.082-1.401.246-.41.16-.745.385-1.005.677a1.978 1.978 0 00-.479 1.011l-.006.042h1.189l.007-.02c.096-.288.285-.51.567-.664.283-.16.645-.24 1.087-.24.552 0 .964.121 1.238.363.278.237.417.583.417 1.04v2.296c0 .35-.092.665-.274.943a1.9 1.9 0 01-.738.663c-.315.16-.675.24-1.08.24-.429 0-.784-.103-1.067-.308-.282-.21-.424-.501-.424-.875v-.014c0-.364.128-.647.383-.847.26-.2.67-.317 1.231-.349l2.563-.164v-.95l-2.707.164c-.569.032-1.055.137-1.456.314-.401.178-.706.424-.916.739-.21.31-.314.683-.314 1.12v.014c0 .447.107.834.321 1.163.219.328.513.58.882.758a2.89 2.89 0 001.258.267zm5.838 2.33h1.189v-3.622h.109c.137.264.319.492.547.684.233.19.497.341.793.45.301.106.62.158.957.158.625 0 1.167-.157 1.627-.472.465-.314.825-.756 1.08-1.326.255-.57.383-1.24.383-2.01v-.013c0-.766-.128-1.434-.383-2.003-.255-.57-.615-1.012-1.08-1.326-.46-.32-1.002-.479-1.627-.479a2.79 2.79 0 00-.95.157 2.454 2.454 0 00-.779.451 2.438 2.438 0 00-.568.698h-.109V67.63h-1.189v9.83zm3.322-3.383c-.447 0-.832-.111-1.156-.335-.323-.223-.571-.54-.745-.95-.173-.415-.259-.905-.259-1.47v-.013c0-.57.086-1.06.259-1.47.174-.41.422-.727.745-.95.324-.224.709-.335 1.156-.335.451 0 .836.111 1.155.335.319.218.563.533.731.943.174.41.26.902.26 1.477v.013c0 .57-.086 1.062-.26 1.477-.168.41-.412.727-.731.95-.319.219-.704.328-1.155.328zm5.352.923h2.632c.843 0 1.515-.226 2.017-.677.501-.45.752-1.057.752-1.818v-.014c0-.76-.251-1.367-.752-1.818-.502-.451-1.174-.677-2.017-.677h-1.442v-2.365h-1.19V75zm2.632-4.02c.483 0 .866.137 1.149.41.287.274.43.64.43 1.101v.014c0 .456-.141.823-.424 1.1-.282.274-.667.41-1.155.41h-1.442v-3.034h1.442zm4.054 4.02h1.189v-7.37h-1.189V75z" fill="#E1E1E1"/><rect x="22.5" y="91.5" width="17" height="17" rx="8.5" stroke="#5B5B5C"/><path d="M45.415 106.948V105h7.355v1.948h1.142v-3.055h-1.23v-8.757H46.44l-.375 6.207a6.767 6.767 0 01-.15 1.148 2.746 2.746 0 01-.33.862 1.51 1.51 0 01-.58.54h-.732v3.055h1.142zm1.805-5.578l.321-5.127h3.91v7.65H46.53v-.082c.164-.196.292-.411.383-.643a3.87 3.87 0 00.205-.8c.046-.296.08-.629.103-.998zm11.354 3.76c.433 0 .823-.055 1.17-.164.35-.114.653-.265.908-.451a2.75 2.75 0 00.622-.636 2.27 2.27 0 00.342-.732l.014-.054h-1.19l-.027.061c-.064.146-.175.29-.335.431a1.93 1.93 0 01-.608.349 2.502 2.502 0 01-.868.136c-.447 0-.834-.098-1.162-.294a1.977 1.977 0 01-.76-.854c-.177-.374-.266-.823-.266-1.347v-.471c0-.552.091-1.017.273-1.395.183-.378.429-.663.739-.855a1.98 1.98 0 011.066-.293c.397 0 .748.093 1.053.28.305.182.544.46.718.834.173.374.26.85.26 1.429v.471l.587-.868h-5.297v.95h5.906v-.465c0-.733-.13-1.376-.39-1.927a2.977 2.977 0 00-1.107-1.3c-.479-.31-1.053-.464-1.723-.464-.665 0-1.246.162-1.743.485a3.215 3.215 0 00-1.155 1.347c-.27.574-.404 1.242-.404 2.003v.007c0 .77.135 1.44.404 2.01a3.07 3.07 0 001.162 1.312c.506.31 1.11.465 1.811.465zm9.912-7.5h-5.96v.985h2.385V105h1.19v-6.385h2.385v-.984zm4.464 7.5c.593 0 1.099-.098 1.518-.294a2.62 2.62 0 001.011-.807c.256-.346.433-.74.534-1.182l.013-.076-1.175.007-.014.041c-.137.41-.362.723-.677.937-.314.214-.72.321-1.217.321a1.93 1.93 0 01-1.141-.342c-.324-.228-.575-.549-.752-.964-.178-.419-.267-.911-.267-1.476v-.014c0-.556.087-1.037.26-1.442.178-.41.428-.727.752-.95.323-.224.706-.335 1.148-.335.529 0 .955.127 1.279.382.323.256.53.566.622.93l.007.02h1.182l-.007-.04a2.706 2.706 0 00-.499-1.183 2.735 2.735 0 00-1.039-.848c-.433-.21-.948-.314-1.545-.314-.688 0-1.285.157-1.79.472a3.1 3.1 0 00-1.176 1.312c-.274.565-.41 1.231-.41 1.996v.014c0 .779.138 1.456.416 2.03.278.574.67 1.019 1.176 1.333.506.315 1.103.472 1.791.472zm6.515-3.486L82.35 105h1.524l-3.541-4.006v.212l3.411-3.575h-1.429l-2.85 3.083h-.376v-3.083h-1.19V105h1.19v-3.356h.376zm6.05 3.356h1.19l3.93-5.934-.807.438h.629V105h1.19v-7.37h-1.19l-3.93 5.934.806-.437h-.629v-5.496h-1.19V105zm11.49.13c.434 0 .824-.055 1.17-.164.35-.114.654-.265.909-.451.255-.192.462-.404.622-.636a2.27 2.27 0 00.342-.732l.014-.054h-1.19l-.027.061a1.27 1.27 0 01-.335.431c-.16.141-.363.257-.609.349a2.502 2.502 0 01-.868.136c-.446 0-.834-.098-1.162-.294a1.978 1.978 0 01-.759-.854c-.177-.374-.266-.823-.266-1.347v-.471c0-.552.09-1.017.273-1.395.182-.378.428-.663.738-.855.315-.195.67-.293 1.067-.293.396 0 .747.093 1.053.28.305.182.544.46.717.834.174.374.26.85.26 1.429v.471l.588-.868h-5.298v.95h5.906v-.465c0-.733-.129-1.376-.39-1.927a2.977 2.977 0 00-1.107-1.3c-.478-.31-1.052-.464-1.722-.464-.666 0-1.247.162-1.743.485a3.217 3.217 0 00-1.156 1.347c-.269.574-.403 1.242-.403 2.003v.007c0 .77.134 1.44.403 2.01a3.083 3.083 0 001.162 1.312c.506.31 1.11.465 1.812.465zm14.397-7.5h-5.961v.985h2.386V105h1.19v-6.385h2.385v-.984zm4.478 7.5c.702 0 1.306-.153 1.811-.458.506-.31.896-.75 1.169-1.319.278-.57.417-1.247.417-2.031v-.013c0-.789-.139-1.468-.417-2.037a3.008 3.008 0 00-1.169-1.313c-.505-.305-1.109-.458-1.811-.458-.697 0-1.301.153-1.812.458a3.052 3.052 0 00-1.175 1.313c-.274.57-.411 1.248-.411 2.037v.013c0 .784.137 1.461.411 2.031a3.1 3.1 0 001.175 1.319c.511.305 1.115.458 1.812.458zm0-1.053c-.465 0-.859-.109-1.183-.328-.323-.219-.572-.533-.745-.943-.168-.41-.253-.905-.253-1.484v-.013c0-.584.085-1.08.253-1.49.173-.41.422-.723.745-.937.324-.219.718-.328 1.183-.328.465 0 .859.11 1.182.328.324.214.57.526.739.936.173.411.26.907.26 1.491v.013c0 .579-.087 1.074-.26 1.484-.169.41-.415.724-.739.943-.323.219-.717.328-1.182.328zm5.373.923h3.138c.528 0 .979-.087 1.353-.26.378-.178.668-.424.868-.738.201-.319.301-.69.301-1.114v-.014c0-.287-.064-.545-.191-.772a1.552 1.552 0 00-.527-.575 1.849 1.849 0 00-.813-.294v-.109c.346-.073.633-.26.861-.561a1.64 1.64 0 00.342-1.004v-.014c0-.579-.194-1.041-.581-1.388-.387-.35-.93-.526-1.627-.526h-3.124V105zm1.189-.984v-2.284h1.675c.529 0 .925.089 1.19.267.264.178.396.463.396.855v.013c0 .369-.114.654-.342.855-.228.196-.567.294-1.018.294h-1.901zm0-3.268v-2.133h1.764c.415 0 .718.098.909.294.192.192.287.444.287.759v.014c0 .346-.111.61-.335.793-.223.182-.574.273-1.052.273h-1.573zm8.511 4.382c.333 0 .638-.046.916-.137a2.482 2.482 0 001.313-1.08h.109V105h1.189v-5.045c0-.51-.109-.948-.328-1.312a2.082 2.082 0 00-.95-.848c-.415-.196-.923-.294-1.524-.294-.524 0-.991.082-1.402.246-.41.16-.745.385-1.005.677a1.977 1.977 0 00-.478 1.011l-.007.042h1.19l.006-.02c.096-.288.285-.51.568-.664.282-.16.645-.24 1.087-.24.551 0 .964.121 1.237.363.278.237.417.583.417 1.04v2.296c0 .351-.091.665-.273.943a1.896 1.896 0 01-.739.663c-.314.16-.674.24-1.08.24-.428 0-.784-.103-1.066-.308-.283-.21-.424-.501-.424-.875v-.014c0-.364.128-.647.383-.847.26-.201.67-.317 1.23-.349l2.564-.164v-.95l-2.707.164c-.57.032-1.055.137-1.456.314-.401.178-.707.424-.916.739-.21.31-.315.683-.315 1.121v.013c0 .447.107.834.321 1.162.219.329.513.582.882.759a2.89 2.89 0 001.258.267zm5.838 2.331h1.189v-3.623h.11c.137.264.319.492.547.683.232.192.496.342.793.452.3.104.619.157.957.157.624 0 1.166-.157 1.627-.472.465-.314.825-.756 1.08-1.326.255-.57.383-1.24.383-2.01v-.013c0-.766-.128-1.434-.383-2.003-.255-.57-.615-1.012-1.08-1.326-.461-.32-1.003-.479-1.627-.479a2.78 2.78 0 00-.95.157 2.46 2.46 0 00-.78.451 2.419 2.419 0 00-.567.698h-.11V97.63h-1.189v9.83zm3.322-3.384c-.446 0-.831-.112-1.155-.335-.324-.223-.572-.54-.745-.95-.173-.415-.26-.905-.26-1.47v-.013c0-.57.087-1.06.26-1.47.173-.41.421-.727.745-.95.324-.224.709-.335 1.155-.335.451 0 .837.111 1.156.335.319.218.562.533.731.943.173.41.26.902.26 1.477v.013c0 .57-.087 1.062-.26 1.477-.169.41-.412.727-.731.95-.319.219-.705.328-1.156.328zm5.353.923h2.632c.843 0 1.515-.226 2.016-.677.502-.451.752-1.057.752-1.818v-.014c0-.761-.25-1.367-.752-1.818-.501-.451-1.173-.677-2.016-.677h-1.443v-2.365h-1.189V105zm2.632-4.02c.483 0 .866.137 1.148.411.287.273.431.64.431 1.1v.014c0 .456-.142.822-.424 1.1-.283.274-.668.411-1.155.411h-1.443v-3.036h1.443zm4.053 4.02h1.19v-7.37h-1.19V105z" fill="#E1E1E1"/><circle cx="31" cy="130" r="6" fill="#4CC67F"/><rect x="22.5" y="121.5" width="17" height="17" rx="8.5" stroke="#9B9B9B"/><path d="M51.745 129.408v-4.272h-1.23v4.272h-.356l-3.8-4.272h-1.525l4.443 4.846v-.157L44.465 135h1.579l4.115-4.498h.356V135h1.23v-4.498h.356L56.216 135h1.6l-4.834-5.202v.157l4.43-4.819h-1.51l-3.801 4.272h-.356zm10.179 5.722a3.89 3.89 0 001.169-.164c.35-.114.654-.265.909-.451.255-.192.463-.404.622-.636a2.27 2.27 0 00.342-.732l.014-.054h-1.19l-.027.061a1.28 1.28 0 01-.335.431c-.16.141-.363.257-.609.349a2.502 2.502 0 01-.868.136c-.446 0-.834-.098-1.162-.294a1.977 1.977 0 01-.759-.854c-.178-.374-.266-.823-.266-1.347v-.471c0-.552.09-1.017.273-1.395.182-.378.428-.663.738-.855.315-.195.67-.293 1.067-.293.396 0 .747.093 1.053.28.305.182.544.46.717.834.173.374.26.85.26 1.429v.471l.588-.868h-5.298v.95h5.906v-.465c0-.733-.13-1.376-.39-1.927a2.978 2.978 0 00-1.107-1.299c-.478-.31-1.052-.465-1.722-.465-.666 0-1.247.162-1.743.485a3.22 3.22 0 00-1.156 1.347c-.269.574-.403 1.242-.403 2.003v.007c0 .77.134 1.44.403 2.01a3.083 3.083 0 001.162 1.312c.506.31 1.11.465 1.812.465zm9.96-.13h1.19v-7.369h-1.19v3.049h-3.65v-3.049h-1.19V135h1.19v-3.336h3.65V135zm3.527 0h9.106v-7.369h-1.19v6.385H80.56v-6.385h-1.19v6.385h-2.768v-6.385h-1.19V135zm9.16 1.948h1.135v-2.932h-2.352V135h1.217v1.948zm2.68-1.948h1.19l3.93-5.934-.806.438h.628V135h1.19v-7.369h-1.19l-3.93 5.933.806-.437h-.629v-5.496h-1.189V135zm13.316 0h1.19v-7.369h-1.19v3.049h-3.65v-3.049h-1.19V135h1.19v-3.336h3.65V135zm5.558.13c.333 0 .638-.046.916-.137.278-.096.526-.235.745-.417a2.5 2.5 0 00.568-.663h.109V135h1.189v-5.045c0-.51-.109-.948-.328-1.312a2.079 2.079 0 00-.95-.848c-.415-.196-.923-.294-1.524-.294-.524 0-.992.082-1.402.246-.41.16-.745.385-1.005.677a1.975 1.975 0 00-.478 1.012l-.007.041h1.189l.007-.021c.096-.287.285-.508.568-.663.282-.16.645-.239 1.087-.239.551 0 .963.12 1.237.362.278.237.417.583.417 1.039v2.297c0 .351-.091.665-.274.943a1.886 1.886 0 01-.738.663c-.314.16-.674.24-1.08.24-.428 0-.784-.103-1.066-.308-.283-.21-.424-.501-.424-.875v-.014c0-.364.127-.647.383-.847.259-.201.67-.317 1.23-.349l2.564-.164v-.95l-2.707.164c-.57.032-1.055.137-1.456.314-.402.178-.707.424-.916.739-.21.31-.315.683-.315 1.121v.013c0 .447.107.834.321 1.162.219.329.513.582.882.759a2.89 2.89 0 001.258.267zm7.021-.13v-5.243h.129l2.318 5.038h.916l2.324-5.038h.13V135h1.189v-7.369h-1.381l-2.638 5.715h-.11l-2.625-5.715h-1.442V135h1.19z" fill="#E1E1E1"/><rect x="22.5" y="151.5" width="17" height="17" rx="8.5" stroke="#5B5B5C"/><path d="M45.326 165h1.149v-7.533h.601l-1.374-2.058L49.667 165h1.04l3.97-9.591-1.38 2.058h.601V165h1.149v-9.864h-1.429l-3.377 8.23h-.11l-3.376-8.23h-1.429V165zm12.852 2.584c.437 0 .804-.064 1.1-.191.301-.123.56-.34.78-.65.223-.31.437-.74.642-1.292l2.878-7.82h-1.25l-2.264 6.808.472-.745h-.56l.471.745-2.27-6.808h-1.27l2.727 7.376-.137.437c-.132.424-.307.723-.526.896-.214.173-.49.26-.827.26-.082 0-.167-.003-.253-.007a1.835 1.835 0 01-.24-.028v.978c.082.014.171.023.267.027.096.009.182.014.26.014zM65.8 165l2.645-3.377h.438V165h1.148v-3.377h.438L73.114 165h1.49l-3.199-3.91 3.05-3.459h-1.41l-2.576 3.103h-.438v-3.103h-1.148v3.103h-.438l-2.577-3.103H64.44l3.069 3.486L64.33 165h1.47zm15.613 0v-7.369h-1.19v3.11c-.1.114-.239.214-.416.301a2.53 2.53 0 01-.622.205c-.242.05-.518.075-.828.075-.5 0-.88-.143-1.134-.43-.251-.288-.376-.673-.376-1.156v-2.105h-1.19v2.105c0 .784.228 1.42.684 1.908.456.487 1.128.731 2.016.731.397 0 .739-.039 1.026-.116.291-.078.535-.187.731-.328h.11V165h1.19zm2.338 0h1.19l3.93-5.934-.806.438h.628V165h1.19v-7.369h-1.19l-3.93 5.933.806-.437h-.629v-5.496h-1.189V165zm13.316 0h1.19v-7.369h-1.19v3.049h-3.65v-3.049h-1.19V165h1.19v-3.336h3.65V165zm5.558.13c.333 0 .638-.046.916-.137.278-.096.526-.235.745-.417a2.5 2.5 0 00.568-.663h.109V165h1.189v-5.045c0-.51-.109-.948-.328-1.312a2.079 2.079 0 00-.95-.848c-.415-.196-.923-.294-1.524-.294-.524 0-.992.082-1.402.246-.41.16-.745.385-1.005.677a1.975 1.975 0 00-.478 1.012l-.007.041h1.189l.007-.021c.096-.287.285-.508.568-.663.282-.16.645-.239 1.087-.239.551 0 .963.12 1.237.362.278.237.417.583.417 1.039v2.297c0 .351-.091.665-.274.943a1.886 1.886 0 01-.738.663c-.314.16-.674.24-1.08.24-.428 0-.784-.103-1.066-.308-.283-.21-.424-.501-.424-.875v-.014c0-.364.127-.647.383-.847.259-.201.67-.317 1.23-.349l2.564-.164v-.95l-2.707.164c-.57.032-1.055.137-1.456.314-.402.178-.707.424-.916.739-.21.31-.315.683-.315 1.121v.013c0 .447.107.834.321 1.162.219.329.513.582.882.759a2.89 2.89 0 001.258.267zm7.021-.13v-5.243h.129l2.318 5.038h.916l2.324-5.038h.13V165h1.189v-7.369h-1.381l-2.638 5.715h-.11l-2.625-5.715h-1.442V165h1.19z" fill="#E1E1E1"/></g><path fill="#373737" d="M252 10h1v180h-1z"/><g filter="url(#filter2_b_957_2404)"><rect x="263.5" y="31.5" width="17" height="17" rx="8.5" stroke="#5B5B5C"/><path d="M292.745 39.408v-4.272h-1.23v4.272h-.356l-3.801-4.272h-1.524l4.443 4.846v-.157L285.465 45h1.579l4.115-4.498h.356V45h1.23v-4.498h.356L297.216 45h1.599l-4.833-5.202v.157l4.43-4.82h-1.511l-3.8 4.273h-.356zm10.179 5.722a3.89 3.89 0 001.169-.164c.351-.114.654-.264.909-.451.255-.192.463-.404.622-.636.164-.237.278-.48.342-.731l.013-.055h-1.189l-.027.061a1.28 1.28 0 01-.335.431c-.16.141-.363.257-.609.349a2.496 2.496 0 01-.868.136c-.446 0-.834-.098-1.162-.294a1.985 1.985 0 01-.759-.854c-.177-.374-.266-.823-.266-1.347v-.472c0-.55.091-1.016.273-1.394.182-.378.428-.663.738-.855.315-.196.67-.294 1.067-.294.396 0 .747.094 1.053.28.305.183.544.461.717.835.173.373.26.85.26 1.428v.472l.588-.868h-5.298v.95h5.906v-.465c0-.733-.13-1.376-.389-1.927a2.978 2.978 0 00-1.108-1.3c-.478-.31-1.052-.464-1.722-.464-.666 0-1.247.162-1.744.485a3.225 3.225 0 00-1.155 1.347c-.269.574-.403 1.242-.403 2.003v.007c0 .77.134 1.44.403 2.01a3.083 3.083 0 001.162 1.312c.506.31 1.11.465 1.812.465zm9.96-.13h1.189v-7.37h-1.189v3.05h-3.651v-3.05h-1.189V45h1.189v-3.336h3.651V45zm6.549.13c.592 0 1.098-.098 1.517-.294a2.62 2.62 0 001.012-.807 3.14 3.14 0 00.533-1.182l.014-.075-1.176.006-.014.041c-.136.41-.362.723-.676.937-.315.214-.72.321-1.217.321-.438 0-.818-.114-1.142-.342-.323-.227-.574-.549-.752-.963-.178-.42-.266-.912-.266-1.477v-.014c0-.556.086-1.036.259-1.442.178-.41.429-.727.752-.95.324-.224.707-.335 1.149-.335.528 0 .955.127 1.278.383.324.255.531.565.622.93l.007.02h1.183l-.007-.041a2.705 2.705 0 00-.499-1.183 2.736 2.736 0 00-1.039-.848c-.433-.21-.948-.314-1.545-.314-.688 0-1.285.157-1.791.472-.506.31-.898.747-1.176 1.312-.273.565-.41 1.23-.41 1.996v.014c0 .78.139 1.456.417 2.03.278.574.67 1.019 1.176 1.333.505.315 1.102.472 1.791.472zm6.514-3.486L328.832 45h1.524l-3.541-4.006v.212l3.412-3.575h-1.429l-2.851 3.083h-.376V37.63h-1.189V45h1.189v-3.356h.376zm6.05 3.356h1.19l3.93-5.934-.806.438h.628V45h1.19v-7.37h-1.19l-3.93 5.934.806-.437h-.628v-5.496h-1.19V45zm11.491.13c.433 0 .823-.055 1.169-.164.351-.114.654-.264.909-.451.256-.192.463-.404.622-.636a2.25 2.25 0 00.342-.731l.014-.055h-1.19l-.027.061c-.064.146-.175.29-.335.431a1.9 1.9 0 01-.608.349 2.5 2.5 0 01-.868.136c-.447 0-.834-.098-1.162-.294a1.972 1.972 0 01-.759-.854c-.178-.374-.267-.823-.267-1.347v-.472c0-.55.091-1.016.274-1.394.182-.378.428-.663.738-.855.314-.196.67-.294 1.066-.294.397 0 .748.094 1.053.28.305.183.545.461.718.835.173.373.26.85.26 1.428v.472l.587-.868h-5.297v.95h5.906v-.465c0-.733-.13-1.376-.39-1.927a2.976 2.976 0 00-1.107-1.3c-.479-.31-1.053-.464-1.723-.464-.665 0-1.246.162-1.743.485a3.21 3.21 0 00-1.155 1.347c-.269.574-.404 1.242-.404 2.003v.007c0 .77.135 1.44.404 2.01a3.07 3.07 0 001.162 1.312c.506.31 1.109.465 1.811.465zm14.896.007c.688 0 1.28-.153 1.777-.458.497-.31.88-.75 1.149-1.32.268-.57.403-1.248.403-2.037v-.013c0-.793-.135-1.475-.403-2.044-.269-.57-.652-1.008-1.149-1.313-.497-.305-1.089-.458-1.777-.458-.634 0-1.19.132-1.668.397a2.942 2.942 0 00-1.135 1.141c-.278.492-.447 1.085-.506 1.778l-.02.724c.027.748.177 1.39.451 1.928a3.04 3.04 0 001.148 1.244c.488.287 1.064.43 1.73.43zm0-1.053c-.451 0-.834-.11-1.149-.328-.314-.219-.553-.533-.717-.944-.164-.414-.247-.911-.247-1.49v-.013c0-.584.083-1.08.247-1.49.164-.415.403-.73.717-.944.315-.219.698-.328 1.149-.328.451 0 .834.11 1.148.328.315.214.554.529.718.943.164.41.246.907.246 1.49v.014c0 .579-.082 1.076-.246 1.49-.164.41-.403.725-.718.944-.314.219-.697.328-1.148.328zm-5.838.916h1.189v-3.336h1.928v-.984h-1.928v-3.05h-1.189V45zm14.212.137c.711 0 1.321-.153 1.832-.458.515-.306.909-.74 1.182-1.306.278-.57.417-1.244.417-2.023v-.014c0-.743-.134-1.386-.403-1.928a2.935 2.935 0 00-1.128-1.258c-.487-.3-1.062-.45-1.722-.45-.37 0-.714.052-1.033.156a2.655 2.655 0 00-.841.459 2.61 2.61 0 00-.622.745h-.109l.021-.15c.091-.67.241-1.213.451-1.628a2.08 2.08 0 01.868-.923c.374-.2.845-.312 1.415-.335l.752-.034a7.224 7.224 0 001.169-.15c.351-.082.583-.178.697-.287V34.5a5.34 5.34 0 01-.977.287 7.27 7.27 0 01-.944.11l-.738.034c-.656.032-1.221.164-1.695.396-.47.233-.855.579-1.156 1.04-.296.455-.515 1.036-.656 1.742-.141.702-.212 1.543-.212 2.523v.014c0 .984.128 1.809.383 2.474.26.666.645 1.17 1.155 1.51.511.338 1.142.507 1.894.507zm0-1.053c-.47 0-.871-.107-1.203-.321a2.065 2.065 0 01-.752-.937c-.173-.41-.26-.902-.26-1.476v-.014c0-.551.087-1.019.26-1.401a1.92 1.92 0 01.752-.875c.332-.206.733-.308 1.203-.308.469 0 .868.102 1.196.308.333.2.586.492.759.875.173.382.26.85.26 1.4v.015c0 .574-.087 1.066-.26 1.476a2.046 2.046 0 01-.759.937c-.328.214-.727.321-1.196.321zm6.972-2.44L376.615 45h1.525l-3.541-4.006v.212l3.411-3.575h-1.429l-2.851 3.083h-.376V37.63h-1.189V45h1.189v-3.356h.376zM379.78 45h1.19l3.93-5.934-.806.438h.629V45h1.189v-7.37h-1.189l-3.931 5.934.807-.437h-.629v-5.496h-1.19V45z" fill="#E1E1E1"/><circle cx="272" cy="70" r="6" fill="#4CC67F"/><rect x="263.5" y="61.5" width="17" height="17" rx="8.5" stroke="#9B9B9B"/><path d="M292.745 69.408v-4.272h-1.23v4.272h-.356l-3.801-4.272h-1.524l4.443 4.846v-.157L285.465 75h1.579l4.115-4.498h.356V75h1.23v-4.498h.356L297.216 75h1.599l-4.833-5.202v.157l4.43-4.82h-1.511l-3.8 4.273h-.356zm10.179 5.722a3.89 3.89 0 001.169-.164c.351-.114.654-.264.909-.451.255-.192.463-.404.622-.636.164-.237.278-.48.342-.732l.013-.054h-1.189l-.027.061a1.28 1.28 0 01-.335.431c-.16.141-.363.257-.609.349a2.496 2.496 0 01-.868.136c-.446 0-.834-.098-1.162-.294a1.985 1.985 0 01-.759-.854c-.177-.374-.266-.823-.266-1.347v-.472c0-.55.091-1.016.273-1.394.182-.378.428-.663.738-.855.315-.195.67-.293 1.067-.293.396 0 .747.093 1.053.28.305.182.544.46.717.834.173.374.26.85.26 1.428v.472l.588-.868h-5.298v.95h5.906v-.465c0-.733-.13-1.376-.389-1.927a2.978 2.978 0 00-1.108-1.3c-.478-.31-1.052-.464-1.722-.464-.666 0-1.247.162-1.744.485a3.225 3.225 0 00-1.155 1.347c-.269.574-.403 1.242-.403 2.003v.007c0 .77.134 1.44.403 2.01a3.083 3.083 0 001.162 1.312c.506.31 1.11.465 1.812.465zm9.96-.13h1.189v-7.37h-1.189v3.05h-3.651v-3.05h-1.189V75h1.189v-3.336h3.651V75zm6.549.13c.592 0 1.098-.098 1.517-.294a2.62 2.62 0 001.012-.807 3.14 3.14 0 00.533-1.182l.014-.075-1.176.006-.014.041c-.136.41-.362.723-.676.937-.315.214-.72.321-1.217.321-.438 0-.818-.114-1.142-.342-.323-.228-.574-.549-.752-.963-.178-.42-.266-.912-.266-1.477v-.014c0-.556.086-1.037.259-1.442.178-.41.429-.727.752-.95.324-.224.707-.335 1.149-.335.528 0 .955.127 1.278.382.324.256.531.566.622.93l.007.02h1.183l-.007-.04a2.705 2.705 0 00-.499-1.183 2.736 2.736 0 00-1.039-.848c-.433-.21-.948-.314-1.545-.314-.688 0-1.285.157-1.791.472-.506.31-.898.747-1.176 1.312-.273.565-.41 1.23-.41 1.996v.014c0 .78.139 1.456.417 2.03.278.574.67 1.019 1.176 1.333.505.315 1.102.472 1.791.472zm6.514-3.486L328.832 75h1.524l-3.541-4.006v.212l3.412-3.575h-1.429l-2.851 3.083h-.376V67.63h-1.189V75h1.189v-3.356h.376zm8.743 3.486c.702 0 1.306-.153 1.812-.458.506-.31.895-.75 1.169-1.32.278-.57.417-1.246.417-2.03v-.013c0-.789-.139-1.468-.417-2.037a3.014 3.014 0 00-1.169-1.313c-.506-.305-1.11-.458-1.812-.458-.697 0-1.301.153-1.811.458a3.054 3.054 0 00-1.176 1.313c-.273.57-.41 1.248-.41 2.037v.013c0 .784.137 1.46.41 2.03.278.57.67 1.01 1.176 1.32.51.305 1.114.458 1.811.458zm0-1.053c-.464 0-.859-.11-1.182-.328-.324-.219-.572-.533-.745-.943-.169-.41-.253-.905-.253-1.484v-.013c0-.584.084-1.08.253-1.49.173-.41.421-.723.745-.937.323-.219.718-.328 1.182-.328.465 0 .859.11 1.183.328.324.214.57.526.738.936.174.41.26.907.26 1.49v.014c0 .579-.086 1.073-.26 1.484-.168.41-.414.724-.738.943-.324.219-.718.328-1.183.328zm8.388 1.053c.433 0 .823-.055 1.169-.164.351-.114.654-.264.909-.451.255-.192.463-.404.622-.636.164-.237.278-.48.342-.732l.014-.054h-1.19l-.027.061c-.064.146-.175.29-.335.431a1.9 1.9 0 01-.608.349 2.502 2.502 0 01-.869.136c-.446 0-.834-.098-1.162-.294a1.976 1.976 0 01-.758-.854c-.178-.374-.267-.823-.267-1.347v-.472c0-.55.091-1.016.273-1.394.183-.378.429-.663.739-.855a1.98 1.98 0 011.066-.293c.397 0 .747.093 1.053.28.305.182.544.46.718.834.173.374.259.85.259 1.428v.472l.588-.868h-5.298v.95h5.907v-.465c0-.733-.13-1.376-.39-1.927a2.976 2.976 0 00-1.107-1.3c-.479-.31-1.053-.464-1.723-.464-.665 0-1.246.162-1.743.485a3.22 3.22 0 00-1.156 1.347c-.268.574-.403 1.242-.403 2.003v.007c0 .77.135 1.44.403 2.01a3.079 3.079 0 001.163 1.312c.505.31 1.109.465 1.811.465zm12.127.007c.711 0 1.322-.153 1.832-.458.515-.306.909-.74 1.183-1.306.278-.57.417-1.244.417-2.023v-.014c0-.743-.135-1.385-.404-1.928a2.935 2.935 0 00-1.128-1.258c-.487-.3-1.061-.45-1.722-.45a3.31 3.31 0 00-1.032.156 2.633 2.633 0 00-.841.459c-.246.2-.454.448-.622.745h-.11l.021-.15c.091-.67.241-1.213.451-1.628.21-.414.499-.722.868-.923.374-.2.846-.312 1.415-.335l.752-.034a7.21 7.21 0 001.169-.15c.351-.082.583-.178.697-.287V64.5a5.317 5.317 0 01-.977.287 7.25 7.25 0 01-.944.11l-.738.034c-.656.032-1.221.164-1.695.396-.47.233-.855.579-1.155 1.04-.297.455-.515 1.036-.657 1.742-.141.702-.212 1.543-.212 2.523v.013c0 .985.128 1.81.383 2.475.26.665.645 1.17 1.156 1.51.51.338 1.141.507 1.893.507zm0-1.053c-.469 0-.87-.107-1.203-.321a2.065 2.065 0 01-.752-.937c-.173-.41-.26-.902-.26-1.476v-.014c0-.552.087-1.019.26-1.401a1.92 1.92 0 01.752-.875c.333-.206.734-.308 1.203-.308.469 0 .868.103 1.196.308.333.2.586.492.759.875.173.382.26.85.26 1.4v.015c0 .574-.087 1.066-.26 1.476a2.046 2.046 0 01-.759.937c-.328.214-.727.321-1.196.321zm8.422 1.046c.433 0 .823-.055 1.169-.164.351-.114.654-.264.909-.451.255-.192.463-.404.622-.636.164-.237.278-.48.342-.732l.014-.054h-1.19l-.027.061a1.28 1.28 0 01-.335.431c-.16.141-.362.257-.609.349a2.496 2.496 0 01-.868.136c-.446 0-.834-.098-1.162-.294a1.985 1.985 0 01-.759-.854c-.177-.374-.266-.823-.266-1.347v-.472c0-.55.091-1.016.273-1.394.183-.378.429-.663.739-.855a1.97 1.97 0 011.066-.293c.396 0 .747.093 1.053.28.305.182.544.46.717.834.174.374.26.85.26 1.428v.472l.588-.868h-5.298v.95h5.906v-.465c0-.733-.129-1.376-.389-1.927a2.978 2.978 0 00-1.108-1.3c-.478-.31-1.052-.464-1.722-.464-.666 0-1.247.162-1.743.485a3.22 3.22 0 00-1.156 1.347c-.269.574-.403 1.242-.403 2.003v.007c0 .77.134 1.44.403 2.01a3.083 3.083 0 001.162 1.312c.506.31 1.11.465 1.812.465zm6.644-3.015l.274-3.5h2.563V75h1.19v-7.37h-4.819l-.315 4.39a5.266 5.266 0 01-.15.99c-.073.292-.18.525-.322.698a.679.679 0 01-.553.26c-.087 0-.171-.005-.253-.014a1.827 1.827 0 01-.171-.034v1.073c.05.018.121.034.212.048.091.018.2.027.328.027.41 0 .754-.105 1.032-.314.283-.21.504-.533.663-.97.164-.438.271-.994.321-1.669zM376.636 75h2.632c.843 0 1.515-.226 2.016-.677.501-.45.752-1.057.752-1.818v-.014c0-.76-.251-1.367-.752-1.818-.501-.451-1.173-.677-2.016-.677h-1.443v-2.365h-1.189V75zm2.632-4.02c.483 0 .865.137 1.148.41.287.274.431.64.431 1.101v.014c0 .456-.142.823-.424 1.1-.283.274-.668.41-1.155.41h-1.443v-3.034h1.443zm7.615 4.15a3.89 3.89 0 001.169-.164c.351-.114.654-.264.909-.451.255-.192.463-.404.622-.636.164-.237.278-.48.342-.732l.013-.054h-1.189l-.027.061a1.28 1.28 0 01-.335.431c-.16.141-.363.257-.609.349a2.496 2.496 0 01-.868.136c-.446 0-.834-.098-1.162-.294a1.985 1.985 0 01-.759-.854c-.177-.374-.266-.823-.266-1.347v-.472c0-.55.091-1.016.273-1.394.182-.378.428-.663.738-.855.315-.195.67-.293 1.067-.293.396 0 .747.093 1.053.28.305.182.544.46.717.834.173.374.26.85.26 1.428v.472l.588-.868h-5.298v.95h5.906v-.465c0-.733-.13-1.376-.389-1.927a2.985 2.985 0 00-1.108-1.3c-.478-.31-1.052-.464-1.722-.464-.666 0-1.247.162-1.744.485a3.225 3.225 0 00-1.155 1.347c-.269.574-.403 1.242-.403 2.003v.007c0 .77.134 1.44.403 2.01a3.083 3.083 0 001.162 1.312c.506.31 1.11.465 1.812.465z" fill="#E1E1E1"/><rect x="263.5" y="91.5" width="17" height="17" rx="8.5" stroke="#5B5B5C"/><path d="M287.297 105.068c.556 0 1.016-.111 1.381-.335.369-.223.69-.549.964-.977.273-.433.542-.959.806-1.579l3.022-7.041h-1.279l-2.584 6.391h-.109l-2.645-6.391h-1.313l3.37 7.759a2.334 2.334 0 01-.431.594c-.154.151-.33.262-.526.335a1.83 1.83 0 01-.656.11 2.444 2.444 0 01-.547-.055v1.1a.954.954 0 00.198.055c.096.023.212.034.349.034zm8.524-.068v-5.243h.13l2.318 5.038h.916l2.324-5.038h.13V105h1.189v-7.37h-1.381l-2.638 5.716h-.11l-2.625-5.715h-1.442V105h1.189zm14.192 0h1.189v-7.37h-1.189v3.05h-3.651v-3.05h-1.189V105h1.189v-3.336h3.651V105zm3.527 0h2.632c.843 0 1.515-.226 2.016-.677.502-.451.752-1.057.752-1.818v-.014c0-.761-.25-1.367-.752-1.818-.501-.451-1.173-.677-2.016-.677h-1.443v-2.365h-1.189V105zm2.632-4.02c.483 0 .866.137 1.148.411.287.273.431.64.431 1.1v.014c0 .456-.141.822-.424 1.1-.282.274-.667.411-1.155.411h-1.443v-3.036h1.443zm4.054 4.02h1.189v-7.37h-1.189V105zm6.542.13a3.89 3.89 0 001.169-.164c.35-.114.653-.265.909-.451.255-.192.462-.404.622-.636a2.27 2.27 0 00.342-.732l.013-.054h-1.189l-.028.061c-.063.146-.175.29-.335.431a1.92 1.92 0 01-.608.349 2.5 2.5 0 01-.868.136c-.447 0-.834-.098-1.162-.294a1.98 1.98 0 01-.759-.854c-.178-.374-.267-.823-.267-1.347v-.471c0-.552.092-1.017.274-1.395.182-.378.428-.663.738-.855.315-.195.67-.293 1.067-.293.396 0 .747.093 1.052.28.306.182.545.46.718.834.173.374.26.85.26 1.429v.471l.588-.868h-5.298v.95h5.906v-.465c0-.733-.13-1.376-.39-1.927a2.976 2.976 0 00-1.107-1.3c-.478-.31-1.053-.464-1.723-.464-.665 0-1.246.162-1.743.485a3.21 3.21 0 00-1.155 1.347c-.269.574-.403 1.242-.403 2.003v.007c0 .77.134 1.44.403 2.01a3.076 3.076 0 001.162 1.312c.506.31 1.11.465 1.812.465zm14.676-.13v-7.37h-1.189v3.111c-.1.114-.239.214-.417.301a2.535 2.535 0 01-.622.205c-.242.05-.517.075-.827.075-.502 0-.88-.143-1.135-.43-.251-.288-.376-.673-.376-1.156v-2.105h-1.19v2.105c0 .784.228 1.42.684 1.908.456.487 1.128.731 2.017.731.396 0 .738-.039 1.025-.116.292-.078.536-.187.732-.328h.109V105h1.189zm4.368.13c.333 0 .639-.046.917-.137.278-.096.526-.235.745-.417.223-.182.412-.403.567-.663h.109V105h1.19v-5.045c0-.51-.11-.948-.328-1.312a2.082 2.082 0 00-.95-.848c-.415-.196-.923-.294-1.525-.294-.524 0-.991.082-1.401.246-.41.16-.745.385-1.005.677a1.978 1.978 0 00-.479 1.011l-.006.042h1.189l.007-.02c.096-.288.285-.51.567-.664.283-.16.645-.24 1.087-.24.552 0 .964.121 1.237.363.278.237.417.583.417 1.04v2.296c0 .351-.091.665-.273.943a1.9 1.9 0 01-.738.663c-.315.16-.675.24-1.08.24-.429 0-.784-.103-1.067-.308-.282-.21-.424-.501-.424-.875v-.014c0-.364.128-.647.383-.847.26-.201.67-.317 1.231-.349l2.563-.164v-.95l-2.707.164c-.57.032-1.055.137-1.456.314-.401.178-.706.424-.916.739-.21.31-.314.683-.314 1.121v.013c0 .447.107.834.321 1.162.219.329.513.582.882.759.373.178.793.267 1.257.267zm8.853 0c.592 0 1.098-.098 1.518-.294a2.617 2.617 0 001.011-.807c.256-.346.433-.74.534-1.182l.013-.076-1.176.007-.013.041c-.137.41-.363.723-.677.937-.314.214-.72.321-1.217.321-.437 0-.818-.114-1.141-.342-.324-.228-.575-.549-.752-.964-.178-.419-.267-.911-.267-1.476v-.014c0-.556.087-1.037.26-1.442.178-.41.428-.727.752-.95.323-.224.706-.335 1.148-.335.529 0 .955.127 1.279.382.323.256.53.566.622.93l.006.02h1.183l-.007-.04a2.705 2.705 0 00-.499-1.183 2.736 2.736 0 00-1.039-.848c-.433-.21-.948-.314-1.545-.314-.688 0-1.285.157-1.791.472-.506.31-.898.747-1.176 1.312-.273.565-.41 1.231-.41 1.996v.014c0 .779.139 1.456.417 2.03.278.574.67 1.019 1.176 1.333.506.315 1.103.472 1.791.472zm4.949-.13h2.632c.843 0 1.515-.226 2.017-.677.501-.451.752-1.057.752-1.818v-.014c0-.761-.251-1.367-.752-1.818-.502-.451-1.174-.677-2.017-.677h-1.442v-2.365h-1.19V105zm2.632-4.02c.483 0 .866.137 1.149.411.287.273.43.64.43 1.1v.014c0 .456-.141.822-.424 1.1-.282.274-.667.411-1.155.411h-1.442v-3.036h1.442zM366.3 105h1.189v-7.37H366.3V105z" fill="#E1E1E1"/><rect x="263.5" y="121.5" width="17" height="17" rx="8.5" stroke="#5B5B5C"/><path d="M290.469 135.232c.939 0 1.745-.211 2.42-.635.679-.424 1.198-1.021 1.558-1.791.365-.775.547-1.687.547-2.735v-.013c0-1.053-.182-1.965-.547-2.735-.364-.774-.886-1.372-1.565-1.791-.675-.419-1.479-.629-2.413-.629-.93 0-1.734.21-2.413.629-.675.419-1.197 1.014-1.566 1.784-.364.771-.547 1.684-.547 2.742v.013c0 1.048.18 1.96.54 2.735.365.774.885 1.374 1.559 1.798.674.419 1.483.628 2.427.628zm0-1.134c-.684 0-1.269-.167-1.757-.499-.488-.333-.861-.8-1.121-1.402-.26-.606-.39-1.315-.39-2.126v-.013c0-.821.132-1.532.397-2.133.269-.602.647-1.067 1.134-1.395.488-.328 1.067-.492 1.737-.492.674 0 1.255.164 1.743.492.488.328.864.793 1.128 1.395.264.601.396 1.312.396 2.133v.013c0 .811-.132 1.52-.396 2.126-.264.602-.64 1.069-1.128 1.402-.488.332-1.069.499-1.743.499zm6.672 2.85V135h5.762v1.948h1.108v-2.932h-1.176v-6.385h-5.024l-.288 4.108a5.432 5.432 0 01-.259 1.381c-.142.419-.347.718-.616.896h-.615v2.932h1.108zm4.505-2.932h-3.624v-.11c.174-.228.31-.528.411-.902.1-.378.166-.791.198-1.237l.232-3.152h2.783v5.401zm6.924 1.114c.433 0 .823-.055 1.169-.164.351-.114.654-.265.909-.451.256-.192.463-.404.623-.636.164-.237.278-.481.341-.732l.014-.054h-1.189l-.028.061c-.064.146-.175.29-.335.431a1.92 1.92 0 01-.608.349 2.503 2.503 0 01-.868.136c-.447 0-.834-.098-1.162-.294a1.968 1.968 0 01-.759-.854c-.178-.374-.267-.823-.267-1.347v-.471c0-.552.091-1.017.274-1.395.182-.378.428-.663.738-.855a1.98 1.98 0 011.066-.293c.397 0 .748.093 1.053.28.305.182.545.46.718.834.173.374.26.85.26 1.429v.471l.587-.868h-5.297v.95h5.906v-.465c0-.733-.13-1.376-.39-1.927a2.977 2.977 0 00-1.107-1.299c-.479-.31-1.053-.465-1.723-.465-.665 0-1.246.162-1.743.485a3.215 3.215 0 00-1.155 1.347c-.269.574-.404 1.242-.404 2.003v.007c0 .77.135 1.44.404 2.01a3.07 3.07 0 001.162 1.312c.506.31 1.109.465 1.811.465zm5.435-.13l2.645-3.377h.438V135h1.148v-3.377h.438l2.645 3.377h1.491l-3.2-3.91 3.049-3.459h-1.408l-2.577 3.103h-.438v-3.103h-1.148v3.103h-.438l-2.577-3.103h-1.428l3.069 3.486-3.179 3.883h1.47zm10.438 1.948V135h5.763v1.948h1.107v-2.932h-1.175v-6.385h-5.025l-.287 4.108a5.432 5.432 0 01-.26 1.381c-.141.419-.346.718-.615.896h-.615v2.932h1.107zm4.505-2.932h-3.623v-.11c.173-.228.31-.528.41-.902.101-.378.167-.791.199-1.237l.232-3.152h2.782v5.401zm5.941 1.114c.332 0 .638-.046.916-.137.278-.096.526-.235.745-.417.223-.182.412-.403.567-.663h.11V135h1.189v-5.045c0-.51-.109-.948-.328-1.312a2.079 2.079 0 00-.95-.848c-.415-.196-.923-.294-1.525-.294-.524 0-.991.082-1.401.246-.41.16-.745.385-1.005.677a1.967 1.967 0 00-.478 1.012l-.007.041h1.189l.007-.021a1.16 1.16 0 01.567-.663c.283-.16.645-.239 1.087-.239.552 0 .964.12 1.238.362.278.237.417.583.417 1.039v2.297c0 .351-.092.665-.274.943a1.9 1.9 0 01-.738.663c-.315.16-.675.24-1.08.24-.429 0-.784-.103-1.067-.308-.282-.21-.423-.501-.423-.875v-.014c0-.364.127-.647.382-.847.26-.201.67-.317 1.231-.349l2.563-.164v-.95l-2.707.164c-.569.032-1.055.137-1.456.314-.401.178-.706.424-.916.739-.209.31-.314.683-.314 1.121v.013c0 .447.107.834.321 1.162.219.329.513.582.882.759a2.89 2.89 0 001.258.267zm12.838.007c.711 0 1.321-.153 1.832-.458a2.994 2.994 0 001.182-1.306c.278-.57.417-1.244.417-2.023v-.014c0-.743-.134-1.385-.403-1.928a2.942 2.942 0 00-1.128-1.258c-.488-.3-1.062-.451-1.723-.451a3.31 3.31 0 00-1.032.157 2.658 2.658 0 00-.841.458 2.629 2.629 0 00-.622.746h-.109l.02-.151c.091-.67.242-1.212.451-1.627.21-.414.5-.722.869-.923.373-.2.845-.312 1.415-.335l.752-.034a7.305 7.305 0 001.169-.15c.35-.082.583-.178.697-.287V124.5a5.31 5.31 0 01-.978.287 7.227 7.227 0 01-.943.109l-.738.035c-.657.032-1.222.164-1.696.396a2.914 2.914 0 00-1.155 1.039c-.296.456-.515 1.037-.656 1.743-.141.702-.212 1.543-.212 2.523v.014c0 .984.128 1.809.383 2.474.26.665.645 1.169 1.155 1.511.51.337 1.142.506 1.894.506zm0-1.053c-.47 0-.871-.107-1.204-.321a2.072 2.072 0 01-.752-.937c-.173-.41-.259-.902-.259-1.476v-.014c0-.551.086-1.019.259-1.401.174-.383.424-.675.752-.875.333-.206.734-.308 1.204-.308.469 0 .868.102 1.196.308.333.2.585.492.759.875.173.382.259.85.259 1.401v.014c0 .574-.086 1.066-.259 1.476a2.053 2.053 0 01-.759.937c-.328.214-.727.321-1.196.321zm8.442 1.046c.702 0 1.306-.153 1.811-.458.506-.31.896-.75 1.169-1.319.278-.57.417-1.247.417-2.031v-.013c0-.789-.139-1.468-.417-2.038a3.009 3.009 0 00-1.169-1.312c-.505-.305-1.109-.458-1.811-.458-.697 0-1.301.153-1.812.458a3.059 3.059 0 00-1.175 1.312c-.274.57-.411 1.249-.411 2.038v.013c0 .784.137 1.461.411 2.031.278.569.67 1.009 1.175 1.319.511.305 1.115.458 1.812.458zm0-1.053c-.465 0-.859-.109-1.183-.328-.323-.219-.572-.533-.745-.943-.168-.41-.253-.905-.253-1.484v-.013c0-.584.085-1.08.253-1.491.173-.41.422-.722.745-.936.324-.219.718-.328 1.183-.328.465 0 .859.109 1.183.328.323.214.569.526.738.936.173.411.26.907.26 1.491v.013c0 .579-.087 1.074-.26 1.484-.169.41-.415.724-.738.943-.324.219-.718.328-1.183.328zm7.034-1.962l.274-3.5h2.563V135h1.189v-7.369h-4.819l-.314 4.389a5.186 5.186 0 01-.151.991c-.073.291-.18.524-.321.697a.681.681 0 01-.554.26c-.086 0-.171-.005-.253-.014a1.995 1.995 0 01-.171-.034v1.073c.051.018.121.034.212.048.092.018.201.027.329.027.41 0 .754-.104 1.032-.314.282-.21.503-.533.663-.971.164-.437.271-.993.321-1.668zm6.364 2.885h2.632c.843 0 1.516-.226 2.017-.677.501-.451.752-1.057.752-1.818v-.014c0-.761-.251-1.367-.752-1.818-.501-.451-1.174-.677-2.017-.677h-1.442v-2.365h-1.19V135zm2.632-4.02c.483 0 .866.137 1.149.411.287.273.43.64.43 1.1v.014c0 .456-.141.822-.424 1.1-.282.274-.667.411-1.155.411h-1.442v-3.036h1.442zM376.8 135h9.105v-7.369h-1.189v6.385h-2.769v-6.385h-1.189v6.385h-2.769v-6.385H376.8V135zm11.443 0h1.19l3.93-5.934-.806.438h.629V135h1.189v-7.369h-1.189l-3.931 5.933.807-.437h-.629v-5.496h-1.19V135zm7.896 0h1.333l1.75-2.782h.109l1.743 2.782h1.395l-2.536-3.732 2.502-3.637h-1.333l-1.73 2.741h-.109l-1.75-2.741h-1.402l2.55 3.684-2.522 3.685zm12.004 2.461h1.189v-3.623h.109c.137.264.319.492.547.683.233.192.497.342.793.452.301.104.62.157.957.157.625 0 1.167-.157 1.627-.472.465-.314.825-.756 1.08-1.326.256-.57.383-1.24.383-2.01v-.013c0-.766-.127-1.434-.383-2.003-.255-.57-.615-1.012-1.08-1.327-.46-.319-1.002-.478-1.627-.478-.342 0-.658.052-.95.157a2.458 2.458 0 00-.779.451 2.442 2.442 0 00-.568.698h-.109v-1.176h-1.189v9.83zm3.322-3.384c-.447 0-.832-.112-1.155-.335-.324-.223-.572-.54-.746-.95-.173-.415-.259-.905-.259-1.47v-.013c0-.57.086-1.06.259-1.47.174-.41.422-.727.746-.95.323-.224.708-.335 1.155-.335.451 0 .836.111 1.155.335.319.218.563.533.732.943.173.41.259.902.259 1.477v.013c0 .57-.086 1.062-.259 1.477-.169.41-.413.727-.732.95-.319.219-.704.328-1.155.328zm7.383 1.053c.332 0 .638-.046.916-.137.278-.096.526-.235.745-.417.223-.182.412-.403.567-.663h.11V135h1.189v-5.045c0-.51-.109-.948-.328-1.312a2.079 2.079 0 00-.95-.848c-.415-.196-.923-.294-1.525-.294-.524 0-.991.082-1.401.246-.41.16-.745.385-1.005.677a1.967 1.967 0 00-.478 1.012l-.007.041h1.189l.007-.021a1.16 1.16 0 01.567-.663c.283-.16.645-.239 1.087-.239.552 0 .964.12 1.238.362.278.237.417.583.417 1.039v2.297c0 .351-.092.665-.274.943a1.9 1.9 0 01-.738.663c-.315.16-.675.24-1.08.24-.429 0-.784-.103-1.067-.308-.282-.21-.423-.501-.423-.875v-.014c0-.364.127-.647.382-.847.26-.201.67-.317 1.231-.349l2.563-.164v-.95l-2.707.164c-.569.032-1.055.137-1.456.314-.401.178-.706.424-.916.739-.209.31-.314.683-.314 1.121v.013c0 .447.107.834.321 1.162.219.329.513.582.882.759a2.89 2.89 0 001.258.267zm8.34.007c.574 0 1.077-.096 1.51-.287a2.41 2.41 0 001.019-.814c.246-.346.369-.747.369-1.203v-.014c0-.273-.057-.519-.171-.738a1.447 1.447 0 00-.499-.554 2.261 2.261 0 00-.813-.328v-.109c.364-.087.658-.28.881-.581.224-.301.335-.638.335-1.012v-.014c0-.392-.102-.736-.307-1.032-.201-.301-.495-.535-.882-.704-.383-.169-.85-.253-1.401-.253-.502 0-.951.08-1.347.239a2.366 2.366 0 00-.957.67 2.016 2.016 0 00-.451 1.026l-.007.048h1.162l.007-.035c.059-.296.234-.531.526-.704.292-.173.647-.259 1.067-.259.473 0 .829.104 1.066.314a.98.98 0 01.362.779v.014c0 .383-.127.67-.383.861-.25.187-.613.281-1.086.281h-1.149v.984h1.149c.565 0 .993.096 1.285.287.296.187.444.481.444.882v.014c0 .364-.153.665-.458.902-.305.237-.729.355-1.271.355-.447 0-.823-.089-1.128-.266-.306-.178-.497-.417-.575-.718l-.013-.055h-1.21l.007.055c.05.396.207.743.471 1.039.265.292.606.52 1.026.684.423.164.897.246 1.422.246zm6.063-.137v-5.243h.13l2.317 5.038h.916l2.324-5.038h.13V135h1.19v-7.369h-1.381l-2.639 5.715h-.109l-2.625-5.715h-1.442V135h1.189zm12.366.13c.433 0 .823-.055 1.169-.164.351-.114.654-.265.909-.451.256-.192.463-.404.622-.636a2.27 2.27 0 00.342-.732l.014-.054h-1.19l-.027.061c-.064.146-.175.29-.335.431a1.92 1.92 0 01-.608.349 2.503 2.503 0 01-.868.136c-.447 0-.834-.098-1.163-.294a1.972 1.972 0 01-.758-.854c-.178-.374-.267-.823-.267-1.347v-.471c0-.552.091-1.017.273-1.395.183-.378.429-.663.739-.855a1.98 1.98 0 011.066-.293c.397 0 .748.093 1.053.28.305.182.544.46.718.834.173.374.259.85.259 1.429v.471l.588-.868h-5.298v.95h5.907v-.465c0-.733-.13-1.376-.39-1.927a2.977 2.977 0 00-1.107-1.299c-.479-.31-1.053-.465-1.723-.465-.665 0-1.246.162-1.743.485a3.215 3.215 0 00-1.155 1.347c-.269.574-.404 1.242-.404 2.003v.007c0 .77.135 1.44.404 2.01a3.07 3.07 0 001.162 1.312c.506.31 1.109.465 1.811.465zm5.127 2.331h1.19v-3.623h.109c.137.264.319.492.547.683.232.192.497.342.793.452.301.104.62.157.957.157.624 0 1.167-.157 1.627-.472.465-.314.825-.756 1.08-1.326.255-.57.383-1.24.383-2.01v-.013c0-.766-.128-1.434-.383-2.003-.255-.57-.615-1.012-1.08-1.327-.46-.319-1.003-.478-1.627-.478a2.78 2.78 0 00-.95.157 2.463 2.463 0 00-.78.451 2.422 2.422 0 00-.567.698h-.109v-1.176h-1.19v9.83zm3.322-3.384c-.446 0-.831-.112-1.155-.335a2.123 2.123 0 01-.745-.95c-.173-.415-.26-.905-.26-1.47v-.013c0-.57.087-1.06.26-1.47.173-.41.422-.727.745-.95.324-.224.709-.335 1.155-.335.452 0 .837.111 1.156.335.319.218.563.533.731.943.173.41.26.902.26 1.477v.013c0 .57-.087 1.062-.26 1.477-.168.41-.412.727-.731.95-.319.219-.704.328-1.156.328zm8.388 1.053c.702 0 1.306-.153 1.812-.458.505-.31.895-.75 1.169-1.319.278-.57.417-1.247.417-2.031v-.013c0-.789-.139-1.468-.417-2.038a3.021 3.021 0 00-1.169-1.312c-.506-.305-1.11-.458-1.812-.458-.697 0-1.301.153-1.811.458a3.055 3.055 0 00-1.176 1.312c-.274.57-.41 1.249-.41 2.038v.013c0 .784.136 1.461.41 2.031.278.569.67 1.009 1.176 1.319.51.305 1.114.458 1.811.458zm0-1.053c-.465 0-.859-.109-1.183-.328-.323-.219-.571-.533-.745-.943-.168-.41-.253-.905-.253-1.484v-.013c0-.584.085-1.08.253-1.491.174-.41.422-.722.745-.936.324-.219.718-.328 1.183-.328.465 0 .859.109 1.183.328.323.214.569.526.738.936.173.411.26.907.26 1.491v.013c0 .579-.087 1.074-.26 1.484-.169.41-.415.724-.738.943-.324.219-.718.328-1.183.328zm5.373.923h3.138c.528 0 .98-.087 1.353-.26.379-.178.668-.424.869-.738.2-.319.3-.69.3-1.114v-.014c0-.287-.063-.545-.191-.772a1.557 1.557 0 00-.526-.575 1.849 1.849 0 00-.814-.294v-.109c.346-.073.634-.26.861-.561a1.64 1.64 0 00.342-1.004v-.014c0-.579-.194-1.041-.581-1.388-.387-.351-.93-.526-1.627-.526h-3.124V135zm1.19-.984v-2.284h1.674c.529 0 .926.089 1.19.267.264.178.396.463.396.855v.013c0 .369-.114.654-.341.855-.228.196-.568.294-1.019.294h-1.9zm0-3.268v-2.133h1.763c.415 0 .718.098.909.294.192.192.288.445.288.759v.014c0 .346-.112.61-.335.793-.224.182-.575.273-1.053.273h-1.572z" fill="#E1E1E1"/><rect x="263.5" y="151.5" width="17" height="17" rx="8.5" stroke="#5B5B5C"/><path d="M286.326 165h3.589c.615 0 1.16-.125 1.634-.376a2.82 2.82 0 001.114-1.039c.274-.447.41-.959.41-1.538v-.014c0-.583-.136-1.096-.41-1.538a2.795 2.795 0 00-1.121-1.046c-.474-.255-1.021-.383-1.641-.383h-2.344v-2.823h4.532v-1.107h-5.763V165zm1.231-1.107v-3.719h2.037c.706 0 1.251.162 1.634.485.387.319.581.777.581 1.374v.014c-.005.592-.199 1.048-.581 1.367-.383.319-.928.479-1.634.479h-2.037zm7.875 3.691c.437 0 .804-.064 1.1-.191.301-.123.561-.34.78-.65.223-.31.437-.74.642-1.292l2.878-7.82h-1.251l-2.263 6.808.472-.745h-.561l.472.745-2.269-6.808h-1.272l2.728 7.376-.137.437c-.132.424-.308.723-.526.896-.215.173-.49.26-.828.26a5.45 5.45 0 01-.252-.007 1.842 1.842 0 01-.24-.028v.978c.082.014.171.023.267.027.096.009.182.014.26.014zm7-.636V165h5.762v1.948h1.108v-2.932h-1.176v-6.385h-5.024l-.288 4.108a5.432 5.432 0 01-.259 1.381c-.142.419-.347.718-.616.896h-.615v2.932h1.108zm4.505-2.932h-3.624v-.11c.174-.228.31-.528.411-.902.1-.378.166-.791.198-1.237l.232-3.152h2.783v5.401zm4.477 3.568c.438 0 .804-.064 1.101-.191.3-.123.56-.34.779-.65.223-.31.437-.74.643-1.292l2.877-7.82h-1.251l-2.262 6.808.471-.745h-.56l.472.745-2.27-6.808h-1.271l2.727 7.376-.137.437c-.132.424-.307.723-.526.896-.214.173-.49.26-.827.26-.082 0-.166-.003-.253-.007a1.825 1.825 0 01-.239-.028v.978c.082.014.171.023.266.027.096.009.183.014.26.014zm7.103-2.584h9.105v-7.369h-1.189v6.385h-2.769v-6.385h-1.189v6.385h-2.769v-6.385h-1.189V165zm9.16 1.948h1.135v-2.932h-2.352V165h1.217v1.948zm2.679-1.948h1.19l3.931-5.934-.807.438h.629V165h1.189v-7.369h-1.189l-3.931 5.933.807-.437h-.629v-5.496h-1.19V165zm11.492.13a3.89 3.89 0 001.169-.164c.351-.114.654-.265.909-.451.255-.192.462-.404.622-.636a2.27 2.27 0 00.342-.732l.013-.054h-1.189l-.027.061a1.28 1.28 0 01-.335.431c-.16.141-.363.257-.609.349a2.5 2.5 0 01-.868.136c-.447 0-.834-.098-1.162-.294a1.98 1.98 0 01-.759-.854c-.178-.374-.266-.823-.266-1.347v-.471c0-.552.091-1.017.273-1.395.182-.378.428-.663.738-.855.315-.195.67-.293 1.067-.293.396 0 .747.093 1.052.28.306.182.545.46.718.834.173.374.26.85.26 1.429v.471l.588-.868h-5.298v.95h5.906v-.465c0-.733-.13-1.376-.389-1.927a2.985 2.985 0 00-1.108-1.299c-.478-.31-1.053-.465-1.723-.465-.665 0-1.246.162-1.743.485a3.222 3.222 0 00-1.155 1.347c-.269.574-.403 1.242-.403 2.003v.007c0 .77.134 1.44.403 2.01a3.076 3.076 0 001.162 1.312c.506.31 1.11.465 1.812.465zm10.247-.13v-5.243h.13l2.317 5.038h.916l2.324-5.038h.13V165h1.19v-7.369h-1.381l-2.639 5.715h-.109l-2.625-5.715h-1.443V165h1.19zm11.382.13c.332 0 .638-.046.916-.137.278-.096.526-.235.745-.417.223-.182.412-.403.567-.663h.109V165h1.19v-5.045c0-.51-.109-.948-.328-1.312a2.079 2.079 0 00-.95-.848c-.415-.196-.923-.294-1.525-.294-.524 0-.991.082-1.401.246-.41.16-.745.385-1.005.677a1.976 1.976 0 00-.479 1.012l-.006.041h1.189l.007-.021a1.16 1.16 0 01.567-.663c.283-.16.645-.239 1.087-.239.552 0 .964.12 1.237.362.278.237.417.583.417 1.039v2.297c0 .351-.091.665-.273.943a1.9 1.9 0 01-.738.663c-.315.16-.675.24-1.08.24-.429 0-.784-.103-1.067-.308-.282-.21-.424-.501-.424-.875v-.014c0-.364.128-.647.383-.847.26-.201.67-.317 1.231-.349l2.563-.164v-.95l-2.707.164c-.57.032-1.055.137-1.456.314-.401.178-.706.424-.916.739-.21.31-.314.683-.314 1.121v.013c0 .447.107.834.321 1.162.219.329.513.582.882.759.373.178.793.267 1.258.267zm7.02-.13v-5.243h.13l2.317 5.038h.916l2.325-5.038h.129V165h1.19v-7.369h-1.381l-2.639 5.715h-.109l-2.625-5.715h-1.442V165h1.189zm9.352 0h2.631c.844 0 1.516-.226 2.017-.677.501-.451.752-1.057.752-1.818v-.014c0-.761-.251-1.367-.752-1.818-.501-.451-1.173-.677-2.017-.677h-1.442v-2.365h-1.189V165zm2.631-4.02c.484 0 .866.137 1.149.411.287.273.431.64.431 1.1v.014c0 .456-.142.822-.424 1.1-.283.274-.668.411-1.156.411h-1.442v-3.036h1.442zm4.054 4.02h1.19v-7.369h-1.19V165z" fill="#E1E1E1"/></g><path fill="#373737" d="M493 10h1v180h-1z"/><g filter="url(#filter3_b_957_2404)"><rect x="504.5" y="31.5" width="17" height="17" rx="8.5" stroke="#5B5B5C"/><path d="M526.54 45h1.292l2.898-8.272h.39v-1.592h-.943L526.54 45zm1.648-2.823h5.222l-.383-1.046h-4.457l-.382 1.046zm5.55 2.823h1.292l-3.636-9.864h-.554v1.592L533.738 45zm4.567-3.356L541.189 45h1.525l-3.541-4.006v.212l3.411-3.575h-1.429l-2.85 3.083h-.376V37.63h-1.19V45h1.19v-3.356h.376zm8.729 3.486c.593 0 1.098-.098 1.518-.294a2.617 2.617 0 001.011-.807 3.14 3.14 0 00.534-1.182l.013-.075-1.175.006-.014.041c-.137.41-.362.723-.677.937-.314.214-.72.321-1.217.321a1.93 1.93 0 01-1.141-.342c-.324-.227-.574-.549-.752-.963-.178-.42-.267-.912-.267-1.477v-.014c0-.556.087-1.036.26-1.442.178-.41.428-.727.752-.95.323-.224.706-.335 1.148-.335.529 0 .955.127 1.279.383.323.255.531.565.622.93l.007.02h1.182l-.007-.041a2.728 2.728 0 00-1.538-2.03c-.433-.21-.948-.315-1.545-.315-.688 0-1.285.157-1.791.472-.506.31-.897.747-1.175 1.312-.274.565-.411 1.23-.411 1.996v.014c0 .78.139 1.456.417 2.03.278.574.67 1.019 1.176 1.333.506.315 1.103.472 1.791.472zm7.964 0c.433 0 .823-.055 1.169-.164.351-.114.654-.264.909-.451.255-.192.463-.404.622-.636.164-.237.278-.48.342-.731l.014-.055h-1.19l-.027.061a1.28 1.28 0 01-.335.431 1.93 1.93 0 01-.608.349 2.506 2.506 0 01-.869.136c-.446 0-.834-.098-1.162-.294a1.985 1.985 0 01-.759-.854c-.177-.374-.266-.823-.266-1.347v-.472c0-.55.091-1.016.273-1.394.183-.378.429-.663.739-.855.314-.196.67-.294 1.066-.294s.747.094 1.053.28c.305.183.544.461.718.835.173.373.259.85.259 1.428v.472l.588-.868h-5.298v.95h5.907v-.465c0-.733-.13-1.376-.39-1.927a2.976 2.976 0 00-1.107-1.3c-.479-.31-1.053-.464-1.723-.464-.666 0-1.247.162-1.743.485a3.22 3.22 0 00-1.156 1.347c-.268.574-.403 1.242-.403 2.003v.007c0 .77.135 1.44.403 2.01a3.079 3.079 0 001.163 1.312c.505.31 1.109.465 1.811.465zm8.142 0c.592 0 1.098-.098 1.517-.294a2.62 2.62 0 001.012-.807 3.14 3.14 0 00.533-1.182l.014-.075-1.176.006-.014.041c-.136.41-.362.723-.676.937-.315.214-.72.321-1.217.321-.438 0-.818-.114-1.142-.342-.323-.227-.574-.549-.752-.963-.177-.42-.266-.912-.266-1.477v-.014c0-.556.086-1.036.259-1.442.178-.41.429-.727.752-.95.324-.224.707-.335 1.149-.335.528 0 .955.127 1.278.383.324.255.531.565.622.93l.007.02h1.183l-.007-.041a2.705 2.705 0 00-.499-1.183 2.736 2.736 0 00-1.039-.848c-.433-.21-.948-.314-1.545-.314-.688 0-1.285.157-1.791.472-.506.31-.898.747-1.176 1.312-.273.565-.41 1.23-.41 1.996v.014c0 .78.139 1.456.417 2.03.278.574.67 1.019 1.176 1.333.505.315 1.102.472 1.791.472zm7.97 0c.593 0 1.099-.098 1.518-.294a2.628 2.628 0 001.012-.807 3.14 3.14 0 00.533-1.182l.014-.075-1.176.006-.014.041c-.137.41-.362.723-.677.937-.314.214-.72.321-1.216.321a1.93 1.93 0 01-1.142-.342c-.324-.227-.574-.549-.752-.963-.178-.42-.267-.912-.267-1.477v-.014c0-.556.087-1.036.26-1.442.178-.41.429-.727.752-.95.324-.224.706-.335 1.149-.335.528 0 .954.127 1.278.383.323.255.531.565.622.93l.007.02h1.182l-.006-.041a2.717 2.717 0 00-1.539-2.03c-.433-.21-.947-.315-1.544-.315-.689 0-1.286.157-1.792.472-.505.31-.897.747-1.175 1.312-.274.565-.41 1.23-.41 1.996v.014c0 .78.139 1.456.417 2.03a3.133 3.133 0 001.175 1.333c.506.315 1.103.472 1.791.472zm5.38 2.454c.438 0 .805-.064 1.101-.191.301-.123.56-.34.779-.65.223-.31.438-.74.643-1.292l2.878-7.82h-1.251l-2.263 6.809.472-.746h-.561l.472.745-2.27-6.808h-1.271l2.727 7.376-.136.437c-.133.424-.308.723-.527.896-.214.173-.49.26-.827.26-.082 0-.166-.003-.253-.007a1.833 1.833 0 01-.239-.028v.978c.082.014.171.023.266.027.096.01.183.014.26.014zm8.86-2.454c.332 0 .638-.046.916-.137.278-.096.526-.235.745-.417.223-.182.412-.403.567-.663h.11V45h1.189v-5.045c0-.51-.109-.948-.328-1.312a2.082 2.082 0 00-.95-.848c-.415-.196-.923-.294-1.525-.294-.524 0-.991.082-1.401.246-.41.16-.745.385-1.005.677a1.978 1.978 0 00-.479 1.011l-.006.042h1.189l.007-.02c.096-.288.285-.51.567-.664.283-.16.645-.24 1.087-.24.552 0 .964.122 1.238.363.278.237.417.583.417 1.04v2.296c0 .35-.092.665-.274.943a1.9 1.9 0 01-.738.663c-.315.16-.675.24-1.08.24-.429 0-.784-.103-1.067-.308-.282-.21-.424-.501-.424-.875v-.014c0-.364.128-.647.383-.847.26-.2.67-.317 1.231-.349l2.563-.164v-.95l-2.707.164c-.569.032-1.055.137-1.456.314-.401.178-.706.424-.916.739-.21.31-.314.683-.314 1.12v.014c0 .447.107.834.321 1.163.219.328.513.58.882.758a2.89 2.89 0 001.258.267zm5.838 2.33h1.189v-3.622h.109c.137.264.319.492.547.684.233.19.497.341.793.45.301.105.62.158.957.158.625 0 1.167-.157 1.627-.472.465-.314.825-.756 1.08-1.326.255-.57.383-1.24.383-2.01v-.013c0-.766-.128-1.434-.383-2.003-.255-.57-.615-1.012-1.08-1.326-.46-.32-1.002-.479-1.627-.479a2.79 2.79 0 00-.95.157 2.454 2.454 0 00-.779.451 2.438 2.438 0 00-.568.698h-.109V37.63h-1.189v9.83zm3.322-3.383c-.447 0-.832-.111-1.156-.335-.323-.223-.571-.54-.745-.95-.173-.415-.259-.905-.259-1.47v-.013c0-.57.086-1.06.259-1.47.174-.41.422-.727.745-.95.324-.224.709-.335 1.156-.335.451 0 .836.111 1.155.335.319.218.563.533.731.943.174.41.26.902.26 1.477v.013c0 .57-.086 1.062-.26 1.477-.168.41-.412.727-.731.95-.319.219-.704.328-1.155.328zm5.352.923h2.632c.843 0 1.515-.226 2.017-.677.501-.45.752-1.057.752-1.818v-.014c0-.76-.251-1.367-.752-1.818-.502-.451-1.174-.677-2.017-.677h-1.442v-2.365h-1.19V45zm2.632-4.02c.483 0 .866.137 1.149.41.287.274.43.64.43 1.101v.014c0 .456-.141.822-.424 1.1-.282.274-.667.41-1.155.41h-1.442V40.98h1.442zm4.054 4.02h1.189v-7.37h-1.189V45z" fill="#E1E1E1"/><rect x="504.5" y="61.5" width="17" height="17" rx="8.5" stroke="#5B5B5C"/><path d="M527.326 75h3.589c.615 0 1.16-.125 1.634-.376.474-.25.845-.597 1.114-1.039.274-.447.41-.96.41-1.538v-.014c0-.583-.136-1.096-.41-1.538a2.788 2.788 0 00-1.121-1.046c-.474-.255-1.021-.383-1.641-.383h-2.344v-2.823h4.532v-1.107h-5.763V75zm1.231-1.107v-3.72h2.037c.706 0 1.251.163 1.634.486.387.32.581.777.581 1.374v.014c-.005.592-.199 1.048-.581 1.367-.383.32-.928.479-1.634.479h-2.037zm9.474 1.237c.333 0 .638-.046.916-.137.278-.096.527-.234.745-.417a2.49 2.49 0 00.568-.663h.109V75h1.19v-5.045c0-.51-.11-.948-.329-1.312a2.077 2.077 0 00-.95-.848c-.414-.196-.923-.294-1.524-.294-.524 0-.991.082-1.402.246-.41.16-.745.385-1.004.677a1.97 1.97 0 00-.479 1.011l-.007.042h1.19l.007-.02c.095-.288.284-.51.567-.664.282-.16.645-.24 1.087-.24.551 0 .964.121 1.237.363.278.237.417.583.417 1.04v2.296c0 .35-.091.665-.273.943a1.897 1.897 0 01-.739.663c-.314.16-.674.24-1.08.24-.428 0-.784-.103-1.066-.308-.283-.21-.424-.501-.424-.875v-.014c0-.364.128-.647.383-.847.26-.2.67-.317 1.23-.349l2.564-.164v-.95l-2.707.164c-.57.032-1.055.137-1.456.314-.401.178-.707.424-.916.739-.21.31-.315.683-.315 1.12v.014c0 .447.107.834.322 1.163.218.328.512.58.881.758a2.89 2.89 0 001.258.267zm10.671-.13h1.19v-7.37h-1.19v3.05h-3.65v-3.05h-1.19V75h1.19v-3.336h3.65V75zm3.698 1.948V75h5.763v1.948h1.108v-2.932h-1.176V67.63h-5.025l-.287 4.108a5.431 5.431 0 01-.26 1.381c-.141.42-.346.718-.615.896h-.615v2.932h1.107zm4.505-2.932h-3.623v-.11c.173-.228.31-.528.41-.902.101-.378.167-.79.199-1.237l.232-3.152h2.782v5.4zm5.941 1.114c.332 0 .638-.046.916-.137a2.34 2.34 0 00.745-.417c.223-.182.412-.403.567-.663h.11V75h1.189v-5.045c0-.51-.109-.948-.328-1.312a2.082 2.082 0 00-.95-.848c-.415-.196-.923-.294-1.525-.294-.524 0-.991.082-1.401.246-.41.16-.745.385-1.005.677a1.969 1.969 0 00-.478 1.011l-.007.042h1.189l.007-.02c.096-.288.285-.51.567-.664.283-.16.645-.24 1.087-.24.552 0 .964.121 1.238.363.278.237.417.583.417 1.04v2.296c0 .35-.092.665-.274.943a1.9 1.9 0 01-.738.663c-.315.16-.675.24-1.08.24-.429 0-.784-.103-1.067-.308-.282-.21-.423-.501-.423-.875v-.014c0-.364.127-.647.382-.847.26-.2.67-.317 1.231-.349l2.563-.164v-.95l-2.707.164c-.569.032-1.055.137-1.456.314-.401.178-.706.424-.916.739-.209.31-.314.683-.314 1.12v.014c0 .447.107.834.321 1.163.219.328.513.58.882.758a2.89 2.89 0 001.258.267zm6.487-.13l2.646-3.377h.437V75h1.148v-3.377h.438L576.647 75h1.491l-3.2-3.91 3.049-3.46h-1.408l-2.577 3.104h-.438v-3.103h-1.148v3.103h-.437l-2.578-3.103h-1.428l3.069 3.486L567.863 75h1.47zm10.336 0h1.189l3.931-5.934-.807.438h.629V75h1.19v-7.37h-1.19l-3.93 5.934.806-.437h-.629v-5.496h-1.189V75z" fill="#E1E1E1"/><rect x="504.5" y="91.5" width="17" height="17" rx="8.5" stroke="#5B5B5C"/><path d="M527.326 105h3.589c.615 0 1.16-.125 1.634-.376a2.82 2.82 0 001.114-1.039c.274-.447.41-.959.41-1.538v-.014c0-.583-.136-1.096-.41-1.538a2.792 2.792 0 00-1.121-1.046c-.474-.255-1.021-.383-1.641-.383h-2.344v-2.823h4.532v-1.107h-5.763V105zm1.231-1.107v-3.719h2.037c.706 0 1.251.162 1.634.485.387.319.581.777.581 1.374v.014c-.005.592-.199 1.048-.581 1.367-.383.319-.928.479-1.634.479h-2.037zm10.547 1.237c.702 0 1.306-.153 1.812-.458.506-.31.896-.75 1.169-1.319.278-.57.417-1.247.417-2.031v-.013c0-.789-.139-1.468-.417-2.037a3.008 3.008 0 00-1.169-1.313c-.506-.305-1.11-.458-1.812-.458-.697 0-1.301.153-1.811.458a3.054 3.054 0 00-1.176 1.313c-.273.57-.41 1.248-.41 2.037v.013c0 .784.137 1.461.41 2.031.278.569.67 1.009 1.176 1.319.51.305 1.114.458 1.811.458zm0-1.053c-.464 0-.859-.109-1.182-.328-.324-.219-.572-.533-.745-.943-.169-.41-.253-.905-.253-1.484v-.013c0-.584.084-1.08.253-1.49.173-.41.421-.723.745-.937.323-.219.718-.328 1.182-.328.465 0 .86.11 1.183.328.324.214.57.526.738.936.174.411.26.907.26 1.491v.013c0 .579-.086 1.074-.26 1.484-.168.41-.414.724-.738.943-.323.219-.718.328-1.183.328zm5.476 2.871V105h5.763v1.948h1.107v-2.932h-1.176v-6.385h-5.024l-.287 4.108a5.476 5.476 0 01-.26 1.381c-.141.419-.346.718-.615.896h-.615v2.932h1.107zm4.505-2.932h-3.623v-.11c.173-.228.31-.528.41-.902.1-.378.166-.791.198-1.237l.233-3.152h2.782v5.401zm3.91.984h1.19l3.93-5.934-.806.438h.629V105h1.189v-7.37h-1.189l-3.931 5.934.806-.437h-.628v-5.496h-1.19V105zm12.414 0h1.19l3.93-5.934-.806.438h.629V105h1.189v-7.37h-1.189l-3.931 5.934.807-.437h-.629v-5.496h-1.19V105zm13.98-3.356l2.884 3.356h1.525l-3.541-4.006v.212l3.411-3.575h-1.429l-2.85 3.083h-.376v-3.083h-1.19V105h1.19v-3.356h.376zm8.743 3.486c.702 0 1.306-.153 1.811-.458.506-.31.896-.75 1.169-1.319.278-.57.417-1.247.417-2.031v-.013c0-.789-.139-1.468-.417-2.037a3.008 3.008 0 00-1.169-1.313c-.505-.305-1.109-.458-1.811-.458-.697 0-1.301.153-1.812.458a3.052 3.052 0 00-1.175 1.313c-.274.57-.411 1.248-.411 2.037v.013c0 .784.137 1.461.411 2.031a3.1 3.1 0 001.175 1.319c.511.305 1.115.458 1.812.458zm0-1.053c-.465 0-.859-.109-1.183-.328-.323-.219-.572-.533-.745-.943-.169-.41-.253-.905-.253-1.484v-.013c0-.584.084-1.08.253-1.49.173-.41.422-.723.745-.937.324-.219.718-.328 1.183-.328.465 0 .859.11 1.182.328.324.214.57.526.739.936.173.411.259.907.259 1.491v.013c0 .579-.086 1.074-.259 1.484-.169.41-.415.724-.739.943-.323.219-.717.328-1.182.328zm5.38 3.384h1.189v-3.623h.11c.136.264.319.492.546.683.233.192.497.342.793.452.301.104.62.157.957.157.625 0 1.167-.157 1.627-.472.465-.314.825-.756 1.08-1.326.256-.57.383-1.24.383-2.01v-.013c0-.766-.127-1.434-.383-2.003-.255-.57-.615-1.012-1.08-1.326-.46-.32-1.002-.479-1.627-.479-.341 0-.658.052-.95.157a2.465 2.465 0 00-.779.451 2.419 2.419 0 00-.567.698h-.11V97.63h-1.189v9.83zm3.322-3.384c-.447 0-.832-.112-1.155-.335-.324-.223-.572-.54-.745-.95-.174-.415-.26-.905-.26-1.47v-.013c0-.57.086-1.06.26-1.47.173-.41.421-.727.745-.95.323-.224.708-.335 1.155-.335.451 0 .836.111 1.155.335.319.218.563.533.732.943.173.41.259.902.259 1.477v.013c0 .57-.086 1.062-.259 1.477-.169.41-.413.727-.732.95-.319.219-.704.328-1.155.328zm8.374 1.053c.592 0 1.098-.098 1.518-.294a2.617 2.617 0 001.011-.807c.256-.346.433-.74.534-1.182l.013-.076-1.176.007-.013.041c-.137.41-.363.723-.677.937-.314.214-.72.321-1.217.321-.437 0-.818-.114-1.141-.342-.324-.228-.575-.549-.752-.964-.178-.419-.267-.911-.267-1.476v-.014c0-.556.087-1.037.26-1.442.178-.41.428-.727.752-.95.323-.224.706-.335 1.148-.335.529 0 .955.127 1.278.382.324.256.531.566.623.93l.006.02h1.183l-.007-.04a2.705 2.705 0 00-.499-1.183 2.736 2.736 0 00-1.039-.848c-.433-.21-.948-.314-1.545-.314-.688 0-1.285.157-1.791.472-.506.31-.898.747-1.176 1.312-.273.565-.41 1.231-.41 1.996v.014c0 .779.139 1.456.417 2.03.278.574.67 1.019 1.176 1.333.506.315 1.103.472 1.791.472zm7.964 0a3.89 3.89 0 001.169-.164c.351-.114.654-.265.909-.451.255-.192.463-.404.622-.636a2.27 2.27 0 00.342-.732l.014-.054h-1.19l-.027.061a1.28 1.28 0 01-.335.431c-.16.141-.363.257-.609.349a2.5 2.5 0 01-.868.136c-.446 0-.834-.098-1.162-.294a1.98 1.98 0 01-.759-.854c-.177-.374-.266-.823-.266-1.347v-.471c0-.552.091-1.017.273-1.395.182-.378.429-.663.738-.855.315-.195.67-.293 1.067-.293.396 0 .747.093 1.053.28.305.182.544.46.717.834.174.374.26.85.26 1.429v.471l.588-.868h-5.298v.95h5.906v-.465c0-.733-.129-1.376-.389-1.927a2.978 2.978 0 00-1.108-1.3c-.478-.31-1.052-.464-1.722-.464-.666 0-1.247.162-1.743.485a3.22 3.22 0 00-1.156 1.347c-.269.574-.403 1.242-.403 2.003v.007c0 .77.134 1.44.403 2.01a3.083 3.083 0 001.162 1.312c.506.31 1.11.465 1.812.465zm9.912-7.5h-5.961v.985h2.386V105h1.189v-6.385h2.386v-.984zM624.8 105h2.632c.843 0 1.515-.226 2.016-.677.502-.451.752-1.057.752-1.818v-.014c0-.761-.25-1.367-.752-1.818-.501-.451-1.173-.677-2.016-.677h-1.443v-2.365H624.8V105zm2.632-4.02c.483 0 .866.137 1.148.411.287.273.431.64.431 1.1v.014c0 .456-.142.822-.424 1.1-.283.274-.668.411-1.155.411h-1.443v-3.036h1.443zm4.053 4.02h1.19v-7.37h-1.19V105z" fill="#E1E1E1"/><rect x="504.5" y="121.5" width="17" height="17" rx="8.5" stroke="#5B5B5C"/><path d="M527.326 135h3.589c.615 0 1.16-.125 1.634-.376a2.82 2.82 0 001.114-1.039c.274-.447.41-.959.41-1.538v-.014c0-.583-.136-1.096-.41-1.538a2.795 2.795 0 00-1.121-1.046c-.474-.255-1.021-.383-1.641-.383h-2.344v-2.823h4.532v-1.107h-5.763V135zm1.231-1.107v-3.719h2.037c.706 0 1.251.162 1.634.485.387.319.581.777.581 1.374v.014c-.005.592-.199 1.048-.581 1.367-.383.319-.928.479-1.634.479h-2.037zm13.35 1.244c.688 0 1.281-.153 1.778-.458.496-.31.879-.75 1.148-1.32.269-.569.403-1.248.403-2.037v-.013c0-.793-.134-1.475-.403-2.044-.269-.57-.652-1.008-1.148-1.313-.497-.305-1.09-.458-1.778-.458-.633 0-1.189.132-1.668.397a2.936 2.936 0 00-1.135 1.141c-.278.492-.446 1.085-.505 1.778l-.021.724c.027.748.178 1.39.451 1.928.278.538.661.952 1.149 1.244.487.287 1.064.431 1.729.431zm0-1.053c-.451 0-.834-.109-1.148-.328-.315-.219-.554-.533-.718-.944-.164-.414-.246-.911-.246-1.49v-.013c0-.584.082-1.08.246-1.491.164-.414.403-.729.718-.943.314-.219.697-.328 1.148-.328.451 0 .834.109 1.149.328.314.214.553.529.717.943.165.411.247.907.247 1.491v.013c0 .579-.082 1.076-.247 1.49-.164.411-.403.725-.717.944-.315.219-.698.328-1.149.328zm-5.838.916h1.19v-3.336h1.928v-.984h-1.928v-3.049h-1.19V135zm14.164.13c.593 0 1.099-.098 1.518-.294a2.628 2.628 0 001.012-.807c.255-.346.433-.74.533-1.182l.014-.076-1.176.007-.014.041c-.137.41-.362.723-.677.937-.314.214-.72.321-1.216.321-.438 0-.818-.114-1.142-.342-.324-.228-.574-.549-.752-.964-.178-.419-.267-.911-.267-1.476v-.014c0-.556.087-1.037.26-1.442.178-.41.429-.727.752-.95.324-.224.707-.335 1.149-.335.528 0 .954.127 1.278.383.323.255.531.565.622.929l.007.021h1.182l-.006-.041a2.716 2.716 0 00-1.539-2.031c-.432-.209-.947-.314-1.544-.314-.689 0-1.286.157-1.791.472-.506.31-.898.747-1.176 1.312-.274.565-.41 1.231-.41 1.996v.014c0 .779.139 1.456.417 2.03.278.574.67 1.019 1.175 1.333.506.315 1.103.472 1.791.472zm9.947-7.499h-5.961v.984h2.385V135h1.19v-6.385h2.386v-.984zm6.432.984v-.984h-4.716V135h1.189v-6.385h3.527zm3.617 6.515c.332 0 .638-.046.916-.137.278-.096.526-.235.745-.417.223-.182.412-.403.567-.663h.109V135h1.19v-5.045c0-.51-.11-.948-.328-1.312a2.079 2.079 0 00-.95-.848c-.415-.196-.923-.294-1.525-.294-.524 0-.991.082-1.401.246-.41.16-.745.385-1.005.677a1.976 1.976 0 00-.479 1.012l-.006.041h1.189l.007-.021a1.16 1.16 0 01.567-.663c.283-.16.645-.239 1.087-.239.552 0 .964.12 1.237.362.278.237.417.583.417 1.039v2.297c0 .351-.091.665-.273.943a1.9 1.9 0 01-.738.663c-.315.16-.675.24-1.08.24-.429 0-.784-.103-1.067-.308-.282-.21-.424-.501-.424-.875v-.014c0-.364.128-.647.383-.847.26-.201.67-.317 1.231-.349l2.563-.164v-.95l-2.707.164c-.57.032-1.055.137-1.456.314-.401.178-.706.424-.916.739-.21.31-.314.683-.314 1.121v.013c0 .447.107.834.321 1.162.219.329.513.582.882.759.373.178.793.267 1.258.267zm7.56-3.015l.273-3.5h2.564V135h1.189v-7.369h-4.819l-.314 4.389a5.186 5.186 0 01-.151.991c-.073.291-.18.524-.321.697a.681.681 0 01-.554.26c-.086 0-.171-.005-.253-.014a1.995 1.995 0 01-.171-.034v1.073c.051.018.121.034.212.048.091.018.201.027.328.027.411 0 .755-.104 1.033-.314.282-.21.503-.533.663-.971.164-.437.271-.993.321-1.668zm6.364 2.885h2.632c.843 0 1.515-.226 2.017-.677.501-.451.752-1.057.752-1.818v-.014c0-.761-.251-1.367-.752-1.818-.502-.451-1.174-.677-2.017-.677h-1.442v-2.365h-1.19V135zm2.632-4.02c.483 0 .866.137 1.149.411.287.273.43.64.43 1.1v.014c0 .456-.141.822-.424 1.1-.282.274-.667.411-1.155.411h-1.442v-3.036h1.442zm9.256-3.349h-5.961v.984h2.386V135h1.189v-6.385h2.386v-.984zm4.457 7.499c.433 0 .823-.055 1.169-.164.351-.114.654-.265.909-.451.255-.192.463-.404.622-.636a2.27 2.27 0 00.342-.732l.014-.054h-1.19l-.027.061a1.28 1.28 0 01-.335.431 1.93 1.93 0 01-.608.349 2.51 2.51 0 01-.869.136c-.446 0-.834-.098-1.162-.294a1.98 1.98 0 01-.759-.854c-.177-.374-.266-.823-.266-1.347v-.471c0-.552.091-1.017.273-1.395.183-.378.429-.663.739-.855a1.98 1.98 0 011.066-.293c.396 0 .747.093 1.053.28.305.182.544.46.718.834.173.374.259.85.259 1.429v.471l.588-.868h-5.298v.95h5.907v-.465c0-.733-.13-1.376-.39-1.927a2.977 2.977 0 00-1.107-1.299c-.479-.31-1.053-.465-1.723-.465-.666 0-1.247.162-1.743.485a3.224 3.224 0 00-1.156 1.347c-.268.574-.403 1.242-.403 2.003v.007c0 .77.135 1.44.403 2.01a3.079 3.079 0 001.163 1.312c.505.31 1.109.465 1.811.465zm5.127 2.331h1.189v-3.623h.11c.137.264.319.492.547.683.232.192.496.342.793.452.3.104.619.157.957.157.624 0 1.166-.157 1.627-.472.464-.314.825-.756 1.08-1.326.255-.57.383-1.24.383-2.01v-.013c0-.766-.128-1.434-.383-2.003-.255-.57-.616-1.012-1.08-1.327-.461-.319-1.003-.478-1.627-.478a2.78 2.78 0 00-.95.157 2.463 2.463 0 00-.78.451 2.422 2.422 0 00-.567.698h-.11v-1.176h-1.189v9.83zm3.322-3.384c-.446 0-.831-.112-1.155-.335-.324-.223-.572-.54-.745-.95-.173-.415-.26-.905-.26-1.47v-.013c0-.57.087-1.06.26-1.47.173-.41.421-.727.745-.95.324-.224.709-.335 1.155-.335.451 0 .837.111 1.156.335.319.218.562.533.731.943.173.41.26.902.26 1.477v.013c0 .57-.087 1.062-.26 1.477-.169.41-.412.727-.731.95-.319.219-.705.328-1.156.328zm5.353.923h2.632c.843 0 1.515-.226 2.016-.677.502-.451.752-1.057.752-1.818v-.014c0-.761-.25-1.367-.752-1.818-.501-.451-1.173-.677-2.016-.677h-1.443v-2.365H614.3V135zm2.632-4.02c.483 0 .866.137 1.148.411.287.273.431.64.431 1.1v.014c0 .456-.142.822-.424 1.1-.283.274-.668.411-1.155.411h-1.443v-3.036h1.443zm4.053 4.02h1.19v-7.369h-1.19V135zm7.465 0h1.19l3.93-5.934-.806.438h.629V135h1.189v-7.369h-1.189l-3.931 5.933.807-.437h-.629v-5.496h-1.19V135zm15.484.137c.711 0 1.321-.153 1.832-.458a2.994 2.994 0 001.182-1.306c.278-.57.417-1.244.417-2.023v-.014c0-.743-.134-1.385-.403-1.928a2.942 2.942 0 00-1.128-1.258c-.488-.3-1.062-.451-1.723-.451a3.31 3.31 0 00-1.032.157 2.658 2.658 0 00-.841.458 2.629 2.629 0 00-.622.746h-.109l.02-.151c.091-.67.242-1.212.452-1.627.209-.414.499-.722.868-.923.373-.2.845-.312 1.415-.335l.752-.034a7.305 7.305 0 001.169-.15c.351-.082.583-.178.697-.287V124.5a5.31 5.31 0 01-.978.287 7.227 7.227 0 01-.943.109l-.738.035c-.657.032-1.222.164-1.696.396a2.914 2.914 0 00-1.155 1.039c-.296.456-.515 1.037-.656 1.743-.141.702-.212 1.543-.212 2.523v.014c0 .984.128 1.809.383 2.474.26.665.645 1.169 1.155 1.511.51.337 1.142.506 1.894.506zm0-1.053c-.47 0-.871-.107-1.204-.321a2.063 2.063 0 01-.751-.937c-.174-.41-.26-.902-.26-1.476v-.014c0-.551.086-1.019.26-1.401.173-.383.423-.675.751-.875.333-.206.734-.308 1.204-.308.469 0 .868.102 1.196.308.333.2.585.492.759.875.173.382.259.85.259 1.401v.014c0 .574-.086 1.066-.259 1.476a2.053 2.053 0 01-.759.937c-.328.214-.727.321-1.196.321zm11.245 1.053c.688 0 1.28-.153 1.777-.458.497-.31.88-.75 1.148-1.32.269-.569.404-1.248.404-2.037v-.013c0-.793-.135-1.475-.404-2.044-.268-.57-.651-1.008-1.148-1.313-.497-.305-1.089-.458-1.777-.458-.634 0-1.19.132-1.668.397a2.936 2.936 0 00-1.135 1.141c-.278.492-.447 1.085-.506 1.778l-.02.724c.027.748.177 1.39.451 1.928a3.04 3.04 0 001.148 1.244c.488.287 1.064.431 1.73.431zm0-1.053c-.451 0-.834-.109-1.149-.328-.314-.219-.553-.533-.718-.944-.164-.414-.246-.911-.246-1.49v-.013c0-.584.082-1.08.246-1.491.165-.414.404-.729.718-.943.315-.219.698-.328 1.149-.328.451 0 .834.109 1.148.328.315.214.554.529.718.943.164.411.246.907.246 1.491v.013c0 .579-.082 1.076-.246 1.49-.164.411-.403.725-.718.944-.314.219-.697.328-1.148.328zm-5.838.916h1.189v-3.336h1.928v-.984h-1.928v-3.049h-1.189V135zm14.164.13c.592 0 1.098-.098 1.517-.294.42-.196.757-.465 1.012-.807.255-.346.433-.74.533-1.182l.014-.076-1.176.007-.013.041c-.137.41-.363.723-.677.937-.315.214-.72.321-1.217.321-.437 0-.818-.114-1.142-.342-.323-.228-.574-.549-.752-.964-.177-.419-.266-.911-.266-1.476v-.014c0-.556.086-1.037.26-1.442.177-.41.428-.727.752-.95.323-.224.706-.335 1.148-.335.529 0 .955.127 1.278.383.324.255.531.565.622.929l.007.021h1.183l-.007-.041a2.705 2.705 0 00-.499-1.183 2.744 2.744 0 00-1.039-.848c-.433-.209-.948-.314-1.545-.314-.688 0-1.285.157-1.791.472-.506.31-.898.747-1.176 1.312-.273.565-.41 1.231-.41 1.996v.014c0 .779.139 1.456.417 2.03.278.574.67 1.019 1.176 1.333.506.315 1.103.472 1.791.472zm9.946-7.499h-5.961v.984h2.386V135h1.189v-6.385h2.386v-.984zm1.716 7.369h2.632c.843 0 1.515-.226 2.016-.677.502-.451.752-1.057.752-1.818v-.014c0-.761-.25-1.367-.752-1.818-.501-.451-1.173-.677-2.016-.677h-1.443v-2.365h-1.189V135zm2.632-4.02c.483 0 .866.137 1.148.411.287.273.431.64.431 1.1v.014c0 .456-.141.822-.424 1.1-.282.274-.668.411-1.155.411h-1.443v-3.036h1.443zm7.615 4.15c.433 0 .823-.055 1.169-.164.351-.114.654-.265.909-.451.255-.192.463-.404.622-.636a2.27 2.27 0 00.342-.732l.014-.054h-1.19l-.027.061a1.28 1.28 0 01-.335.431 1.93 1.93 0 01-.608.349 2.51 2.51 0 01-.869.136c-.446 0-.834-.098-1.162-.294a1.972 1.972 0 01-.758-.854c-.178-.374-.267-.823-.267-1.347v-.471c0-.552.091-1.017.273-1.395.183-.378.429-.663.739-.855a1.98 1.98 0 011.066-.293c.397 0 .747.093 1.053.28.305.182.544.46.718.834.173.374.259.85.259 1.429v.471l.588-.868h-5.298v.95h5.907v-.465c0-.733-.13-1.376-.39-1.927a2.977 2.977 0 00-1.107-1.299c-.479-.31-1.053-.465-1.723-.465-.665 0-1.247.162-1.743.485a3.224 3.224 0 00-1.156 1.347c-.268.574-.403 1.242-.403 2.003v.007c0 .77.135 1.44.403 2.01a3.079 3.079 0 001.163 1.312c.505.31 1.109.465 1.811.465z" fill="#E1E1E1"/><circle cx="513" cy="160" r="6" fill="#4CC67F"/><rect x="504.5" y="151.5" width="17" height="17" rx="8.5" stroke="#9B9B9B"/><path d="M528.557 165v-4.546h.355l4.389 4.546h1.627l-5.107-5.291v.328l4.71-4.901h-1.545l-4.074 4.334h-.355v-4.334h-1.231V165h1.231zm10.397.13c.702 0 1.306-.153 1.812-.458.505-.31.895-.75 1.169-1.319.278-.57.417-1.247.417-2.031v-.013c0-.789-.139-1.468-.417-2.038a3.021 3.021 0 00-1.169-1.312c-.506-.305-1.11-.458-1.812-.458-.697 0-1.301.153-1.811.458a3.055 3.055 0 00-1.176 1.312c-.274.57-.41 1.249-.41 2.038v.013c0 .784.136 1.461.41 2.031.278.569.67 1.009 1.176 1.319.51.305 1.114.458 1.811.458zm0-1.053c-.465 0-.859-.109-1.183-.328-.323-.219-.571-.533-.745-.943-.168-.41-.253-.905-.253-1.484v-.013c0-.584.085-1.08.253-1.491.174-.41.422-.722.745-.936.324-.219.718-.328 1.183-.328.465 0 .859.109 1.183.328.323.214.569.526.738.936.173.411.26.907.26 1.491v.013c0 .579-.087 1.074-.26 1.484-.169.41-.415.724-.738.943-.324.219-.718.328-1.183.328zm7.034-1.962l.274-3.5h2.563V165h1.19v-7.369h-4.82l-.314 4.389a5.186 5.186 0 01-.151.991c-.072.291-.18.524-.321.697a.681.681 0 01-.554.26c-.086 0-.17-.005-.252-.014a1.995 1.995 0 01-.171-.034v1.073c.05.018.12.034.212.048.091.018.2.027.328.027.41 0 .754-.104 1.032-.314.282-.21.503-.533.663-.971.164-.437.271-.993.321-1.668zm11.081-3.5v-.984h-4.716V165h1.189v-6.385h3.527zm4.621 6.515c.702 0 1.306-.153 1.812-.458.506-.31.895-.75 1.169-1.319.278-.57.417-1.247.417-2.031v-.013c0-.789-.139-1.468-.417-2.038a3.015 3.015 0 00-1.169-1.312c-.506-.305-1.11-.458-1.812-.458-.697 0-1.301.153-1.811.458a3.055 3.055 0 00-1.176 1.312c-.273.57-.41 1.249-.41 2.038v.013c0 .784.137 1.461.41 2.031.278.569.67 1.009 1.176 1.319.51.305 1.114.458 1.811.458zm0-1.053c-.464 0-.859-.109-1.182-.328-.324-.219-.572-.533-.745-.943-.169-.41-.253-.905-.253-1.484v-.013c0-.584.084-1.08.253-1.491.173-.41.421-.722.745-.936.323-.219.718-.328 1.182-.328.465 0 .859.109 1.183.328.324.214.57.526.738.936.174.411.26.907.26 1.491v.013c0 .579-.086 1.074-.26 1.484-.168.41-.414.724-.738.943-.324.219-.718.328-1.183.328zm10.234-6.446h-5.961v.984h2.386V165h1.189v-6.385h2.386v-.984zm3.281 4.013L578.09 165h1.524l-3.541-4.006v.212l3.411-3.575h-1.428l-2.851 3.083h-.376v-3.083h-1.189V165h1.189v-3.356h.376zm6.05 3.356h1.189l3.931-5.934-.807.438h.629V165h1.19v-7.369h-1.19l-3.93 5.933.806-.437h-.629v-5.496h-1.189V165zm12.414 0h1.189l3.931-5.934-.807.438h.629V165h1.19v-7.369h-1.19l-3.93 5.933.806-.437h-.629v-5.496h-1.189V165zm18.033 0v-7.369h-1.189v3.11c-.101.114-.24.214-.417.301a2.535 2.535 0 01-.622.205c-.242.05-.518.075-.828.075-.501 0-.879-.143-1.134-.43-.251-.288-.376-.673-.376-1.156v-2.105h-1.19v2.105c0 .784.228 1.42.684 1.908.456.487 1.128.731 2.016.731.397 0 .739-.039 1.026-.116.292-.078.535-.187.731-.328h.11V165h1.189zm2.974 2.584c.437 0 .804-.064 1.1-.191.301-.123.561-.34.78-.65.223-.31.437-.74.642-1.292l2.878-7.82h-1.251l-2.263 6.808.472-.745h-.56l.471.745-2.269-6.808h-1.272l2.728 7.376-.137.437c-.132.424-.307.723-.526.896-.214.173-.49.26-.827.26-.082 0-.167-.003-.253-.007a1.842 1.842 0 01-.24-.028v.978c.082.014.171.023.267.027.096.009.182.014.26.014zm8.558-5.469l.274-3.5h2.563V165h1.19v-7.369h-4.82l-.314 4.389a5.27 5.27 0 01-.15.991c-.073.291-.18.524-.322.697a.68.68 0 01-.553.26c-.087 0-.171-.005-.253-.014a1.995 1.995 0 01-.171-.034v1.073c.05.018.121.034.212.048.091.018.2.027.328.027.41 0 .754-.104 1.032-.314.283-.21.504-.533.663-.971.164-.437.271-.993.321-1.668zm7.93-.471l2.885 3.356h1.524l-3.541-4.006v.212l3.411-3.575h-1.428l-2.851 3.083h-.376v-3.083h-1.189V165h1.189v-3.356h.376zm6.05 3.356h1.189l3.931-5.934-.807.438h.629V165h1.19v-7.369h-1.19l-3.93 5.933.806-.437h-.629v-5.496h-1.189V165z" fill="#E1E1E1"/></g></g></g><defs><filter id="filter0_bdd_957_2404" x="-18" y="-20" width="782" height="240" filterUnits="userSpaceOnUse" color-interpolation-filters="sRGB"><feFlood flood-opacity="0" result="BackgroundImageFix"/><feGaussianBlur in="BackgroundImageFix" stdDeviation="15"/><feComposite in2="SourceAlpha" operator="in" result="effect1_backgroundBlur_957_2404"/><feColorMatrix in="SourceAlpha" values="0 0 0 0 0 0 0 0 0 0 0 0 0 0 0 0 0 0 127 0" result="hardAlpha"/><feMorphology radius="10" in="SourceAlpha" result="effect2_dropShadow_957_2404"/><feOffset dy="17"/><feGaussianBlur stdDeviation="11"/><feComposite in2="hardAlpha" operator="out"/><feColorMatrix values="0 0 0 0 0 0 0 0 0 0 0 0 0 0 0 0 0 0 0.25 0"/><feBlend in2="effect1_backgroundBlur_957_2404" result="effect2_dropShadow_957_2404"/><feColorMatrix in="SourceAlpha" values="0 0 0 0 0 0 0 0 0 0 0 0 0 0 0 0 0 0 127 0" result="hardAlpha"/><feOffset/><feGaussianBlur stdDeviation="5"/><feComposite in2="hardAlpha" operator="out"/><feColorMatrix values="0 0 0 0 0 0 0 0 0 0 0 0 0 0 0 0 0 0 0.05 0"/><feBlend in2="effect2_dropShadow_957_2404" result="effect3_dropShadow_957_2404"/><feBlend in="SourceGraphic" in2="effect3_dropShadow_957_2404" result="shape"/></filter><filter id="filter1_b_957_2404" x="-28" y="-30" width="320" height="260" filterUnits="userSpaceOnUse" color-interpolation-filters="sRGB"><feFlood flood-opacity="0" result="BackgroundImageFix"/><feGaussianBlur in="BackgroundImageFix" stdDeviation="20"/><feComposite in2="SourceAlpha" operator="in" result="effect1_backgroundBlur_957_2404"/><feBlend in="SourceGraphic" in2="effect1_backgroundBlur_957_2404" result="shape"/></filter><filter id="filter2_b_957_2404" x="213" y="-30" width="320" height="260" filterUnits="userSpaceOnUse" color-interpolation-filters="sRGB"><feFlood flood-opacity="0" result="BackgroundImageFix"/><feGaussianBlur in="BackgroundImageFix" stdDeviation="20"/><feComposite in2="SourceAlpha" operator="in" result="effect1_backgroundBlur_957_2404"/><feBlend in="SourceGraphic" in2="effect1_backgroundBlur_957_2404" result="shape"/></filter><filter id="filter3_b_957_2404" x="454" y="-30" width="320" height="260" filterUnits="userSpaceOnUse" color-interpolation-filters="sRGB"><feFlood flood-opacity="0" result="BackgroundImageFix"/><feGaussianBlur in="BackgroundImageFix" stdDeviation="20"/><feComposite in2="SourceAlpha" operator="in" result="effect1_backgroundBlur_957_2404"/><feBlend in="SourceGraphic" in2="effect1_backgroundBlur_957_2404" result="shape"/></filter><clipPath id="clip0_957_2404"><rect x="12" y="10" width="722" height="180" rx="25" fill="#fff"/></clipPath></defs></svg>