<svg width="210" height="150" fill="none" xmlns="http://www.w3.org/2000/svg"><g clip-path="url(#clip0_797_3261)"><rect width="210" height="150" rx="50" fill="#101010"/><path d="M456.41-32.928c15.478-26.945 75.767-76.867 55.995-19.605-19.771 57.262 44.659 17.54 67.636 70.315 22.977 52.773.98 57.612-9.584 67.853-10.563 10.241 21.074 94.419-40.803 88.454-61.876-5.964 37.559-94.245 9.777-142.522-43.186-75.042-28.197 188.809-111.286 192.037-83.088 3.229-4.618-79.67 31.249-166.181C495.261-29.09 288.899 47.599 284.86-.225c-4.039-47.823 156.073-5.759 171.55-32.703z" fill="#D14141"/><g style="mix-blend-mode:hard-light" filter="url(#filter1_f_797_3261)"><path d="M371.949 120.755c-39.158-8.651 14.377 87.837-32.214 61.312-46.591-26.525-20.752 8.282-85.362 15.952-64.609 7.67-55.513-25.904-17.734-43.687 37.78-17.783-62.913-85.248 43.427-67.332 106.34 17.916 39.647-43.437 39.647-43.437s21.786-16.16 68.593-5.772c46.807 10.39 6.101 34.751 32.694 55.242 26.593 20.49-9.892 36.373-49.051 27.722z" fill="#D9F339"/></g><g style="mix-blend-mode:hard-light" filter="url(#filter2_f_797_3261)"><path d="M278.354-27.71C293.5 119.8 293.1-9.74 236.638 32.743c-56.461 42.484-61.39-9.625-61.39-9.625S3.028 135.36 148.447-21.284c145.421-156.645 54.64-1.564 69.718 10.853 15.078 12.417 45.044-164.788 60.189-17.278z" fill="#88C0F3"/></g><g style="mix-blend-mode:hard-light" filter="url(#filter3_f_797_3261)"><path d="M28.108-31.32c-54.917-31.186-17.543 12.55-36.23 65.795-18.687 53.244 36.23 9.508 36.23 68.837 0 59.329 70.553 67.316 62.926 26.622-7.627-40.694 115.936 23.579 136.148-42.215 20.213-65.795-73.604-53.244-112.885-20.157-39.28 33.088 22.119-50.201 0-33.087-22.119 17.114-39.28 33.087-53.391-17.114-14.11-50.202 22.12-17.495-32.798-48.68z" fill="#217BFB"/></g><path d="M53.969 98h8.062V83.094h9.313c9.125 0 15.344-6.063 15.344-15.063v-.062c0-9.031-6.22-15.063-15.344-15.063H53.969V98zm15.375-38.5c5.781 0 9.156 3.094 9.156 8.5v.063c0 5.406-3.375 8.53-9.156 8.53H62.03V59.5h7.313zM92.594 98h8.062V52.906h-8.062V98zm16 0h7.281V65.937h.219l13 32.063h5.468l13-32.063h.25V98h7.25V52.906h-9.312l-13.812 34.438h-.219l-13.813-34.438h-9.312V98z" fill="#fff"/></g><defs><filter id="filter1_f_797_3261" x="137.042" y="-35.692" width="363.041" height="304.832" filterUnits="userSpaceOnUse" color-interpolation-filters="sRGB"><feFlood flood-opacity="0" result="BackgroundImageFix"/><feBlend in="SourceGraphic" in2="BackgroundImageFix" result="shape"/><feGaussianBlur stdDeviation="35" result="effect1_foregroundBlur_797_3261"/></filter><filter id="filter2_f_797_3261" x="20.101" y="-160.853" width="336.719" height="292.91" filterUnits="userSpaceOnUse" color-interpolation-filters="sRGB"><feFlood flood-opacity="0" result="BackgroundImageFix"/><feBlend in="SourceGraphic" in2="BackgroundImageFix" result="shape"/><feGaussianBlur stdDeviation="35" result="effect1_foregroundBlur_797_3261"/></filter><filter id="filter3_f_797_3261" x="-82" y="-111.744" width="382" height="337" filterUnits="userSpaceOnUse" color-interpolation-filters="sRGB"><feFlood flood-opacity="0" result="BackgroundImageFix"/><feBlend in="SourceGraphic" in2="BackgroundImageFix" result="shape"/><feGaussianBlur stdDeviation="35" result="effect1_foregroundBlur_797_3261"/></filter><clipPath id="clip0_797_3261"><rect width="210" height="150" rx="50" fill="#fff"/></clipPath></defs></svg>